<svg id="Layer_1" data-name="Layer 1" xmlns="http://www.w3.org/2000/svg" xmlns:xlink="http://www.w3.org/1999/xlink" viewBox="0 0 965.7 238.74"><defs><style>.cls-1{fill:none;}.cls-2{fill:#f90;}.cls-3{fill:#fff;}.cls-4{fill:#dcdcdb;}.cls-5{fill:url(#linear-gradient);}.cls-6{fill:#ff9901;}.cls-7{fill:#6d658a;}.cls-8{fill:#131922;}</style><linearGradient id="linear-gradient" x1="-13.21" y1="344.75" x2="222.09" y2="208.89" gradientTransform="translate(0 -196)" gradientUnits="userSpaceOnUse"><stop offset="0" stop-color="#fff" stop-opacity="0"/><stop offset="0.12" stop-color="#c4c4c4" stop-opacity="0.04"/><stop offset="0.25" stop-color="#909090" stop-opacity="0.07"/><stop offset="0.37" stop-color="#646464" stop-opacity="0.11"/><stop offset="0.5" stop-color="#404040" stop-opacity="0.15"/><stop offset="0.62" stop-color="#242424" stop-opacity="0.19"/><stop offset="0.75" stop-color="#101010" stop-opacity="0.22"/><stop offset="0.87" stop-color="#040404" stop-opacity="0.26"/><stop offset="1" stop-opacity="0.3"/></linearGradient></defs><title>logo</title><g id="Layer_1-2" data-name="Layer 1"><g id="_Group_" data-name="&lt;Group&gt;"><path id="_Path_" data-name="&lt;Path&gt;" class="cls-1" d="M296.7,131.75a17.5,17.5,0,0,0-.1,25,18,18,0,0,0,13.2,5.2,16.2,16.2,0,0,0,12.1-5.2,17.14,17.14,0,0,0,5.2-12.6,16.92,16.92,0,0,0-5.2-12.5,17.74,17.74,0,0,0-25.2.1Z" transform="translate(-10.3 -4.81)"/><path id="_Path_2" data-name="&lt;Path&gt;" class="cls-1" d="M442.6,127.75a17.67,17.67,0,0,0-12.7,5.1,15.43,15.43,0,0,0-5.2,11.9c0,4.4,1.7,8,5.3,11.4a17.36,17.36,0,0,0,12.6,5.1,16.52,16.52,0,0,0,12.1-5.2,16.2,16.2,0,0,0,5.2-11.8,15.15,15.15,0,0,0-5.1-11.5A16.76,16.76,0,0,0,442.6,127.75Z" transform="translate(-10.3 -4.81)"/><path id="_Compound_Path_" data-name="&lt;Compound Path&gt;" class="cls-2" d="M315,98.85a37.83,37.83,0,0,0-21.6,6.2V58.65H264.5V188h28.9v-5.1c.7.5,1.5,1,2.3,1.5a38.62,38.62,0,0,0,20.2,5.7c11.2,0,21-4.7,29.1-14a46.92,46.92,0,0,0,12-31.9,45.26,45.26,0,0,0-12.3-31.7C336.5,103.45,326.4,98.85,315,98.85Zm12.1,45.3a17.14,17.14,0,0,1-5.2,12.6,16.2,16.2,0,0,1-12.1,5.2,18,18,0,0,1-13.2-5.2,17.85,17.85,0,0,1,12.5-30.3,17.2,17.2,0,0,1,12.7,5.2A16.64,16.64,0,0,1,327.1,144.15Z" transform="translate(-10.3 -4.81)"/><rect id="_Path_3" data-name="&lt;Path&gt;" class="cls-2" x="351.8" y="53.84" width="29.1" height="129.4"/><path id="_Compound_Path_2" data-name="&lt;Compound Path&gt;" class="cls-2" d="M532.4,98.85c-13.3,0-24.5,4.5-33.4,13.2a43.73,43.73,0,0,0-12,20.9,44.54,44.54,0,0,0-12.5-20.7c-9.2-8.9-20.1-13.5-32.5-13.5-12.1,0-22.9,4.6-32.1,13.7s-13.9,19.8-13.9,31.7c0,12.4,4.7,23.3,14.1,32.3S430.5,190,443.2,190c12,0,22.7-4.7,31.7-13.8a45.89,45.89,0,0,0,12-20.3,45,45,0,0,0,12.1,20.7c8.9,8.9,19.5,13.5,31.5,13.5,8.6,0,17.5-2.6,26.4-7.7l3.4-1.9v-34.6l-10.6,7.4c-7.4,5.1-13.8,7.7-19,7.7a15.43,15.43,0,0,1-11.8-5,17.19,17.19,0,0,1-4.9-12.6c0-4.2,1.6-7.7,5.1-11a17.58,17.58,0,0,1,12.3-5c5.6,0,11.8,2.2,18.5,6.4l10.4,6.7v-33.9l-3.8-1.9A55.5,55.5,0,0,0,532.4,98.85Zm-72.5,45.4a15.88,15.88,0,0,1-5.2,11.8,16.52,16.52,0,0,1-12.1,5.2,17.61,17.61,0,0,1-12.6-5.1c-3.6-3.4-5.3-7-5.3-11.4a15.78,15.78,0,0,1,5.2-11.9,17.27,17.27,0,0,1,12.7-5.1,16.83,16.83,0,0,1,12.3,5A15.4,15.4,0,0,1,459.9,144.25Z" transform="translate(-10.3 -4.81)"/><polygon id="_Path_4" data-name="&lt;Path&gt;" class="cls-2" points="697.4 96.04 682.2 129.04 660.1 96.04 644.3 96.04 626.2 96.04 605.7 96.04 584.9 118.14 584.9 53.84 555.9 53.84 555.9 183.24 584.9 183.24 584.9 156.64 606.6 183.24 643.3 183.24 605.9 137.14 633.8 107.34 668.4 159.04 641.2 217.84 672.3 217.84 728.3 96.04 697.4 96.04"/><path id="_Path_5" data-name="&lt;Path&gt;" class="cls-2" d="M743.8,152a18.14,18.14,0,0,0-13.3,5.6,18.59,18.59,0,1,0,13.3-5.6Z" transform="translate(-10.3 -4.81)"/><path id="_Path_6" data-name="&lt;Path&gt;" class="cls-3" d="M945.1,100.85l-15.2,33-22-33H874l.3.4a27.09,27.09,0,0,0-11.4-2.4,29,29,0,0,0-16.4,4.8,38.26,38.26,0,0,0-6.4,5.4,22.93,22.93,0,0,0-5.1-5.2c-4.4-3.4-10.2-5.1-17.3-5.1a26.6,26.6,0,0,0-15,4.3v-2.2H773.8V188h28.9v-48.3a15.43,15.43,0,0,1,3.3-10.2c2-2.4,4.1-3.5,6.8-3.5,2.5,0,5.1,0,5.1,7.7V188H847v-46.9c0-4.6,1.1-8.4,3.4-11.3,2.5-3.2,4.7-3.6,6.3-3.6,4.3,0,5.3,1,5.3,5.5V188h29.1v-60.3a5.7,5.7,0,0,0-.1-1.3l25,37.4-27.1,58.8H920l56-121.8Z" transform="translate(-10.3 -4.81)"/></g><path id="_Path_7" data-name="&lt;Path&gt;" class="cls-4" d="M176.9,243.55H84.3a73.9,73.9,0,0,1-73.7-73.7V77.25c0-40.5,32.9-72.4,74.9-72.4h92.6c39.2-1.3,72.4,31.9,72.4,72.4v92.6A73.81,73.81,0,0,1,176.9,243.55Z" transform="translate(-10.3 -4.81)"/><path id="_Path_8" data-name="&lt;Path&gt;" class="cls-5" d="M177.8,4.85H85.2c-42,0-74.9,31.9-74.9,72.4v92.6A73.48,73.48,0,0,0,32,222L229.4,25.55C216,12.15,197,4.15,177.8,4.85Z" transform="translate(-10.3 -4.81)"/><path id="_Path_9" data-name="&lt;Path&gt;" class="cls-6" d="M91.9,166.55h93s4.9,31.3-46.5,31.3-61.2-31.3-61.2-31.3H91.9Z" transform="translate(-10.3 -4.81)"/><path id="_Path_10" data-name="&lt;Path&gt;" class="cls-7" d="M148.4,75s15.5,7.3,15.5,28.8l33.5,8.1h0C197.4,111.85,200.9,75,148.4,75Z" transform="translate(-10.3 -4.81)"/><path id="_Path_11" data-name="&lt;Path&gt;" class="cls-6" d="M48.6,39.75c-.1,0-.2.1-.1.2,1.3,2.7,17.7,35,47.7,35,31,0,100-9.1,101.2,36.5v.4s11.4-72.1-50.2-72.1H48.6Z" transform="translate(-10.3 -4.81)"/><path id="_Path_12" data-name="&lt;Path&gt;" class="cls-7" d="M167.3,140.65s16.2,5.9,16.2,24.4-16.2,31.1-35.1,32.3c0,0,19,15.5,41.8,8.2,18-5.8,25.2-26.7,25.2-26.7C217.5,155.65,201.9,142.35,167.3,140.65Z" transform="translate(-10.3 -4.81)"/><path id="_Path_13" data-name="&lt;Path&gt;" class="cls-8" d="M48.5,102.95s12.6,35.7,49.8,35.7,112.8-6.7,117,40.3c1.2-2.7,2.6-7.1,4.3-15.8,3.8-19.5-2.4-32.7-10.5-42-12.1-13.9-31.2-16.2-50.1-17.7A666.7,666.7,0,0,0,48.5,102.95Z" transform="translate(-10.3 -4.81)"/></g></svg>