<?xml version="1.0" encoding="utf-8"?>
<!-- Generator: Adobe Illustrator 22.0.1, SVG Export Plug-In . SVG Version: 6.00 Build 0)  -->
<svg version="1.1" id="Layer_1" xmlns="http://www.w3.org/2000/svg" xmlns:xlink="http://www.w3.org/1999/xlink" x="0px" y="0px"
	 viewBox="0 0 959.9 866.5" style="enable-background:new 0 0 959.9 866.5;" xml:space="preserve">
<style type="text/css">
	.st0{fill:#DCDFE2;}
	.st1{fill:url(#SVGID_1_);}
	.st2{fill:url(#SVGID_2_);}
	.st3{fill:url(#SVGID_3_);}
	.st4{fill:#101010;}
	.st5{fill:url(#SVGID_4_);}
	.st6{fill:url(#SVGID_5_);}
	.st7{fill:url(#SVGID_6_);}
	.st8{fill:url(#SVGID_7_);}
	.st9{fill:url(#SVGID_8_);}
	.st10{fill:url(#SVGID_9_);}
	.st11{fill:url(#SVGID_10_);}
	.st12{fill:url(#SVGID_11_);}
	.st13{fill:url(#SVGID_12_);}
	.st14{fill:url(#SVGID_13_);}
	.st15{fill:url(#SVGID_14_);}
	.st16{fill:url(#SVGID_15_);}
	.st17{fill:url(#SVGID_16_);}
	.st18{fill:url(#SVGID_17_);}
	.st19{fill:url(#SVGID_18_);}
	.st20{fill:url(#SVGID_19_);}
	.st21{fill:url(#SVGID_20_);}
	.st22{fill:url(#SVGID_21_);}
	.st23{fill:url(#SVGID_22_);}
	.st24{fill:url(#SVGID_23_);}
	.st25{fill:url(#SVGID_24_);}
	.st26{fill:url(#SVGID_25_);}
	.st27{fill:url(#SVGID_26_);}
	.st28{fill:url(#SVGID_27_);}
	.st29{fill:url(#SVGID_28_);}
	.st30{fill:url(#SVGID_29_);}
	.st31{fill:url(#SVGID_30_);}
</style>
<g>
	<path class="st0" d="M85.2,266.5c7.9-5.3,6.5-9.3,9.7-16.2c3.2-6.9,3.7-5.8,3.7-5.8l8.3,16c0,0,5.8,12.3,6,23.8
		c0.2,11.6,3,16.9,3.7,19.7c0.7,2.8,4.2,9,6.2,12.3c2.1,3.2,5.1,6,5.1,9.5s1.4,8.1-0.2,12.5c-1.6,4.4,0.5,3.7,2.5,5.8
		c2.1,2.1,3.5,6.5,3.5,9.3c0,2.8-5.1,6-6.5,7.4c-1.4,1.4-1.4,4.9-1.6,6.5c-0.2,1.6,1.2,3.2,2.5,4.4c1.4,1.2,2.6,3.2,3.7,10.9
		c1.2,7.6-0.9,13.9-1.3,15.7c-0.4,1.9-1.5,5.1,0,6.5c1.5,1.4,8.7-2.5,8.7-2.5s1.6,1.6,1.9,4.2c0.2,2.5-1.9,7.6-3.5,8.8
		c-1.6,1.2-1.6,6.7-2.1,8.6c-0.5,1.8-1.4,2.1-2.6,3.9c-1.2,1.8-3,10.2-2.3,12.7c0.7,2.5,3.7,3,5.3,3c1.6,0,1.4,1.6,3,4.2
		c1.6,2.6,5.6,4.6,7.6,6.5c2.1,1.8,4.4,6.2,5,8.1c0.6,1.9,4.7,4.2,7.9,6.7c3.2,2.5,5.1,3.7,5.1,3.7s0.7,1.6,1.4,4.2
		c0.4,1.5,1.6,3.3,2.9,5.5c0.9,1.5,1.8,3.3,2.4,5.4c-0.7,3.7,0.2,6,1.8,11.3c1.6,5.3,0.5,10.7,1.2,12.7c0.7,2.1,2.3,3.2,3.7,5.6
		c1.4,2.3,3,3.5,5.1,9.7c0.9,5.1,3,9,4.2,11.1c1.2,2.1,3,3.7,3.5,6.2c0.5,2.5,1.8,6.5,1.8,7.9c0,1.4,0,3.7,0.5,4.9
		c0.5,1.2,7.9,6.5,8.8,6.7s2.3,1.8,3.5,5.3s8.8,6,10.7,7.4c1.8,1.4,10.6,6.7,12.7,7.6c2.1,0.9,4.2,1.2,7.2,4.2
		c3,3,13.6,9.2,13.6,9.2s5.1,0,9.3,0c0.9-7.2-0.7-9.5-1.8-11.3c-1.2-1.9-11.1-20.8-11.1-20.8s-6.5-14.8-6.7-25.9
		c-0.2-11.1-0.9-15.5-0.9-16.7c0-1.2-3.5-3.5-6.7-4.2c-3.2-0.7-11.1-11.8-12-13.9c-0.9-2.1-1.6-5.3-1.6-6c0-0.6-4.5-4.2-7.3-6.2
		c-0.6-0.4-1.2-0.8-1.5-1c-2.1-1.2-2.8-6-3.9-9c-1.2-3-6.7-4.4-9.5-5.1s-11.8-6.2-13.9-7.2c-2.1-0.9-5.1-6-6-10.4
		c-0.9-4.4-2.3-6.2-3.9-8.3c-1.6-2.1-6.2-15.3-5.6-25.2c0.7-10,0.2-10.4-1.2-10.9c-1.4-0.5-3.5,3.2-5.6,5.1c-2.1,1.9-6.2,1.4-6.9,0
		c-0.7-1.4-1.8-16.9,0-24.3c1.8-7.4,8.1-12.7,10.4-18.7c2.3-6,5-14.7,5-19.9s0.9-7.1,1.2-11.1c0.3-4,0-13,0-13s5-1.2,7.5-1
		c2.4,0.2,4.2,2.9,6.2,3.8c2.1,0.9,4.5,9.4,7.1,11.3s3.5,0.7,8,0.3s3.1-1,5.7-2.4c2.6-1.4,6.2-1,9-0.5c2.2,0.4,2.8,3.2,4.2,6.5
		c0.3,0.8,0.7,1.7,1.2,2.6c2.4,4.3,4.5,5.7,6.8,10.1c2.3,4.3,3.7,5.2,6.9,8c3.3,2.8,5.6,3.3,8.3,4.7c2.8,1.4,3.5,3.8,6.1,5.9
		c2.6,2.1,7.8,13.5,8.5,15.8c0.3,1,2.7,2.1,5.5,3.1c3.3,1.3,7.1,2.5,8.1,3.7c1.7,2.1,5.4,9.4,6.9,13c1.6,3.7,2.2,18.6,2.2,18.6
		s1.7-1.7,2.8-2.8s3.5-3.1,7.3-5.6c3.8-2.4,4.9-2.6,6.4-4.3c1.6-1.7,0.7-3.5,0.9-7.8s3.5-9,3.5-9s11.1,0,14.9,0
		c3.8,0,4.5-2.1,9.4-6.6c4.9-4.5,14.2-13.2,15.6-14.6c1.4-1.4,8.7-3.1,12.5-5.2c3.8-2.1,15.4-18.2,16.8-23.7
		c1.4-5.6,3.7-25,4.2-31.9c0.5-6.9-8.8-26.9-10.6-29.6c-1.9-2.8-5.1-12.5-7.9-18.1s-4.6-6.5-9.3-8.3c-4.6-1.8-11.6-13.4-16.7-18.5
		c-5.1-5.1-15.7-16.7-17.6-21.3c-1.9-4.6-6.9-9.7-10.7-13.4c-3.7-3.7-3.2-15.3-2.3-21.8c0.9-6.5,9.3-11.6,12.5-15.7
		c3.2-4.2,4.6-7.9,5.1-10.7s6.9-1.4,15.7-5.1c6.5-2.7,6-7.4,7.1-9.9c0,0-11.5-4.5-15-6.4c-3.5-1.9-9.2-6.9-11.1-9.2
		c-1.9-2.3-3.8-12-4.5-13.2c-0.7-1.2-12.2,0.2-14.2-0.3c-2.1-0.5-5.4-2.6-6.8-3.8c-1.4-1.2-4,0-5,0.2c-1,0.2-9,7.8-12.1,9.4
		c-3.1,1.6-13.9,2.4-14.6,2.4s-3.5-0.4-7.1,2.2s-10.4,3.3-11.6,4.2c-1.2,0.9-8.9,0.7-11.1,0.7c-2.3,0-6.6,3.1-7.1,3.8
		c-0.5,0.7-3.3,0-6.4,0c-3.1,0-5.2,2.4-6.2,3.3c-1,0.9-3.8,4.7-9.7,6.6c-4.6,1.5-10.1,1.6-13.5,0.9c-1-0.2-1.8-0.5-2.3-0.8
		c-2.4-1.4-2.3-1.9-5.4-2.8c-3.1-0.9-6.4-6.6-7.5-9.7c-1-3.1-3.5-3.1-5.6-3.1c-2.1,0-6.2-3.1-8.7-4.2s-2.8-1.4-2.8-4.5
		c0-3.1-3.8-7.3-6.2-11.1c-2.4-3.8-5.9-4.9-9.7-8c-3.8-3.1-5.4-9.6-6.4-11.9c-0.9-2.3-10.7-0.5-12.5-2.3c-1.9-1.8,0-14.3,2.8-20.8
		c2.8-6.5,10.2-7.9,16.2-20.8c6-13,1.4-25.5,0-29.2c-1.4-3.7-6.5-6.5-10.6-9.7c-4.2-3.2-5.1-4.6-8.3-6.5c-3.2-1.8-7.9,6-7.9,9.7
		c0,3.7-1.4,10.7-7.9,12.5C75.2,32,66.9,41.3,64.6,44.5c-2.3,3.2-2.3,8.3-2.8,12c-0.5,3.7-4.2,5.1-7.9,8.8
		c-3.7,3.7-4.2,16.7-7.4,25.5c-3.2,8.8-19,19.9-25.5,25.9c-6.5,6-9.3,14.3-10.2,19.4c-0.9,5.1-4.2,13.4-4.2,17.1
		c0,3.7-6.5,10.4-6.5,10.4s2.5,1.8,5.6,5.6c3,3.7,5.8,10.4,6.9,12.3c1.2,1.9,4.9,2.6,6.7,3.5c1.8,0.9,4.4,1.9,6.7,5.1
		c2.3,3.2,4.2,13,4.2,13s3.9-1.6,6.7-0.5c2.8,1.2,6.2,15.7,8.1,22.5c1.8,6.7,3,21.5,2.6,26.8c-0.5,5.3-2.1,12-2.5,16
		c-0.5,3.9,4.2,3.2,6.7,5.3c2.6,2.1,6.2,0.9,13.7,1.9C72.9,276,77.3,271.8,85.2,266.5z"/>
	<path class="st0" d="M375.2,232c6.5-0.5,7.4-6.5,9.3-11.1s15.3-5.1,19.9-8.8s3.7-4.2,5.6-9.7s0-8.3,0-11.6c0-3.2-10.6-2.8-19-2.8
		c-8.3,0-25.5,4.2-30.1,5.1c-4.6,0.9-1.9,15.3-1.9,15.3c-5.1,4.2-5.1,14.3-3.2,18.5C357.6,231.1,368.7,232.5,375.2,232z"/>
	<path class="st0" d="M621.4,139c0,0,4.2,4.2,8.7,4.2s5.2-16.7,8-24.5s5.1-9.3,6.5-15.3c1.4-6,4.2-5.1,6.4-13c2.2-7.9,1-7.9,0-12
		s-0.8-2.8-3.6-5.1s-14.8,3.7-18.1,6c-3.2,2.3-10.2,6.5-10.2,10.6S608,108.4,608,115.4s3.2,11.1,5.1,14.8
		C614.9,133.9,621.4,139,621.4,139z"/>
	<path class="st0" d="M608.7,293.5c1.7,3.4,3.1,7.9,4.6,9.3c1.4,1.4,8.1-1,11-1s3.1,5,2.9,8.9c-0.2,3.8-7.4,2.4-7.2,3.6
		c0.2,1.2,6.9,2.6,10.3,3.1c3.4,0.4,9.6-0.4,11.5-0.2c1.9,0.2,4.8,0.7,6-1.9c0.2-5.5-8.6-21.6-8.6-26.2s0.4-5.4,1.4-8.3
		s12.9-12.2,15.4-15.8c2.5-3.6,4.7-12.9,4.7-16.5s-1.8-9-2.9-14.7c-1.1-5.7,0.4-8.3,0-13.3c-0.4-5-7.9-3.6-9.3-3.6
		c-1.4,0-10.1,1.1-12.2-1.8c-2.2-2.9-8.3-2.9-12.6-2.5c-4.3,0.4-6.8,12.6-7.5,18c-0.7,5.4,0,14.4,0,17.6c0,3.2-2.9,11.9-5.4,18.7
		c-2.5,6.8-9,3.6-9,3.6s2.9,9.7,3.4,13.1S607.1,290.1,608.7,293.5z"/>
	<path class="st0" d="M625,351c2.4,3.4,2.4,5.7,4.6,6.5c2.2,0.7,2.4,0.2,6-2.9c3.6-3.1,1.2-8.9,1-12c-0.2-3.1-6.5-6.7-7.7-7.2
		c-1.2-0.5-6.2-1.7-7.9-2.9c-1.7-1.2-5.3-5.3-5.3-5.3s-1.2,7.2-1.2,9.3s1.2,3.8,4.1,5.9C621.4,344.6,622.6,347.6,625,351z"/>
	<path class="st0" d="M663.8,334.5c1.8,0.7,4.1,4.1,5.2,3.6c1.1-0.5-3.1-7.2-3.1-7.2h-7.5C658.4,330.9,662,333.8,663.8,334.5z"/>
	<path class="st0" d="M671.7,320.7c0.9,0.7,1.6,1.6,3.8,1.8c2.2,0.2,1.6,2.2,4,4.6c2.3,2.5,1.6,2.2,2,4.5c0.4,2.3,3,2.3,4.8,2.9
		c1.8,0.6,3.2,3.4,6.8,3.6c3.6,0.2,2-7.8,1.4-10.1c-0.5-2.3-2.5-2-4.5-2.7s-3.4-1.8-6.6-3.6c-3.2-1.8-6.5-3.1-8.1-4.2
		c-1.6-1.2-7.7-1.5-7.7-1.5S670.8,319.9,671.7,320.7z"/>
	<path class="st0" d="M710.8,357.7c1.1,1.7,2.7,2.3,4,3s3.2,5,7.9,8.3s5.9,3.6,7.4,4.3c1.4,0.7,4.9,5.4,4.9,5.4s0.7-1.1,0-3.6
		s-2.3-4.7-4-8.4c-1.6-3.8-1.3-2.7-2.3-7.7c-1.1-5-2.2-7.5-2.2-7.5h-19.8C705.6,355.5,709.8,356.1,710.8,357.7z"/>
	<path class="st0" d="M688,357.7c-0.9-0.7-2.5-2-2.5-2c-0.9,3.2,1.3,4.1,3.2,7.5c2,3.4,3.2,2.7,5.2,3.4s3.2-0.4,3.1-1.6
		c-0.2-1.3-4.3-3.4-5.6-4C690.2,360.5,688.9,358.4,688,357.7z"/>
	<path class="st0" d="M665.2,369.7c-3.2-0.7-6.5-1.8-10.1-2V388c0,0-0.7,3.1-1.4,4.3s-2.9,5-1.8,5.9c1.1,0.9,7,2.3,8.8,0.9
		c1.8-1.4,5.6-2.7,6.8-6.6c1.3-4,1.1-4.5,1.6-6.8c0.5-2.3,0.4-5,0.9-7c0.5-2,1.4-4.7,1.4-4.7s-1.3-0.7-2.3-1.6
		S668.5,370.4,665.2,369.7z"/>
	<path class="st0" d="M674.6,408.3c-4.9,2.2-9.2,5.6-9.5,7.4c-0.4,1.8,1.1,4.3,3.2,5.7s3.9,3.1,4.5,4s2.7,1.8,5.1,0
		c2.3-1.8,1.3-4.7,1.6-6.3c0.4-1.6,2.2-4.3,2.3-6.1c0.2-1.8-1.3-10.1-1.3-10.1S679.4,406.2,674.6,408.3z"/>
	<path class="st0" d="M699,384.9c1.1,0.6,1.7,3.6,1.6,7.3c-0.1,3.7,0.8,7.6,0.8,7.6s2.2-2.5,2.6-5.6c0.5-3.1-0.4-6.1-1.4-8.7
		c-1.1-2.6-5.6-2.5-5.6-2.5S698,384.3,699,384.9z"/>
	<path class="st0" d="M546.2,450.8c3.1-3.1,4.3-2.4,6.2-3.8s5-4.1,5.5-5.7c0.5-1.7,1.9-1.9,4.8-6c2.9-4.1,4.6-3.6,5.7-5.5
		c1.2-1.9,5.3-2.4,7.4-5.3c2.2-2.9,3.6-5,5.3-7.4c1.7-2.4,4.3-6.5,6-8.4s8.6-3.4,14.6-4.1s4.8-1.4,5.7-3.1c1-1.7-3.6-4.1-3.8-10.1
		c-0.2-6.1,2.6-10.2,2.6-10.2c0.2-6.5-6-5-6.2-3.8c-0.2,1.2-2.2,1.7-3.1,1.4c-1-0.3-3.1,4.1-3.8,8.2c-0.7,4.1-8.1,14.6-8.6,16
		c-0.5,1.4-4.1,1.9-5.5,2.9c-1.4,1-7.4,9.8-7.9,11.7s-4.3,4.1-6,4.8c-1.7,0.7-6,6-8.1,8.1c-2.2,2.2-2.4,1.7-4.8,4.3
		c-2.4,2.6-6.5,5.7-8.1,7.2c-1.7,1.4-1,4.8-1.9,7.2c-1,2.4-3.4,3.6-2.9,6.2C539.8,458,543.1,454,546.2,450.8z"/>
	<path class="st0" d="M656.8,447.8c0,0-1.7,8.6-1.7,12.5s-3.4,9.1-3.4,9.1c1.2-2.2,6-2.2,7.1-3.8c1.1-1.7,6.6-1,13.1-1.4
		c6.5-0.5,3.8,2.6,7.1,1c3.3-1.7,1-6.7,1-11.6s1.4-4.7,2.9-8.3C669.7,438.9,656.8,447.8,656.8,447.8z"/>
	<path class="st0" d="M697.4,448.9c-0.4,1.1-2.7,3.9-2.7,3.9s0,8.7,0,10.3c0,1.6,1.6,2.2,2.5,5c0.9,2.9,2.9,4.5,2.9,4.5
		s0.2,5,1.3,8.4c1.1,3.4,4.5,4.1,6.8,7.4c2.3,3.2,6.5,4.3,7.4,4.9s4.7,0.7,4.7,0.7s1.8,2.9,2.7,4.3c0.9,1.4,5.2,0,5.2,0l1.6-2.2
		c0,0-0.2-12.9-0.2-14c0-1.1,0.4-1.6,0.7-2.5c0.4-0.9,1.4-3.1,1.4-4c0-0.9,2.7-2.9,3.6-3.6c0.9-0.7,0-4.3,0-4.3s6.3,0.4,7.9,2.2
		c1.6,1.8,1.6,3.6,2.3,5.7c0.7,2.2,2.2,3.4,3.2,4c1.1,0.5,1.8-4.9,2.5-7.9c0.7-3.1,1.4-5,1.8-5.7s1.1-4.9,1.1-9.6s-1.3-3.2-2.3-5.7
		c-1.1-2.5-2.5-3.4-4.1-5.6c-1.6-2.2-0.9-8.6-0.9-10.4c0-1.8,0.5-3.4,1.6-6.8c1.1-3.4-0.9-5.2-1.6-6.2c-0.7-1-3.6-3.4-5.6-3.9
		c-2-0.5-6.3-2.9-7.2-4c-0.9-1.1-5,0-5,0s0.4,6.3,0,10.1c-0.4,3.8-5.2,6.1-5.2,6.1h-7.4c0,0-4.1,6.1-5.7,7.7c-1.6,1.6-2.7,4-4.5,5.2
		c-1.8,1.3-5.4,2.2-6.8,2.9C697.9,446.5,697.7,447.8,697.4,448.9z"/>
	<path class="st0" d="M647.6,203.4c-1.1,1.9,3.2,3.8,5.9,4.9c2.6,1.1,2.5-1.8,2.2-3.5c-0.4-1.7-2.9-2.4-4.5-3.1
		C649.4,201,647.6,203.4,647.6,203.4z"/>
	<path class="st0" d="M638.6,195.8c-2.2-0.7-5.3,2.8-5.3,2.8s2.3,2.6,5.6,3.6c3.4,1,3-3.6,3-3.6S640.7,196.5,638.6,195.8z"/>
	<path class="st0" d="M557.1,640.2c1.8-5.8,0.7-10.4,2.5-18.3c1.8-7.9,4.2-9.3,6.2-11.1c2.1-1.8,4.2-2.5,10.9-2.3
		c6.7,0.2,7.6-0.5,8.3-2.1c0.7-1.6,0-1.6-1.6-4.4c-1.6-2.8-4.4-4.4-7.4-8.8c-3-4.4-10.6-5.1-11.5-6.5c-0.9-1.4,0.6-3.2,1.6-4.6
		c0.9-1.4,1.2-5.6,0.9-9c-0.2-3.5-3-5.1-6-6.9c-3-1.8-10-6-10.9-7.6c-0.9-1.6,0,0,1.4-3c1.4-3,0.2-6.5-0.5-8.3
		c-0.7-1.9-1.6-1.4-0.5-3.7c1.2-2.3,4.9-5.8,5.8-8.3c0.9-2.5,0,0,2.5-0.7c2.5-0.7,4.9-6,10-8.3c5.1-2.3,6.5-3.2,9.5-4.2
		c3-0.9,8.8-2.5,10.9-3.5c2.1-0.9,1.4-4.4,1.4-6.9c0-2.5,0-2.3-2.1-3.9c-2.1-1.6-12.7-9.5-15.1-10.4c-2.3-0.9-3.2,0-6.7,0
		s-8.1-1.6-10.2-2.3c-2.1-0.7-5.6-5.3-7.2-7.6c-1.6-2.3-1.6-7.9-2.8-10.9c-1.2-3-2.3-4.2-3.9-5.3c-1.6-1.2-4.4-1.7-4.4-1.7
		s-3,0.6-4.9,0c-1.9-0.6-1.6,5.2-4.2,7.5c-2.6,2.3-2.1,6.2-3.9,7.6c-1.8,1.4-2.8,2.1-4.4,5.3c-1.6,3.2-1.6,4.2-5.3,6.5
		c-3.7,2.3-4.4,1.8-6.5,5.6c-2.1,3.7-5.1,8.6-6.5,8.8c-1.4,0.2-2.8,3-2.8,5.1s-0.5,5.6-2.5,9c-2.1,3.5-3.2,5.3-5.1,6.7
		c-1.8,1.4-2.5,1.6-3.9,2.3c-1.4,0.7-4.6,0-6-0.2c-1.4-0.2-2.5-0.5-4.2-4.2c-1.6-3.7-5.1-1.2-6.5-0.7c-1.4,0.5-1.9,3.2-3.7,4.9
		c-1.8,1.6-3,3.5-4.6,5.8c-1.6,2.3-1.9,4.6-4.9,6c-3,1.4-5.6,5.6-6.5,7.9c-0.9,2.3-0.2,2.3-3.5,4.9c-3.2,2.5-5.3,3.2-8.1,3.5
		c-2.8,0.2-7.2,2.5-10,3c-2.8,0.5-5.8,2.5-7.6,3c-1.8,0.5-6.9,4.6-6.9,7.6c0,3-0.7,20.6-0.7,20.6s-0.9,0.9-2.8,1.6
		c-1.8,0.7-3.9-1.8-6-3.7c-2.1-1.9-3.7,0.1-5.8,0c-2.1,0-3.2-1.8-4.9-3.4c-1.6-1.6-3.2-2.3-6-4.6c-2.8-2.3-11.3-1.2-13.2-0.7
		c-1.9,0.5-3.2,5.8-4.2,8.7c-0.9,3-2.1,2.6-3.7,3.7c-1.6,1.2-2.1,4.6-2.8,6.5c-0.7,1.8-1.4,4.9-1.8,6c-0.5,1.2-3.2,3.7-3.2,4.9
		c0,1.2-0.5,7.9,0,10.7c0.5,2.8,2.8,4.9,3.9,7.9c1.2,3,0.9,10.2,2.3,12.5c1.4,2.3,6.5,5.6,9.3,6.5c2.8,0.9,5.8,4.9,7.2,6
		c1.4,1.2,0,8.3,0,9.9c0,1.6,0.7,7.2,1.8,8.3c1.2,1.2,3.9,4.9,5.3,6.5c1.3,1.6,0.7,4.9,0.1,8.3s4.4,7.4,6.5,8.3
		c2.1,0.9,6.9,0.7,11.1,0.7c4.2,0,10.4-0.5,13.2-0.9c2.8-0.5,2.3-1.4,5.1-2.5c2.8-1.2,1.8,0,2.5,1.8c0.7,1.9,1.4,2.6,2.8,3.5
		c1.4,0.9,3.9,1.2,6.7,1.2c2.8,0,6-1.2,8.8-1.9c2.8-0.7,3.5-2.3,6.7-2.3c3.2,0,5.8,0.5,6.9,0.7c1.2,0.2,3.5,5.1,3.9,6
		c0.5,0.9,10.4-0.7,12.5-0.7c2.1,0,1.4,0.9,3.9,3.9c2.5,3,5.1,7.4,6.5,8.3c1.4,0.9,7.4,0.2,12,0c4.6-0.2,8.8-1.6,10-2.5
		c1.2-0.9,3.7-2.1,6.9-2.3c3.2-0.2,5.3-0.7,6.9-3.2c1.6-2.5,2.3-9,3.2-12.7c0.9-3.7,0.5-7.4,1.4-11.6c0.9-4.2,0.9-14.8,1.2-17.1
		c0.2-2.3,5.6-5.1,8.8-9c3.2-3.9,12.3-6.5,14.1-7.9C554.3,649.7,555.2,646,557.1,640.2z"/>
	<path class="st0" d="M696.7,630.8c3.8-1.1,7.8-3,12-6.2c4.2-3.3,10.4-11.1,14.1-15.3c3.6-4.2,5.9-7.5,6.2-9c0.3-1.6-1-3-1.9-4
		c-0.9-1-13-0.3-15.1,0.2c-2.1,0.5-3.3,4.3-5.7,6.1c-2.4,1.7-9.5,3.3-10.9,4.3c-1.4,1.1-13.5,1.4-17.2,0.7c-3.7-0.7-4.5-0.2-9-1.4
		c-4.5-1.2-4.7-0.2-7.5-1.7c-2.8-1.6-9.7-3.7-10.7-4.2c-1-0.5-2.4-1.4-5.2-1.6c-2.8-0.2-7.6-2.4-9.7-3.5c-2.1-1-6.4-0.3-8.3,2.2
		c-1.9,2.6-7.8,7.9-9.4,8.7c-1.6,0.9-11.3,1.7-13.4,1.7s-5.2,4.9-8.3,7.6c-3.1,2.8-2.9,9.5-2.6,11.3c0.3,1.7,4.7,1.6,7.3,2.2
		s5.4,3.8,5.4,3.8c2.8,1,8-0.5,10.1-2.3c2.1-1.7,4.2-3.3,6.9-4.3c2.8-1,4-1.6,7.6-2.2c3.7-0.7,3.8,0,8.5,1.4c4.7,1.4,9,2.9,9,2.9
		s21.3-0.3,22.7,0.2c1.4,0.5,5.4,2.1,8.3,3.5C682.8,633.4,692.9,631.8,696.7,630.8z"/>
	<path class="st0" d="M653.5,670.4c2.1-0.5,2.1-0.9,3.8-1.6c1.7-0.7,4.5-3,6.1-4.5s4.2-2.6,5.4-2.9c1.2-0.4,4.9,0.5,7.8,0.5
		c3,0,3.1,0.5,4.9,0c1.7-0.5,1.6-5.7,1.9-6.4c0.4-0.7,0.4-4.5-1.2-6.6c-1.6-2.1-5.9-3.1-7.6-4c-1.7-0.9-5.7-2.2-9-2.9
		c-3.3-0.7-11.3-0.2-14.6,0.2c-3.3,0.3-4.2,0-6.4,1.2c-2.2,1.2-3.5,1.1-5.9,2.3c-2.4,1.2-5.4,3.1-6.9,5.2c-1.6,2.1-4.9,1.7-6.2,1.6
		c-1.4-0.2-4.2-4.7-5.6-8.2c-1.4-3.5-3.8-7.6-5.2-9.4c-1.4-1.7-9.7,0-9.7,0s-2.2,1.3-3.2,1.3c-0.9,0-1.8,1.4-2.4,2.8
		c-0.6,1.4-1.5,1.8-3,3.6c-1.5,1.7-7.5,10.3-7.5,10.3s-0.5,4.7-0.6,6.1c-0.1,1.4-0.2,6.6,0.1,8.3s-5.3,7.6-6.8,10.4
		c-1.5,2.8-3,5.2-3.6,7.1c-0.6,1.8,0.6,7.6,0.6,9.5c0,1.9,1.6,2.7,3.1,5.3c1.5,2.6,3.7,5.4,4.7,7.1c1,1.6,5.1,5.9,6,7.4
		c0.9,1.5,0,5.6-0.1,8.2c-0.1,2.7-0.8,5.8-1,8.1c-0.2,2.3-0.6,7.5-0.5,10.8c0.1,3.2,0.5,6,0.9,8.1c0.5,2.1,2.1,3.9,2.8,4.7
		c0.7,0.8,4.2,0.5,5.6,0c1.4-0.5,2.4-3.5,2.7-4.9c0.2-1.4,2.2-5,2.9-6.9c0.7-2,4.2-7.3,5.3-9.3c1.2-2,1.5-3.5,2.2-6.4
		c0.7-2.9,0.9-10.2,2.3-13c1.4-2.8,1.7-11.6,1.7-14.8c0-3.2,1.7-3.8,2.1-5c0.3-1.2,1.6-1.5,2-1.7c0.3-0.2,0.9,0,1.4,1.6
		c0.5,1.6,1.4,5.9,1,9.7c-0.3,3.8,1.3,7.2,1.9,9c0.6,1.9,6.2,5.6,7.2,6.2c0.9,0.6,4.7,1.1,5.1,3.5c0.3,2.3,2.5,5.7,3.9,6.2
		c1.4,0.6,4.4,0.8,6.5,1.2c2.1,0.3,3.4,0.1,5.2,0.7c1.8,0.6,3.8,3.8,4.9,5.7c1,1.8,0,3-0.5,6.1c-0.5,3.1,3.3,3.6,5.7,3.2
		c2.3-0.3,3.4-3,4.5-6.6c1.2-3.6,2.2-7.2,2.9-8.7c0.7-1.5,2.2-9.5,2.9-12c0.7-2.5-0.5-9.8-0.6-12.7c-0.1-2.9-0.5-6.6-0.5-8.1
		c0-1.5-2.8-2.8-4.4-5c-1.6-2.2-7.3-4.9-7.9-5.2c-0.6-0.3-4.2-1.9-4.7-4.7c-0.6-2.9-3.9-6.8-4.7-7.8c-0.9-1-2.8-0.2-2.8-2.1
		C648.1,670.2,651.4,670.9,653.5,670.4z"/>
	<path class="st0" d="M712.5,673.4c1.7,0.6,3.8,2.5,6.2,3.7c2.4,1.2,4.9,1.6,6.2,1.7c1.4,0.2,3.5,2.4,5,4.5c1.6,2.1,4.7,3.3,5.7,3.3
		c1,0,6.2-0.6,7.8,0c1.6,0.5,1.9-4.2,2.1-6.1c0.2-1.9,2.4-3.1,3.5-5s1.2-4.7,1.2-6.6s-1.9-2.8-3-3.8s0-2.8,0-2.8s-8-0.1-11.6,0
		s-6.6-0.4-8.5-0.1c-1.9,0.3-3.6-0.3-6.2-1c-2.6-0.7-13.7-1-13.7-1s-1.9,5-1.2,7.5C706.8,670,710.8,672.8,712.5,673.4z"/>
	<path class="st0" d="M752.8,697.6c-3-0.5-11.6-2.1-11.6-2.1s0.5,3.5,3.1,7.3s6.8,3,9.5,4.4c2.8,1.4,5.2,2.3,7.3,2.8
		c2.1,0.5,8.3-1.2,8.3-1.2s-1.7-6.6-3.1-8.5S755.7,698.1,752.8,697.6z"/>
	<path class="st0" d="M835.6,697.3c-2.4-2.1-5.7-2.6-8.3-3.6c-2.6-1-14.1-0.5-15.3-0.7c-1.2-0.2-2.1-0.9-2.1-0.9h-24.1
		c0,0-1.6,3.1-3,5.4c-1.4,2.3-3.1,7.5-3.1,7.5s0,0,3,2.4s10.1,3.1,15.6,4.3c5.6,1.2,6.1-2.3,8.7-3.6c2.6-1.4,7.8-1.9,9.5-2.6
		c1.7-0.7,5.4,1.6,7.1,2.4c1.7,0.9,7.8,1.9,10.8,2.2c3,0.3,3.8,2.5,4.5,2.9c0.7,0.3,7.5-0.2,8.2-0.9c0.7-0.7-2.3-5-3.5-7.1
		C842.4,702.8,838,699.4,835.6,697.3z"/>
	<path class="st0" d="M792,651.1c1.4-0.5,1.4-6,1.2-9.3c-0.2-3.2-2.3-8.8-4.2-11.8c-1.9-3,0-5.6,0-5.6c0.8-2.8,10.4-3,10.4-5.6
		s-11.6-6.2-12.3-6.7c-0.7-0.5-1.6-2.1-2.1-5.1c-0.5-3,0-6.2,0.7-12.4c0.7-6.1,1.9-5.2,3.7-9.1c1.9-3.9,0.2-5.3-0.5-7.6
		c-0.7-2.3-3.2,1.6-7.4,4.4c-4.2,2.8-7.9,8.1-9.3,10.2c-1.4,2.1-2.3,9.3-2.3,13s3,5.6,3.2,8.5c0.2,2.9-0.2,3.8-0.9,8
		s-5.6,8.1-6.9,10c-1.4,1.9-2.3,6.2-2.3,9.7s3.7,3.2,6.4,4.9c2.7,1.6,6.3,3.2,8.6,4.6C780.4,652.5,790.6,651.6,792,651.1z"/>
	<path class="st0" d="M943,642.1c-4.9,4-11.6,9.8-12.9,11.8c-2.1,3.2-3.5,6.5-4.6,10.9c-1.2,4.4-2.1,4.2-3.2,5.8
		c-1.2,1.6-6.7,3-10.7,1.4c-3.9-1.6-5.6-0.9-6.9-2.1c-1.4-1.2-4.4-1.2-5.6-1.8c-1.2-0.7,0-2.8,0-5.8c0-3-2.8-4.2-4.9-6.7
		c-2.1-2.5-5.9-5.1-7.1-8.3c-1.2-3.2-6.5-7.7-10.6-10.2c-4.2-2.6-6.7-1.4-11.6,0c-4.9,1.4-9.9,3.2-13.6,4.4c-3.7,1.2-11.1,6-11,7.2
		c0.1,1.2,1.7,5.3,3.4,7.9c1.6,2.5,8.3,4.2,9.7,5.8c1.4,1.6,7.4,3,9.7,3.7s5.1,3,7.6,5.3c2.5,2.3,4.9,1.4,8.6,2.6
		c3.7,1.2,7.6,1.2,9.2,1.4c0.5,0.1,0.7,0.4,0.8,0.9c0.3,1.6-0.8,3.1-2.4,3.5c-3.4,0.8-9.9,2.2-12.3,1.8c-3.2-0.5-9.7,4.2-8.8,6
		s11.1,11.6,12,13.4c0.9,1.8,3.2,13,6,15.3c2.8,2.3,10.7-3.2,13-7.8c0.9-1.8,1.9-3.5,2.7-4.8c1-1.7,3.3-2,4.7-0.8l6.4,5.5
		c0.1,0.1,0.1,0.1,0.2,0.2l0.2,0.1c4.4,3.3,9.3,5.8,14.5,7.6c3.3,1.2,7,2.6,9.7,4.1c3.1,1.7,6.4,2.8,8.9,3.6
		c2,0.6,11.1-17.3,11.1-19.4v-31.1C955.2,670.8,945,640.4,943,642.1z"/>
	<path class="st0" d="M293.5,749.9c0.9-3.2,1.4-13.7,1.4-19c0-5.3,0.2-8.6,0.9-13c0.7-4.4,4.2-13.4,3-19c-1.2-5.6-2.3-4.4-4.9-6.7
		c-2.6-2.3-6.7-7.6-9.7-9.5c-3-1.8-6.2,0-9.7,1.2c-3.5,1.2-3.5,5.1-4.4,6.2c-0.9,1.2-3.7,2.1-5.1,2.1c-1.4,0-0.7-4.6-0.7-10
		c0-5.3,0.5-4.6,1.4-8.6c0.9-3.9,0-9.7,0-12.7c0-3-3.2-6-4.9-10.7c-1.6-4.6-5.7-9.2-7.1-11.3c-1.4-2.1-4.9-1.6-6.3-1.7
		c-1.5-0.2-2.2-2.8-1.3-5c0.9-2.2,2.4-4.9,0-8c-2.4-3.1-6.6-2.4-8.7-3.8c-2.1-1.4-7.6,0.3-9.4,0c-1.7-0.3-3.8-2.1-3.5-5.2
		c0.3-3.1,0.3-5.6,0-8c-0.3-2.4-2.8-2.1-4.9-4.5c-2.1-2.4-4.5-2.8-8.9-5.4c-4.4-2.7-4.6-3.6-7.1-5.3s-9-4.5-10.8-6.6
		c-1.7-2.1-9.4-2.4-10.4-4.2s-6.2-4.9-8.7-8.7c-2.4-3.8-6.6-3.5-9-5.9s-6.6-4.5-9.4-5.9c-2.8-1.4-10.1-9-12.5-11.8s-3.5-1-6.6-5.2
		c-3.1-4.2-8.7-16-10.4-20.5s-10.1-6.6-12.8-9.4s-17.4-1.7-22.9-2.1c-5.6-0.3-8.3-0.7-14.2-4.5c-5.9-3.8-15.3-3.5-15.3-3.5
		s1.7,12.7,2.9,16c1.2,3.2,6.5,6.9,9.5,9.3c3,2.3,7.4,8.3,10.4,11.8c3,3.5,6,4.9,8.6,8.3c2.6,3.5,10.2,5.1,12.5,7.9
		c2.3,2.8,2.1,7.2,4.4,14.1c2.3,6.9,10.2,12.3,12.5,13.9c2.3,1.6,6.7,4.6,10.9,7.6c4.2,3,6.5,9.7,9.3,13.4
		c2.8,3.7,3.9,10.4,5.1,14.1c1.2,3.7,5.1,5.3,6.9,6.7c1.8,1.4,7.6,5.1,10.2,6.9c2.5,1.8,3.2,6,5.8,9.9c2.5,3.9,6.2,12,7.2,14.1
		c0.9,2.1,3.2,6.9,4.4,11.6c1.2,4.6,8.1,12.7,9.7,16c1.6,3.2,3.9,10.2,5.8,13.2c1.8,3,12.5,9.7,14.3,11.3c1.8,1.6,5.8,7.4,7.6,10.2
		c1.8,2.8,8.1,5.8,10.2,6.9c2.1,1.2,7.4,5.1,9.3,6.7c1.8,1.6,10.2,8.8,14.3,10.6c4.2,1.9,7.4,7.2,9.7,9.5c2.3,2.3,8.8,2.3,12.5,3.7
		c3.7,1.4,13,0.5,15.3,0C292.3,757.3,292.5,753.2,293.5,749.9z"/>
	<path class="st0" d="M305.8,676.3c-1.8-2.1-3.2-4.4-4.6-7.4c-1.4-3-2.2-4.6-3.5-6.7c-1.3-2.1-6.9-0.3-8.1,0
		c-1.2,0.3-1.4,2.2-1.6,4.2c-0.2,2-3.1,5.8-3.1,5.8c0.1,1,3.7,1.8,5.6,2c1.8,0.2,2.2,1.9,3.3,4.1c1.2,2.2,3.6,2.9,5.2,3.6
		c1.6,0.7,3.1,2,4.7,3.7c1.6,1.7,5.2,1.6,6.8,1.6c1.6,0,1.2-2.7,0.9-4.4C311.3,681.1,307.7,678.4,305.8,676.3z"/>
	<path class="st0" d="M479.4,802.5c-3.5,0-15.1-1.7-17.9-2.9c-2.8-1.2-4.7-1.9-7.3-4.7c-2.6-2.8-3.3-5.4-6.1-10.4
		c-2.8-5-5.6-3.8-8.3-5.6c-2.8-1.7-17.7-1.7-19.6-2.6c-1.9-0.9-5.9-3.8-7.8-4.9c-1.9-1-5.4-0.3-7.6,0c-2.2,0.4-8.7,4.9-8.7,4.9
		s-26.9,1.6-27.8,0c-0.9-1.6-3.5-3.1-5.2-4.9c-1.7-1.7-9.9-2.1-14.1-3.3c-4.2-1.2-5.2-0.9-7.8-2.8c-2.6-1.9-6.4-1-9-1.2
		c-2.6-0.2-12-2.6-15.3-4.7c-3.3-2.1-8.7,0-9.7,0c-1,0-4.5,3.5-6.1,3.5c-1.6,0-2.4,1.2-3.5,3.3c-1.1,2.1-3.5,3.5-3.5,3.5
		c-4.9,1.4-3.7,8.8-3.1,10.4c0.5,1.6,5.7,2.8,6.8,4s4.2,1.2,8.3,3c4.2,1.7,7.6,2.2,11.5,3.1c3.8,0.9,10.4,2.8,13.2,3.3
		c2.8,0.5,10.8,1.2,13.5,1.4s7.1,1.2,9,1.9c1.9,0.7,7.8,0.7,10.6,0.7s14.8,0.2,18.2,0.2s7.8,2.1,10.8,2.9c3,0.9,12.5,3.5,17.5,5.4
		c5,1.9,9,4.2,14.1,6.9s11.6,3.6,14.8,3.6c3.1,0,9.7-0.7,11.8-1.6c2.1-0.9,8.2-0.7,11.4-0.7c3.3,0,7.1,1.6,10.2,2.9
		c3.1,1.4,7.8,1.6,11.6,2.4c3.8,0.9,7.1-6.4,7.3-9c0.2-2.6-1.2-4.3-2.8-6.4C487.4,802.1,482.9,802.5,479.4,802.5z"/>
	<path class="st0" d="M521.9,809.8c-2.5,1.2-5.6,1.9-7.6,2.8s-0.7,1.4-0.5,3.6c0.2,2.2,3.7,3.6,3.7,3.6c2.5,0.8,4.4-0.7,7.4-1.1
		c3-0.3,4.6-2.1,5.1-3.8c0.5-1.7-0.5-4-1.5-5.1S524.4,808.6,521.9,809.8z"/>
	<path class="st0" d="M590.5,811.3c-0.8-1.2-0.6-2.9-3.4-3.6s-5.3,0.2-6.7,1.9s-2.8,3.9-4.6,4.2c-1.9,0.2-5.7,0-7.3-0.3
		c-1.6-0.3-3.2-0.5-5.1-0.8c-1.9-0.3-10.8-0.5-12.8-0.2c-2.1,0.2-7.4,0.8-7.4,0.8s-1.4,1.7-1.4,4.4s-0.7,4.5,0.7,7.3
		c1.4,2.8,0.8,4.9,3.5,5.1s6.7,1.2,8.2,0c1.5-1.2,4.3-2.9,6.5-3.2c2.2-0.3,10-2.5,11.3-2.5c1.4,0,6-0.3,8.6-1.7
		c2.5-1.4,6-3.5,6.9-4.4S591.3,812.4,590.5,811.3z"/>
	<path class="st0" d="M612.7,840.1h-26.2c0.3,1.4,5,7.4,7.4,9.3s5.8,3.7,10.4,5.4c4.6,1.7,7.5,0.9,13,0s6-3.9,6-5.6s-3-4.3-4.6-6
		S612.7,840.1,612.7,840.1z"/>
	<path class="st0" d="M690.8,817.8c1,0.5,10.2-0.2,14.1-1.2s4.9-3.3,5.6-4.3s1-4,1-4h-14.8c0,0-12.7,1.6-14.1,1.4s-9.7,1.2-11.5,1.2
		c-1.7,0-7.1-0.2-8.9,0c-1.7,0.2-7.3,1.4-8.7,3.5c-1.4,2.1-7.5,1.7-10.1,3c-2.6,1.2-5.6,0.2-8.3-0.9s-10.9,0.5-13.2-0.3
		s-4.9-2.1-8.9-3s-6.9,4.2-6.9,4.2s0.3,3.6,1.4,5c1,1.4,7.5,3.3,10.9,4.2s6.8,2.4,11.3,3.3s6.8,0,10.4-1.9s9.9-3,13.2-4.5
		c3.3-1.6,5.9-1.4,8.7-2.8c2.8-1.4,6.6-2.6,7.3-2.6C670.2,818,689.8,817.2,690.8,817.8z"/>
	<path class="st0" d="M762.6,812c-1.9-1.4-10,2.8-11.6,3.2c-1.6,0.5-7.4,3.2-11.1,3.9c-3.7,0.7-6.7,0.9-10.9,1.2
		c-4.2,0.2-9,1.6-10.6,2.1c-1.6,0.5-12.5,6-14.8,7.7s-9.3,1.6-11.8,3c-2.5,1.4-6.5,3.9-6.9,5.6s-3.9,10.6-6.5,12
		c-2.5,1.4-4.4,2.8-7.2,5.2c-2.8,2.4-6.5,11.2-6.5,11.2c7.2,0.9,18.7-7.2,21.5-8.8c2.8-1.6,5.3-2.1,9.7-3.5c4.4-1.4,5.8-4.4,7.9-6.8
		c2.1-2.4,11.1-6.8,11.9-7.9c0.8-1,4.3-2.9,6.6-5.2c2.3-2.3,8.1-2.8,11.8-4.8c3.7-2,6-2.4,7.9-3.1s12.7-4.4,16.9-4.6
		c4.2-0.2,6.7-5.3,7.6-6.5C767.4,814.7,764.4,813.3,762.6,812z"/>
</g>
<g>
	
		<radialGradient id="SVGID_1_" cx="283.5753" cy="202.9262" r="31.7251" gradientTransform="matrix(0.8826 0 0 0.8826 34.7511 24.9781)" gradientUnits="userSpaceOnUse">
		<stop  offset="0" style="stop-color:#FFFFFF;stop-opacity:0"/>
		<stop  offset="1" style="stop-color:#101010;stop-opacity:0.1"/>
	</radialGradient>
	<circle class="st1" cx="285" cy="204.1" r="28"/>
	
		<radialGradient id="SVGID_2_" cx="283.5753" cy="202.9262" r="23.2273" gradientTransform="matrix(0.8826 0 0 0.8826 34.7511 24.9781)" gradientUnits="userSpaceOnUse">
		<stop  offset="0" style="stop-color:#FFFFFF;stop-opacity:0"/>
		<stop  offset="1" style="stop-color:#101010;stop-opacity:0.1"/>
	</radialGradient>
	<circle class="st2" cx="285" cy="204.1" r="20.5"/>
	
		<radialGradient id="SVGID_3_" cx="282.8467" cy="202.3496" r="10.1973" gradientTransform="matrix(0.8336 0 0 0.8336 49.2629 35.4087)" gradientUnits="userSpaceOnUse">
		<stop  offset="0" style="stop-color:#FFFFFF;stop-opacity:0"/>
		<stop  offset="1" style="stop-color:#101010;stop-opacity:0.1"/>
	</radialGradient>
	<circle class="st3" cx="285" cy="204.1" r="8.5"/>
	<circle class="st4" cx="285" cy="204.1" r="4.6"/>
</g>
<g>
	
		<radialGradient id="SVGID_4_" cx="243.2503" cy="628.1196" r="31.7251" gradientTransform="matrix(0.8826 0 0 0.8826 34.7511 24.9781)" gradientUnits="userSpaceOnUse">
		<stop  offset="0" style="stop-color:#FFFFFF;stop-opacity:0"/>
		<stop  offset="1" style="stop-color:#101010;stop-opacity:0.1"/>
	</radialGradient>
	<circle class="st5" cx="249.4" cy="579.3" r="28"/>
	
		<radialGradient id="SVGID_5_" cx="243.2503" cy="628.1196" r="23.2273" gradientTransform="matrix(0.8826 0 0 0.8826 34.7511 24.9781)" gradientUnits="userSpaceOnUse">
		<stop  offset="0" style="stop-color:#FFFFFF;stop-opacity:0"/>
		<stop  offset="1" style="stop-color:#101010;stop-opacity:0.1"/>
	</radialGradient>
	<circle class="st6" cx="249.4" cy="579.3" r="20.5"/>
	
		<radialGradient id="SVGID_6_" cx="240.1496" cy="652.5543" r="10.1973" gradientTransform="matrix(0.8336 0 0 0.8336 49.2629 35.4087)" gradientUnits="userSpaceOnUse">
		<stop  offset="0" style="stop-color:#FFFFFF;stop-opacity:0"/>
		<stop  offset="1" style="stop-color:#101010;stop-opacity:0.1"/>
	</radialGradient>
	<circle class="st7" cx="249.4" cy="579.3" r="8.5"/>
	<circle class="st4" cx="249.4" cy="579.3" r="4.6"/>
</g>
<g>
	
		<radialGradient id="SVGID_7_" cx="264.3137" cy="295.9358" r="31.7251" gradientTransform="matrix(0.8826 0 0 0.8826 34.7511 24.9781)" gradientUnits="userSpaceOnUse">
		<stop  offset="0" style="stop-color:#FFFFFF;stop-opacity:0"/>
		<stop  offset="1" style="stop-color:#101010;stop-opacity:0.1"/>
	</radialGradient>
	<circle class="st8" cx="268" cy="286.2" r="28"/>
	
		<radialGradient id="SVGID_8_" cx="264.3137" cy="295.9358" r="23.2273" gradientTransform="matrix(0.8826 0 0 0.8826 34.7511 24.9781)" gradientUnits="userSpaceOnUse">
		<stop  offset="0" style="stop-color:#FFFFFF;stop-opacity:0"/>
		<stop  offset="1" style="stop-color:#101010;stop-opacity:0.1"/>
	</radialGradient>
	<circle class="st9" cx="268" cy="286.2" r="20.5"/>
	
		<radialGradient id="SVGID_9_" cx="262.452" cy="300.8303" r="10.1973" gradientTransform="matrix(0.8336 0 0 0.8336 49.2629 35.4087)" gradientUnits="userSpaceOnUse">
		<stop  offset="0" style="stop-color:#FFFFFF;stop-opacity:0"/>
		<stop  offset="1" style="stop-color:#101010;stop-opacity:0.1"/>
	</radialGradient>
	<circle class="st10" cx="268" cy="286.2" r="8.5"/>
	<circle class="st4" cx="268" cy="286.2" r="4.6"/>
</g>
<g>
	
		<radialGradient id="SVGID_10_" cx="665.3728" cy="356.6302" r="31.7251" gradientTransform="matrix(0.8826 0 0 0.8826 34.7511 24.9781)" gradientUnits="userSpaceOnUse">
		<stop  offset="0" style="stop-color:#FFFFFF;stop-opacity:0"/>
		<stop  offset="1" style="stop-color:#101010;stop-opacity:0.1"/>
	</radialGradient>
	<circle class="st11" cx="622" cy="339.7" r="28"/>
	
		<radialGradient id="SVGID_11_" cx="665.3728" cy="356.6302" r="23.2273" gradientTransform="matrix(0.8826 0 0 0.8826 34.7511 24.9781)" gradientUnits="userSpaceOnUse">
		<stop  offset="0" style="stop-color:#FFFFFF;stop-opacity:0"/>
		<stop  offset="1" style="stop-color:#101010;stop-opacity:0.1"/>
	</radialGradient>
	<circle class="st12" cx="622" cy="339.7" r="20.5"/>
	
		<radialGradient id="SVGID_12_" cx="687.1028" cy="365.0949" r="10.1973" gradientTransform="matrix(0.8336 0 0 0.8336 49.2629 35.4087)" gradientUnits="userSpaceOnUse">
		<stop  offset="0" style="stop-color:#FFFFFF;stop-opacity:0"/>
		<stop  offset="1" style="stop-color:#101010;stop-opacity:0.1"/>
	</radialGradient>
	<circle class="st13" cx="622" cy="339.7" r="8.5"/>
	<circle class="st4" cx="622" cy="339.7" r="4.6"/>
</g>
<g>
	
		<radialGradient id="SVGID_13_" cx="483.0107" cy="594.053" r="31.7251" gradientTransform="matrix(0.8826 0 0 0.8826 34.7511 24.9781)" gradientUnits="userSpaceOnUse">
		<stop  offset="0" style="stop-color:#FFFFFF;stop-opacity:0"/>
		<stop  offset="1" style="stop-color:#101010;stop-opacity:0.1"/>
	</radialGradient>
	<circle class="st14" cx="461" cy="549.3" r="28"/>
	
		<radialGradient id="SVGID_14_" cx="483.0107" cy="594.053" r="23.2273" gradientTransform="matrix(0.8826 0 0 0.8826 34.7511 24.9781)" gradientUnits="userSpaceOnUse">
		<stop  offset="0" style="stop-color:#FFFFFF;stop-opacity:0"/>
		<stop  offset="1" style="stop-color:#101010;stop-opacity:0.1"/>
	</radialGradient>
	<circle class="st15" cx="461" cy="549.3" r="20.5"/>
	
		<radialGradient id="SVGID_15_" cx="494.0136" cy="616.4838" r="10.1973" gradientTransform="matrix(0.8336 0 0 0.8336 49.2629 35.4087)" gradientUnits="userSpaceOnUse">
		<stop  offset="0" style="stop-color:#FFFFFF;stop-opacity:0"/>
		<stop  offset="1" style="stop-color:#101010;stop-opacity:0.1"/>
	</radialGradient>
	<circle class="st16" cx="461" cy="549.3" r="8.5"/>
	<circle class="st4" cx="461" cy="549.3" r="4.6"/>
</g>
<g>
	
		<radialGradient id="SVGID_16_" cx="232.5886" cy="696.9755" r="31.7251" gradientTransform="matrix(0.8826 0 0 0.8826 34.7511 24.9781)" gradientUnits="userSpaceOnUse">
		<stop  offset="0" style="stop-color:#FFFFFF;stop-opacity:0"/>
		<stop  offset="1" style="stop-color:#101010;stop-opacity:0.1"/>
	</radialGradient>
	<circle class="st17" cx="240" cy="640.1" r="28"/>
	
		<radialGradient id="SVGID_17_" cx="232.5886" cy="696.9755" r="23.2273" gradientTransform="matrix(0.8826 0 0 0.8826 34.7511 24.9781)" gradientUnits="userSpaceOnUse">
		<stop  offset="0" style="stop-color:#FFFFFF;stop-opacity:0"/>
		<stop  offset="1" style="stop-color:#101010;stop-opacity:0.1"/>
	</radialGradient>
	<circle class="st18" cx="240" cy="640.1" r="20.5"/>
	
		<radialGradient id="SVGID_18_" cx="228.8607" cy="725.4606" r="10.1973" gradientTransform="matrix(0.8336 0 0 0.8336 49.2629 35.4087)" gradientUnits="userSpaceOnUse">
		<stop  offset="0" style="stop-color:#FFFFFF;stop-opacity:0"/>
		<stop  offset="1" style="stop-color:#101010;stop-opacity:0.1"/>
	</radialGradient>
	<circle class="st19" cx="240" cy="640.1" r="8.5"/>
	<circle class="st4" cx="240" cy="640.1" r="4.6"/>
</g>
<g>
	
		<radialGradient id="SVGID_19_" cx="514.7358" cy="779.5695" r="31.7251" gradientTransform="matrix(0.8826 0 0 0.8826 34.7511 24.9781)" gradientUnits="userSpaceOnUse">
		<stop  offset="0" style="stop-color:#FFFFFF;stop-opacity:0"/>
		<stop  offset="1" style="stop-color:#101010;stop-opacity:0.1"/>
	</radialGradient>
	<circle class="st20" cx="489" cy="713" r="28"/>
	
		<radialGradient id="SVGID_20_" cx="514.7358" cy="779.5695" r="23.2273" gradientTransform="matrix(0.8826 0 0 0.8826 34.7511 24.9781)" gradientUnits="userSpaceOnUse">
		<stop  offset="0" style="stop-color:#FFFFFF;stop-opacity:0"/>
		<stop  offset="1" style="stop-color:#101010;stop-opacity:0.1"/>
	</radialGradient>
	<circle class="st21" cx="489" cy="713" r="20.5"/>
	
		<radialGradient id="SVGID_21_" cx="527.6048" cy="812.913" r="10.1973" gradientTransform="matrix(0.8336 0 0 0.8336 49.2629 35.4087)" gradientUnits="userSpaceOnUse">
		<stop  offset="0" style="stop-color:#FFFFFF;stop-opacity:0"/>
		<stop  offset="1" style="stop-color:#101010;stop-opacity:0.1"/>
	</radialGradient>
	<circle class="st22" cx="489" cy="713" r="8.5"/>
	<circle class="st4" cx="489" cy="713" r="4.6"/>
</g>
<g>
	
		<radialGradient id="SVGID_22_" cx="283.5753" cy="386.9798" r="31.7251" gradientTransform="matrix(0.8826 0 0 0.8826 34.7511 24.9781)" gradientUnits="userSpaceOnUse">
		<stop  offset="0" style="stop-color:#FFFFFF;stop-opacity:0"/>
		<stop  offset="1" style="stop-color:#101010;stop-opacity:0.1"/>
	</radialGradient>
	<circle class="st23" cx="285" cy="366.5" r="28"/>
	
		<radialGradient id="SVGID_23_" cx="283.5753" cy="386.9798" r="23.2273" gradientTransform="matrix(0.8826 0 0 0.8826 34.7511 24.9781)" gradientUnits="userSpaceOnUse">
		<stop  offset="0" style="stop-color:#FFFFFF;stop-opacity:0"/>
		<stop  offset="1" style="stop-color:#101010;stop-opacity:0.1"/>
	</radialGradient>
	<circle class="st24" cx="285" cy="366.5" r="20.5"/>
	
		<radialGradient id="SVGID_24_" cx="282.8467" cy="397.2298" r="10.1973" gradientTransform="matrix(0.8336 0 0 0.8336 49.2629 35.4087)" gradientUnits="userSpaceOnUse">
		<stop  offset="0" style="stop-color:#FFFFFF;stop-opacity:0"/>
		<stop  offset="1" style="stop-color:#101010;stop-opacity:0.1"/>
	</radialGradient>
	<circle class="st25" cx="285" cy="366.5" r="8.5"/>
	<circle class="st4" cx="285" cy="366.5" r="4.6"/>
</g>
<g>
	
		<radialGradient id="SVGID_25_" cx="335.4749" cy="145.84" r="31.7251" gradientTransform="matrix(0.8826 0 0 0.8826 34.7511 24.9781)" gradientUnits="userSpaceOnUse">
		<stop  offset="0" style="stop-color:#FFFFFF;stop-opacity:0"/>
		<stop  offset="1" style="stop-color:#101010;stop-opacity:0.1"/>
	</radialGradient>
	<circle class="st26" cx="330.8" cy="153.7" r="28"/>
	
		<radialGradient id="SVGID_26_" cx="335.4749" cy="145.84" r="23.2273" gradientTransform="matrix(0.8826 0 0 0.8826 34.7511 24.9781)" gradientUnits="userSpaceOnUse">
		<stop  offset="0" style="stop-color:#FFFFFF;stop-opacity:0"/>
		<stop  offset="1" style="stop-color:#101010;stop-opacity:0.1"/>
	</radialGradient>
	<circle class="st27" cx="330.8" cy="153.7" r="20.5"/>
	
		<radialGradient id="SVGID_27_" cx="337.7991" cy="141.9053" r="10.1973" gradientTransform="matrix(0.8336 0 0 0.8336 49.2629 35.4087)" gradientUnits="userSpaceOnUse">
		<stop  offset="0" style="stop-color:#FFFFFF;stop-opacity:0"/>
		<stop  offset="1" style="stop-color:#101010;stop-opacity:0.1"/>
	</radialGradient>
	<circle class="st28" cx="330.8" cy="153.7" r="8.5"/>
	<circle class="st4" cx="330.8" cy="153.7" r="4.6"/>
</g>
<g>
	
		<radialGradient id="SVGID_28_" cx="121.7022" cy="141.9299" r="23.7938" gradientTransform="matrix(0.8826 0 0 0.8826 34.7511 24.9781)" gradientUnits="userSpaceOnUse">
		<stop  offset="0" style="stop-color:#FFFFFF;stop-opacity:0"/>
		<stop  offset="1" style="stop-color:#101010;stop-opacity:0.1"/>
	</radialGradient>
	<circle class="st29" cx="142.2" cy="150.2" r="21"/>
	
		<radialGradient id="SVGID_29_" cx="121.7022" cy="141.9299" r="17.4205" gradientTransform="matrix(0.8826 0 0 0.8826 34.7511 24.9781)" gradientUnits="userSpaceOnUse">
		<stop  offset="0" style="stop-color:#FFFFFF;stop-opacity:0"/>
		<stop  offset="1" style="stop-color:#101010;stop-opacity:0.1"/>
	</radialGradient>
	<circle class="st30" cx="142.2" cy="150.2" r="15.4"/>
	
		<radialGradient id="SVGID_30_" cx="111.4516" cy="137.7652" r="7.648" gradientTransform="matrix(0.8336 0 0 0.8336 49.2629 35.4087)" gradientUnits="userSpaceOnUse">
		<stop  offset="0" style="stop-color:#FFFFFF;stop-opacity:0"/>
		<stop  offset="1" style="stop-color:#101010;stop-opacity:0.1"/>
	</radialGradient>
	<circle class="st31" cx="142.2" cy="150.2" r="6.4"/>
	<circle class="st4" cx="142.2" cy="150.2" r="3.5"/>
</g>
</svg>
