<svg id="Layer_1" data-name="Layer 1" xmlns="http://www.w3.org/2000/svg" xmlns:xlink="http://www.w3.org/1999/xlink" viewBox="0 0 1213.14 1088.5"><defs><style>.cls-1{fill:#25303a;}.cls-2{fill:url(#radial-gradient);}.cls-3{fill:url(#radial-gradient-2);}.cls-4{fill:url(#radial-gradient-3);}.cls-5{fill:url(#radial-gradient-4);}.cls-6{fill:url(#radial-gradient-5);}.cls-7{fill:url(#radial-gradient-6);}.cls-8{fill:url(#radial-gradient-7);}.cls-9{fill:url(#radial-gradient-8);}.cls-10{fill:url(#radial-gradient-9);}.cls-11{fill:url(#radial-gradient-10);}.cls-12{fill:url(#radial-gradient-11);}.cls-13{fill:url(#radial-gradient-12);}.cls-14{fill:url(#radial-gradient-13);}.cls-15{fill:url(#radial-gradient-14);}.cls-16{fill:url(#radial-gradient-15);}.cls-17{fill:url(#radial-gradient-16);}.cls-18{fill:url(#radial-gradient-17);}.cls-19{fill:url(#radial-gradient-18);}.cls-20{fill:url(#radial-gradient-19);}.cls-21{fill:url(#radial-gradient-20);}.cls-22{fill:url(#radial-gradient-21);}.cls-23{fill:url(#radial-gradient-22);}.cls-24{fill:url(#radial-gradient-23);}.cls-25{fill:url(#radial-gradient-24);}.cls-26{fill:url(#radial-gradient-25);}.cls-27{fill:url(#radial-gradient-26);}.cls-28{fill:url(#radial-gradient-27);}.cls-29{fill:url(#radial-gradient-28);}.cls-30{fill:url(#radial-gradient-29);}.cls-31{fill:url(#radial-gradient-30);}.cls-32{fill:url(#radial-gradient-31);}.cls-33{fill:url(#radial-gradient-32);}.cls-34{fill:url(#radial-gradient-33);}.cls-35{fill:url(#radial-gradient-34);}.cls-36{fill:url(#radial-gradient-35);}.cls-37{fill:url(#radial-gradient-36);}.cls-38{fill:url(#radial-gradient-37);}.cls-39{fill:url(#radial-gradient-38);}.cls-40{fill:url(#radial-gradient-39);}.cls-41{fill:url(#radial-gradient-40);}.cls-42{fill:#f0f0f0;}.cls-43{fill:#fff;}.cls-44{fill:#6da544;}.cls-45{fill:#ffda44;}.cls-46{fill:#d80027;}.cls-47{fill:#0052b4;}.cls-48{fill:#a2001d;}</style><radialGradient id="radial-gradient" cx="603.06" cy="585.62" r="67.19" gradientTransform="translate(-98.19 -344.62) scale(0.92)" gradientUnits="userSpaceOnUse"><stop offset="0" stop-color="#f7b32d" stop-opacity="0"/><stop offset="1" stop-color="#f7b32d" stop-opacity="0.1"/></radialGradient><radialGradient id="radial-gradient-2" cx="603.06" cy="585.62" r="49.29" xlink:href="#radial-gradient"/><radialGradient id="radial-gradient-3" cx="643.96" cy="594.21" r="21.55" gradientTransform="translate(-102.95 -322.12) scale(0.87)" xlink:href="#radial-gradient"/><radialGradient id="radial-gradient-4" cx="458.25" cy="195.73" r="10.17" gradientTransform="matrix(1, 0, 0, 1, 0, 0)" xlink:href="#radial-gradient"/><radialGradient id="radial-gradient-5" cx="1056.7" cy="867.7" r="67.19" xlink:href="#radial-gradient"/><radialGradient id="radial-gradient-6" cx="1056.7" cy="867.7" r="49.29" xlink:href="#radial-gradient"/><radialGradient id="radial-gradient-7" cx="1124.25" cy="892.86" r="21.55" gradientTransform="translate(-102.95 -322.12) scale(0.87)" xlink:href="#radial-gradient"/><radialGradient id="radial-gradient-8" cx="876.83" cy="456" r="10.17" gradientTransform="matrix(1, 0, 0, 1, 0, 0)" xlink:href="#radial-gradient"/><radialGradient id="radial-gradient-9" cx="798.68" cy="1177.89" r="67.19" xlink:href="#radial-gradient"/><radialGradient id="radial-gradient-10" cx="798.68" cy="1177.89" r="49.29" xlink:href="#radial-gradient"/><radialGradient id="radial-gradient-11" cx="851.07" cy="1221.28" r="21.55" gradientTransform="translate(-102.95 -322.12) scale(0.87)" xlink:href="#radial-gradient"/><radialGradient id="radial-gradient-12" cx="638.75" cy="742.22" r="10.17" gradientTransform="matrix(1, 0, 0, 1, 0, 0)" xlink:href="#radial-gradient"/><radialGradient id="radial-gradient-13" cx="835.82" cy="1344.35" r="67.19" xlink:href="#radial-gradient"/><radialGradient id="radial-gradient-14" cx="835.82" cy="1344.35" r="49.29" xlink:href="#radial-gradient"/><radialGradient id="radial-gradient-15" cx="890.39" cy="1397.51" r="21.55" gradientTransform="translate(-102.95 -322.12) scale(0.87)" xlink:href="#radial-gradient"/><radialGradient id="radial-gradient-16" cx="673.02" cy="895.8" r="10.17" gradientTransform="matrix(1, 0, 0, 1, 0, 0)" xlink:href="#radial-gradient"/><radialGradient id="radial-gradient-17" cx="482.17" cy="1340.44" r="67.19" xlink:href="#radial-gradient"/><radialGradient id="radial-gradient-18" cx="482.17" cy="1340.44" r="49.29" xlink:href="#radial-gradient"/><radialGradient id="radial-gradient-19" cx="515.96" cy="1393.37" r="21.55" gradientTransform="translate(-102.95 -322.12) scale(0.87)" xlink:href="#radial-gradient"/><radialGradient id="radial-gradient-20" cx="346.71" cy="892.2" r="10.17" gradientTransform="matrix(1, 0, 0, 1, 0, 0)" xlink:href="#radial-gradient"/><radialGradient id="radial-gradient-21" cx="471.19" cy="1208.12" r="67.19" xlink:href="#radial-gradient"/><radialGradient id="radial-gradient-22" cx="471.19" cy="1208.12" r="49.29" xlink:href="#radial-gradient"/><radialGradient id="radial-gradient-23" cx="504.34" cy="1253.28" r="21.55" gradientTransform="translate(-102.95 -322.12) scale(0.87)" xlink:href="#radial-gradient"/><radialGradient id="radial-gradient-24" cx="336.58" cy="770.11" r="10.17" gradientTransform="matrix(1, 0, 0, 1, 0, 0)" xlink:href="#radial-gradient"/><radialGradient id="radial-gradient-25" cx="528.63" cy="950.1" r="67.19" xlink:href="#radial-gradient"/><radialGradient id="radial-gradient-26" cx="528.63" cy="950.1" r="49.29" xlink:href="#radial-gradient"/><radialGradient id="radial-gradient-27" cx="565.16" cy="980.1" r="21.55" gradientTransform="translate(-102.95 -322.12) scale(0.87)" xlink:href="#radial-gradient"/><radialGradient id="radial-gradient-28" cx="389.58" cy="532.03" r="10.17" gradientTransform="matrix(1, 0, 0, 1, 0, 0)" xlink:href="#radial-gradient"/><radialGradient id="radial-gradient-29" cx="457.57" cy="820.86" r="67.19" xlink:href="#radial-gradient"/><radialGradient id="radial-gradient-30" cx="457.57" cy="820.86" r="49.29" xlink:href="#radial-gradient"/><radialGradient id="radial-gradient-31" cx="489.92" cy="843.27" r="21.55" gradientTransform="translate(-102.95 -322.12) scale(0.87)" xlink:href="#radial-gradient"/><radialGradient id="radial-gradient-32" cx="324.01" cy="412.78" r="10.17" gradientTransform="matrix(1, 0, 0, 1, 0, 0)" xlink:href="#radial-gradient"/><radialGradient id="radial-gradient-33" cx="522.92" cy="692.38" r="67.19" xlink:href="#radial-gradient"/><radialGradient id="radial-gradient-34" cx="522.92" cy="692.38" r="49.29" xlink:href="#radial-gradient"/><radialGradient id="radial-gradient-35" cx="559.11" cy="707.23" r="21.55" gradientTransform="translate(-102.95 -322.12) scale(0.87)" xlink:href="#radial-gradient"/><radialGradient id="radial-gradient-36" cx="384.31" cy="294.23" r="10.17" gradientTransform="matrix(1, 0, 0, 1, 0, 0)" xlink:href="#radial-gradient"/><radialGradient id="radial-gradient-37" cx="309.1" cy="583.96" r="67.19" xlink:href="#radial-gradient"/><radialGradient id="radial-gradient-38" cx="309.1" cy="583.96" r="49.29" xlink:href="#radial-gradient"/><radialGradient id="radial-gradient-39" cx="332.73" cy="592.45" r="21.55" gradientTransform="translate(-102.95 -322.12) scale(0.87)" xlink:href="#radial-gradient"/><radialGradient id="radial-gradient-40" cx="187.02" cy="194.2" r="10.17" gradientTransform="matrix(1, 0, 0, 1, 0, 0)" xlink:href="#radial-gradient"/></defs><title>asiamap</title><circle class="cls-1" cx="899.14" cy="1080.5" r="8"/><circle class="cls-1" cx="868.54" cy="1080.5" r="8"/><circle class="cls-1" cx="776.74" cy="1080.5" r="8"/><circle class="cls-1" cx="929.74" cy="1053" r="8"/><circle class="cls-1" cx="899.14" cy="1053" r="8"/><circle class="cls-1" cx="807.34" cy="1053" r="8"/><circle class="cls-1" cx="899.14" cy="1025.5" r="8"/><circle class="cls-1" cx="868.54" cy="1025.5" r="8"/><circle class="cls-1" cx="837.94" cy="1025.5" r="8"/><circle class="cls-1" cx="776.74" cy="1025.5" r="8"/><circle class="cls-1" cx="746.14" cy="1025.5" r="8"/><circle class="cls-1" cx="715.54" cy="1025.5" r="8"/><circle class="cls-1" cx="654.34" cy="1025.5" r="8"/><circle class="cls-1" cx="623.74" cy="1025.5" r="8"/><circle class="cls-1" cx="593.14" cy="1025.5" r="8"/><circle class="cls-1" cx="562.54" cy="1025.5" r="8"/><circle class="cls-1" cx="562.54" cy="998" r="8"/><circle class="cls-1" cx="531.94" cy="998" r="8"/><circle class="cls-1" cx="501.34" cy="998" r="8"/><circle class="cls-1" cx="470.74" cy="998" r="8"/><circle class="cls-1" cx="440.14" cy="998" r="8"/><circle class="cls-1" cx="409.54" cy="998" r="8"/><circle class="cls-1" cx="440.14" cy="970.5" r="8"/><circle class="cls-1" cx="409.54" cy="970.5" r="8"/><circle class="cls-1" cx="378.94" cy="970.5" r="8"/><circle class="cls-1" cx="348.34" cy="943" r="8"/><circle class="cls-1" cx="1205.14" cy="915.5" r="8"/><circle class="cls-1" cx="837.94" cy="915.5" r="8"/><circle class="cls-1" cx="776.74" cy="915.5" r="8"/><circle class="cls-1" cx="348.34" cy="915.5" r="8"/><circle class="cls-1" cx="317.74" cy="915.5" r="8"/><circle class="cls-1" cx="287.14" cy="915.5" r="8"/><circle class="cls-1" cx="1205.14" cy="888" r="8"/><circle class="cls-1" cx="1174.54" cy="888" r="8"/><circle class="cls-1" cx="1143.94" cy="888" r="8"/><circle class="cls-1" cx="1052.14" cy="888" r="8"/><circle class="cls-1" cx="1021.54" cy="888" r="8"/><circle class="cls-1" cx="960.34" cy="888" r="8"/><circle class="cls-1" cx="837.94" cy="888" r="8"/><circle class="cls-1" cx="807.34" cy="888" r="8"/><circle class="cls-1" cx="776.74" cy="888" r="8"/><circle class="cls-1" cx="654.34" cy="888" r="8"/><circle class="cls-1" cx="623.74" cy="888" r="8"/><circle class="cls-1" cx="593.14" cy="888" r="8"/><circle class="cls-1" cx="562.54" cy="888" r="8"/><circle class="cls-1" cx="378.94" cy="888" r="8"/><circle class="cls-1" cx="348.34" cy="888" r="8"/><circle class="cls-1" cx="317.74" cy="888" r="8"/><circle class="cls-1" cx="287.14" cy="888" r="8"/><circle class="cls-1" cx="256.54" cy="888" r="8"/><circle class="cls-1" cx="1205.14" cy="860.5" r="8"/><circle class="cls-1" cx="1174.54" cy="860.5" r="8"/><circle class="cls-1" cx="1143.94" cy="860.5" r="8"/><circle class="cls-1" cx="1113.34" cy="860.5" r="8"/><circle class="cls-1" cx="929.74" cy="860.5" r="8"/><circle class="cls-1" cx="837.94" cy="860.5" r="8"/><circle class="cls-1" cx="807.34" cy="860.5" r="8"/><circle class="cls-1" cx="776.74" cy="860.5" r="8"/><circle class="cls-1" cx="746.14" cy="860.5" r="8"/><circle class="cls-1" cx="654.34" cy="860.5" r="8"/><circle class="cls-1" cx="623.74" cy="860.5" r="8"/><circle class="cls-1" cx="593.14" cy="860.5" r="8"/><circle class="cls-1" cx="562.54" cy="860.5" r="8"/><circle class="cls-1" cx="531.94" cy="860.5" r="8"/><circle class="cls-1" cx="501.34" cy="860.5" r="8"/><circle class="cls-1" cx="378.94" cy="860.5" r="8"/><circle class="cls-1" cx="348.34" cy="860.5" r="8"/><circle class="cls-1" cx="317.74" cy="860.5" r="8"/><circle class="cls-1" cx="287.14" cy="860.5" r="8"/><circle class="cls-1" cx="256.54" cy="860.5" r="8"/><circle class="cls-1" cx="1205.14" cy="833" r="8"/><circle class="cls-1" cx="1143.94" cy="833" r="8"/><circle class="cls-1" cx="1113.34" cy="833" r="8"/><circle class="cls-1" cx="929.74" cy="833" r="8"/><circle class="cls-1" cx="868.54" cy="833" r="8"/><circle class="cls-1" cx="837.94" cy="833" r="8"/><circle class="cls-1" cx="807.34" cy="833" r="8"/><circle class="cls-1" cx="776.74" cy="833" r="8"/><circle class="cls-1" cx="684.94" cy="833" r="8"/><circle class="cls-1" cx="654.34" cy="833" r="8"/><circle class="cls-1" cx="623.74" cy="833" r="8"/><circle class="cls-1" cx="593.14" cy="833" r="8"/><circle class="cls-1" cx="562.54" cy="833" r="8"/><circle class="cls-1" cx="531.94" cy="833" r="8"/><circle class="cls-1" cx="501.34" cy="833" r="8"/><circle class="cls-1" cx="378.94" cy="833" r="8"/><circle class="cls-1" cx="317.74" cy="833" r="8"/><circle class="cls-1" cx="287.14" cy="833" r="8"/><circle class="cls-1" cx="256.54" cy="833" r="8"/><circle class="cls-1" cx="225.94" cy="833" r="8"/><circle class="cls-1" cx="1113.34" cy="805.5" r="8"/><circle class="cls-1" cx="990.94" cy="805.5" r="8"/><circle class="cls-1" cx="837.94" cy="805.5" r="8"/><circle class="cls-1" cx="776.74" cy="805.5" r="8"/><circle class="cls-1" cx="715.54" cy="805.5" r="8"/><circle class="cls-1" cx="684.94" cy="805.5" r="8"/><circle class="cls-1" cx="654.34" cy="805.5" r="8"/><circle class="cls-1" cx="623.74" cy="805.5" r="8"/><circle class="cls-1" cx="593.14" cy="805.5" r="8"/><circle class="cls-1" cx="562.54" cy="805.5" r="8"/><circle class="cls-1" cx="531.94" cy="805.5" r="8"/><circle class="cls-1" cx="501.34" cy="805.5" r="8"/><circle class="cls-1" cx="470.74" cy="805.5" r="8"/><circle class="cls-1" cx="317.74" cy="805.5" r="8"/><circle class="cls-1" cx="287.14" cy="805.5" r="8"/><circle class="cls-1" cx="256.54" cy="805.5" r="8"/><circle class="cls-1" cx="225.94" cy="805.5" r="8"/><circle class="cls-1" cx="1021.54" cy="778" r="8"/><circle class="cls-1" cx="990.94" cy="778" r="8"/><circle class="cls-1" cx="899.14" cy="778" r="8"/><circle class="cls-1" cx="868.54" cy="778" r="8"/><circle class="cls-1" cx="837.94" cy="778" r="8"/><circle class="cls-1" cx="807.34" cy="778" r="8"/><circle class="cls-1" cx="776.74" cy="778" r="8"/><circle class="cls-1" cx="715.54" cy="778" r="8"/><circle class="cls-1" cx="684.94" cy="778" r="8"/><circle class="cls-1" cx="654.34" cy="778" r="8"/><circle class="cls-1" cx="623.74" cy="778" r="8"/><circle class="cls-1" cx="593.14" cy="778" r="8"/><circle class="cls-1" cx="562.54" cy="778" r="8"/><circle class="cls-1" cx="531.94" cy="778" r="8"/><circle class="cls-1" cx="501.34" cy="778" r="8"/><circle class="cls-1" cx="470.74" cy="778" r="8"/><circle class="cls-1" cx="287.14" cy="778" r="8"/><circle class="cls-1" cx="256.54" cy="778" r="8"/><circle class="cls-1" cx="225.94" cy="778" r="8"/><circle class="cls-1" cx="195.34" cy="778" r="8"/><circle class="cls-1" cx="990.94" cy="750.5" r="8"/><circle class="cls-1" cx="929.74" cy="750.5" r="8"/><circle class="cls-1" cx="807.34" cy="750.5" r="8"/><circle class="cls-1" cx="746.14" cy="750.5" r="8"/><circle class="cls-1" cx="715.54" cy="750.5" r="8"/><circle class="cls-1" cx="684.94" cy="750.5" r="8"/><circle class="cls-1" cx="654.34" cy="750.5" r="8"/><circle class="cls-1" cx="623.74" cy="750.5" r="8"/><circle class="cls-1" cx="593.14" cy="750.5" r="8"/><circle class="cls-1" cx="562.54" cy="750.5" r="8"/><circle class="cls-1" cx="531.94" cy="750.5" r="8"/><circle class="cls-1" cx="501.34" cy="750.5" r="8"/><circle class="cls-1" cx="470.74" cy="750.5" r="8"/><circle class="cls-1" cx="317.74" cy="750.5" r="8"/><circle class="cls-1" cx="256.54" cy="750.5" r="8"/><circle class="cls-1" cx="225.94" cy="750.5" r="8"/><circle class="cls-1" cx="195.34" cy="750.5" r="8"/><circle class="cls-1" cx="715.54" cy="723" r="8"/><circle class="cls-1" cx="684.94" cy="723" r="8"/><circle class="cls-1" cx="654.34" cy="723" r="8"/><circle class="cls-1" cx="623.74" cy="723" r="8"/><circle class="cls-1" cx="593.14" cy="723" r="8"/><circle class="cls-1" cx="562.54" cy="723" r="8"/><circle class="cls-1" cx="531.94" cy="723" r="8"/><circle class="cls-1" cx="317.74" cy="723" r="8"/><circle class="cls-1" cx="287.14" cy="723" r="8"/><circle class="cls-1" cx="225.94" cy="723" r="8"/><circle class="cls-1" cx="195.34" cy="723" r="8"/><circle class="cls-1" cx="164.74" cy="723" r="8"/><circle class="cls-1" cx="684.94" cy="695.5" r="8"/><circle class="cls-1" cx="654.34" cy="695.5" r="8"/><circle class="cls-1" cx="623.74" cy="695.5" r="8"/><circle class="cls-1" cx="593.14" cy="695.5" r="8"/><circle class="cls-1" cx="287.14" cy="695.5" r="8"/><circle class="cls-1" cx="256.54" cy="695.5" r="8"/><circle class="cls-1" cx="164.74" cy="695.5" r="8"/><circle class="cls-1" cx="134.14" cy="695.5" r="8"/><circle class="cls-1" cx="715.54" cy="668" r="8"/><circle class="cls-1" cx="684.94" cy="668" r="8"/><circle class="cls-1" cx="654.34" cy="668" r="8"/><circle class="cls-1" cx="623.74" cy="668" r="8"/><circle class="cls-1" cx="287.14" cy="668" r="8"/><circle class="cls-1" cx="256.54" cy="668" r="8"/><circle class="cls-1" cx="164.74" cy="668" r="8"/><circle class="cls-1" cx="134.14" cy="668" r="8"/><circle class="cls-1" cx="103.54" cy="668" r="8"/><circle class="cls-1" cx="746.14" cy="640.5" r="8"/><circle class="cls-1" cx="715.54" cy="640.5" r="8"/><circle class="cls-1" cx="684.94" cy="640.5" r="8"/><circle class="cls-1" cx="654.34" cy="640.5" r="8"/><circle class="cls-1" cx="287.14" cy="640.5" r="8"/><circle class="cls-1" cx="256.54" cy="640.5" r="8"/><circle class="cls-1" cx="225.94" cy="640.5" r="8"/><circle class="cls-1" cx="134.14" cy="640.5" r="8"/><circle class="cls-1" cx="103.54" cy="640.5" r="8"/><circle class="cls-1" cx="929.74" cy="613" r="8"/><circle class="cls-1" cx="684.94" cy="613" r="8"/><circle class="cls-1" cx="256.54" cy="613" r="8"/><circle class="cls-1" cx="225.94" cy="613" r="8"/><circle class="cls-1" cx="960.34" cy="585.5" r="8"/><circle class="cls-1" cx="929.74" cy="585.5" r="8"/><circle class="cls-1" cx="899.14" cy="585.5" r="8"/><circle class="cls-1" cx="868.54" cy="585.5" r="8"/><circle class="cls-1" cx="837.94" cy="585.5" r="8"/><circle class="cls-1" cx="225.94" cy="585.5" r="8"/><circle class="cls-1" cx="195.34" cy="585.5" r="8"/><circle class="cls-1" cx="960.34" cy="558" r="8"/><circle class="cls-1" cx="929.74" cy="558" r="8"/><circle class="cls-1" cx="899.14" cy="558" r="8"/><circle class="cls-1" cx="868.54" cy="558" r="8"/><circle class="cls-1" cx="837.94" cy="558" r="8"/><circle class="cls-1" cx="195.34" cy="558" r="8"/><circle class="cls-1" cx="929.74" cy="530.5" r="8"/><circle class="cls-1" cx="868.54" cy="530.5" r="8"/><circle class="cls-1" cx="348.34" cy="530.5" r="8"/><circle class="cls-1" cx="195.34" cy="530.5" r="8"/><circle class="cls-1" cx="164.74" cy="530.5" r="8"/><circle class="cls-1" cx="868.54" cy="503" r="8"/><circle class="cls-1" cx="746.14" cy="503" r="8"/><circle class="cls-1" cx="409.54" cy="503" r="8"/><circle class="cls-1" cx="378.94" cy="503" r="8"/><circle class="cls-1" cx="348.34" cy="503" r="8"/><circle class="cls-1" cx="164.74" cy="503" r="8"/><circle class="cls-1" cx="899.14" cy="475.5" r="8"/><circle class="cls-1" cx="837.94" cy="475.5" r="8"/><circle class="cls-1" cx="440.14" cy="475.5" r="8"/><circle class="cls-1" cx="409.54" cy="475.5" r="8"/><circle class="cls-1" cx="378.94" cy="475.5" r="8"/><circle class="cls-1" cx="348.34" cy="475.5" r="8"/><circle class="cls-1" cx="317.74" cy="475.5" r="8"/><circle class="cls-1" cx="195.34" cy="475.5" r="8"/><circle class="cls-1" cx="164.74" cy="475.5" r="8"/><circle class="cls-1" cx="929.74" cy="448" r="8"/><circle class="cls-1" cx="807.34" cy="448" r="8"/><circle class="cls-1" cx="440.14" cy="448" r="8"/><circle class="cls-1" cx="409.54" cy="448" r="8"/><circle class="cls-1" cx="378.94" cy="448" r="8"/><circle class="cls-1" cx="348.34" cy="448" r="8"/><circle class="cls-1" cx="317.74" cy="448" r="8"/><circle class="cls-1" cx="287.14" cy="448" r="8"/><circle class="cls-1" cx="195.34" cy="448" r="8"/><circle class="cls-1" cx="164.74" cy="448" r="8"/><circle class="cls-1" cx="807.34" cy="420.5" r="8"/><circle class="cls-1" cx="470.74" cy="420.5" r="8"/><circle class="cls-1" cx="440.14" cy="420.5" r="8"/><circle class="cls-1" cx="409.54" cy="420.5" r="8"/><circle class="cls-1" cx="378.94" cy="420.5" r="8"/><circle class="cls-1" cx="348.34" cy="420.5" r="8"/><circle class="cls-1" cx="317.74" cy="420.5" r="8"/><circle class="cls-1" cx="287.14" cy="420.5" r="8"/><circle class="cls-1" cx="256.54" cy="420.5" r="8"/><circle class="cls-1" cx="195.34" cy="420.5" r="8"/><circle class="cls-1" cx="164.74" cy="420.5" r="8"/><circle class="cls-1" cx="868.54" cy="393" r="8"/><circle class="cls-1" cx="807.34" cy="393" r="8"/><circle class="cls-1" cx="470.74" cy="393" r="8"/><circle class="cls-1" cx="440.14" cy="393" r="8"/><circle class="cls-1" cx="409.54" cy="393" r="8"/><circle class="cls-1" cx="378.94" cy="393" r="8"/><circle class="cls-1" cx="348.34" cy="393" r="8"/><circle class="cls-1" cx="317.74" cy="393" r="8"/><circle class="cls-1" cx="287.14" cy="393" r="8"/><circle class="cls-1" cx="256.54" cy="393" r="8"/><circle class="cls-1" cx="225.94" cy="393" r="8"/><circle class="cls-1" cx="195.34" cy="393" r="8"/><circle class="cls-1" cx="164.74" cy="393" r="8"/><circle class="cls-1" cx="807.34" cy="365.5" r="8"/><circle class="cls-1" cx="776.74" cy="365.5" r="8"/><circle class="cls-1" cx="440.14" cy="365.5" r="8"/><circle class="cls-1" cx="409.54" cy="365.5" r="8"/><circle class="cls-1" cx="378.94" cy="365.5" r="8"/><circle class="cls-1" cx="348.34" cy="365.5" r="8"/><circle class="cls-1" cx="317.74" cy="365.5" r="8"/><circle class="cls-1" cx="287.14" cy="365.5" r="8"/><circle class="cls-1" cx="256.54" cy="365.5" r="8"/><circle class="cls-1" cx="225.94" cy="365.5" r="8"/><circle class="cls-1" cx="195.34" cy="365.5" r="8"/><circle class="cls-1" cx="164.74" cy="365.5" r="8"/><circle class="cls-1" cx="807.34" cy="338" r="8"/><circle class="cls-1" cx="776.74" cy="338" r="8"/><circle class="cls-1" cx="440.14" cy="338" r="8"/><circle class="cls-1" cx="409.54" cy="338" r="8"/><circle class="cls-1" cx="378.94" cy="338" r="8"/><circle class="cls-1" cx="348.34" cy="338" r="8"/><circle class="cls-1" cx="317.74" cy="338" r="8"/><circle class="cls-1" cx="287.14" cy="338" r="8"/><circle class="cls-1" cx="256.54" cy="338" r="8"/><circle class="cls-1" cx="225.94" cy="338" r="8"/><circle class="cls-1" cx="195.34" cy="338" r="8"/><circle class="cls-1" cx="164.74" cy="338" r="8"/><circle class="cls-1" cx="72.94" cy="338" r="8"/><circle class="cls-1" cx="837.94" cy="310.5" r="8"/><circle class="cls-1" cx="807.34" cy="310.5" r="8"/><circle class="cls-1" cx="409.54" cy="310.5" r="8"/><circle class="cls-1" cx="378.94" cy="310.5" r="8"/><circle class="cls-1" cx="348.34" cy="310.5" r="8"/><circle class="cls-1" cx="317.74" cy="310.5" r="8"/><circle class="cls-1" cx="287.14" cy="310.5" r="8"/><circle class="cls-1" cx="256.54" cy="310.5" r="8"/><circle class="cls-1" cx="225.94" cy="310.5" r="8"/><circle class="cls-1" cx="195.34" cy="310.5" r="8"/><circle class="cls-1" cx="164.74" cy="310.5" r="8"/><circle class="cls-1" cx="134.14" cy="310.5" r="8"/><circle class="cls-1" cx="103.54" cy="310.5" r="8"/><circle class="cls-1" cx="72.94" cy="310.5" r="8"/><circle class="cls-1" cx="837.94" cy="283" r="8"/><circle class="cls-1" cx="807.34" cy="283" r="8"/><circle class="cls-1" cx="470.74" cy="283" r="8"/><circle class="cls-1" cx="378.94" cy="283" r="8"/><circle class="cls-1" cx="348.34" cy="283" r="8"/><circle class="cls-1" cx="317.74" cy="283" r="8"/><circle class="cls-1" cx="287.14" cy="283" r="8"/><circle class="cls-1" cx="256.54" cy="283" r="8"/><circle class="cls-1" cx="225.94" cy="283" r="8"/><circle class="cls-1" cx="195.34" cy="283" r="8"/><circle class="cls-1" cx="164.74" cy="283" r="8"/><circle class="cls-1" cx="134.14" cy="283" r="8"/><circle class="cls-1" cx="103.54" cy="283" r="8"/><circle class="cls-1" cx="72.94" cy="283" r="8"/><circle class="cls-1" cx="837.94" cy="255.5" r="8"/><circle class="cls-1" cx="501.34" cy="255.5" r="8"/><circle class="cls-1" cx="470.74" cy="255.5" r="8"/><circle class="cls-1" cx="378.94" cy="255.5" r="8"/><circle class="cls-1" cx="348.34" cy="255.5" r="8"/><circle class="cls-1" cx="317.74" cy="255.5" r="8"/><circle class="cls-1" cx="287.14" cy="255.5" r="8"/><circle class="cls-1" cx="256.54" cy="255.5" r="8"/><circle class="cls-1" cx="225.94" cy="255.5" r="8"/><circle class="cls-1" cx="195.34" cy="255.5" r="8"/><circle class="cls-1" cx="164.74" cy="255.5" r="8"/><circle class="cls-1" cx="134.14" cy="255.5" r="8"/><circle class="cls-1" cx="103.54" cy="255.5" r="8"/><circle class="cls-1" cx="72.94" cy="255.5" r="8"/><circle class="cls-1" cx="501.34" cy="228" r="8"/><circle class="cls-1" cx="470.74" cy="228" r="8"/><circle class="cls-1" cx="378.94" cy="228" r="8"/><circle class="cls-1" cx="348.34" cy="228" r="8"/><circle class="cls-1" cx="317.74" cy="228" r="8"/><circle class="cls-1" cx="287.14" cy="228" r="8"/><circle class="cls-1" cx="256.54" cy="228" r="8"/><circle class="cls-1" cx="225.94" cy="228" r="8"/><circle class="cls-1" cx="195.34" cy="228" r="8"/><circle class="cls-1" cx="164.74" cy="228" r="8"/><circle class="cls-1" cx="134.14" cy="228" r="8"/><circle class="cls-1" cx="103.54" cy="228" r="8"/><circle class="cls-1" cx="72.94" cy="228" r="8"/><circle class="cls-1" cx="42.34" cy="228" r="8"/><circle class="cls-1" cx="409.54" cy="200.5" r="8"/><circle class="cls-1" cx="378.94" cy="200.5" r="8"/><circle class="cls-1" cx="348.34" cy="200.5" r="8"/><circle class="cls-1" cx="317.74" cy="200.5" r="8"/><circle class="cls-1" cx="287.14" cy="200.5" r="8"/><circle class="cls-1" cx="256.54" cy="200.5" r="8"/><circle class="cls-1" cx="225.94" cy="200.5" r="8"/><circle class="cls-1" cx="195.34" cy="200.5" r="8"/><circle class="cls-1" cx="164.74" cy="200.5" r="8"/><circle class="cls-1" cx="134.14" cy="200.5" r="8"/><circle class="cls-1" cx="103.54" cy="200.5" r="8"/><circle class="cls-1" cx="72.94" cy="200.5" r="8"/><circle class="cls-1" cx="42.34" cy="200.5" r="8"/><circle class="cls-1" cx="11.74" cy="200.5" r="8"/><circle class="cls-1" cx="409.54" cy="173" r="8"/><circle class="cls-1" cx="378.94" cy="173" r="8"/><circle class="cls-1" cx="348.34" cy="173" r="8"/><circle class="cls-1" cx="317.74" cy="173" r="8"/><circle class="cls-1" cx="287.14" cy="173" r="8"/><circle class="cls-1" cx="256.54" cy="173" r="8"/><circle class="cls-1" cx="195.34" cy="173" r="8"/><circle class="cls-1" cx="164.74" cy="173" r="8"/><circle class="cls-1" cx="134.14" cy="173" r="8"/><circle class="cls-1" cx="103.54" cy="173" r="8"/><circle class="cls-1" cx="72.94" cy="173" r="8"/><circle class="cls-1" cx="42.34" cy="173" r="8"/><circle class="cls-1" cx="11.74" cy="173" r="8"/><circle class="cls-1" cx="807.34" cy="145.5" r="8"/><circle class="cls-1" cx="776.74" cy="145.5" r="8"/><circle class="cls-1" cx="378.94" cy="145.5" r="8"/><circle class="cls-1" cx="348.34" cy="145.5" r="8"/><circle class="cls-1" cx="164.74" cy="145.5" r="8"/><circle class="cls-1" cx="134.14" cy="145.5" r="8"/><circle class="cls-1" cx="103.54" cy="145.5" r="8"/><circle class="cls-1" cx="72.94" cy="145.5" r="8"/><circle class="cls-1" cx="42.34" cy="145.5" r="8"/><circle class="cls-1" cx="11.74" cy="145.5" r="8"/><circle class="cls-1" cx="807.34" cy="118" r="8"/><circle class="cls-1" cx="776.74" cy="118" r="8"/><circle class="cls-1" cx="164.74" cy="118" r="8"/><circle class="cls-1" cx="134.14" cy="118" r="8"/><circle class="cls-1" cx="103.54" cy="118" r="8"/><circle class="cls-1" cx="72.94" cy="118" r="8"/><circle class="cls-1" cx="42.34" cy="118" r="8"/><circle class="cls-1" cx="807.34" cy="90.5" r="8"/><circle class="cls-1" cx="134.14" cy="90.5" r="8"/><circle class="cls-1" cx="103.54" cy="90.5" r="8"/><circle class="cls-1" cx="72.94" cy="90.5" r="8"/><circle class="cls-1" cx="164.74" cy="63" r="8"/><circle class="cls-1" cx="134.14" cy="63" r="8"/><circle class="cls-1" cx="103.54" cy="63" r="8"/><circle class="cls-1" cx="72.94" cy="63" r="8"/><circle class="cls-1" cx="164.74" cy="35.5" r="8"/><circle class="cls-1" cx="134.14" cy="35.5" r="8"/><circle class="cls-1" cx="103.54" cy="35.5" r="8"/><circle class="cls-1" cx="134.14" cy="8" r="8"/><circle class="cls-2" cx="458.25" cy="195.73" r="62"/><circle class="cls-3" cx="458.25" cy="195.73" r="45.48"/><circle class="cls-4" cx="458.25" cy="195.73" r="18.78"/><circle class="cls-5" cx="458.25" cy="195.73" r="10.17"/><circle class="cls-6" cx="876.83" cy="456" r="62"/><circle class="cls-7" cx="876.83" cy="456" r="45.48"/><circle class="cls-8" cx="876.83" cy="456" r="18.78"/><circle class="cls-9" cx="876.83" cy="456" r="10.17"/><circle class="cls-10" cx="638.75" cy="742.22" r="62"/><circle class="cls-11" cx="638.75" cy="742.22" r="45.48"/><circle class="cls-12" cx="638.75" cy="742.22" r="18.78"/><circle class="cls-13" cx="638.75" cy="742.22" r="10.17"/><circle class="cls-14" cx="673.02" cy="895.8" r="62"/><circle class="cls-15" cx="673.02" cy="895.8" r="45.48"/><circle class="cls-16" cx="673.02" cy="895.8" r="18.78"/><circle class="cls-17" cx="673.02" cy="895.8" r="10.17"/><circle class="cls-18" cx="346.71" cy="892.2" r="62"/><circle class="cls-19" cx="346.71" cy="892.2" r="45.48"/><circle class="cls-20" cx="346.71" cy="892.2" r="18.78"/><circle class="cls-21" cx="346.71" cy="892.2" r="10.17"/><circle class="cls-22" cx="336.58" cy="770.11" r="62"/><circle class="cls-23" cx="336.58" cy="770.11" r="45.48"/><circle class="cls-24" cx="336.58" cy="770.11" r="18.78"/><circle class="cls-25" cx="336.58" cy="770.11" r="10.17"/><circle class="cls-26" cx="389.58" cy="532.03" r="62"/><circle class="cls-27" cx="389.58" cy="532.03" r="45.48"/><circle class="cls-28" cx="389.58" cy="532.03" r="18.78"/><circle class="cls-29" cx="389.58" cy="532.03" r="10.17"/><circle class="cls-30" cx="324.01" cy="412.78" r="62"/><circle class="cls-31" cx="324.01" cy="412.78" r="45.48"/><circle class="cls-32" cx="324.01" cy="412.78" r="18.78"/><circle class="cls-33" cx="324.01" cy="412.78" r="10.17"/><circle class="cls-34" cx="384.31" cy="294.23" r="62"/><circle class="cls-35" cx="384.31" cy="294.23" r="45.48"/><circle class="cls-36" cx="384.31" cy="294.23" r="18.78"/><circle class="cls-37" cx="384.31" cy="294.23" r="10.17"/><circle class="cls-38" cx="187.02" cy="194.2" r="62"/><circle class="cls-39" cx="187.02" cy="194.2" r="45.48"/><circle class="cls-40" cx="187.02" cy="194.2" r="18.78"/><circle class="cls-41" cx="187.02" cy="194.2" r="10.17"/><path class="cls-42" d="M345.27,223.3h2.64l5.27,14.43,5.27-14.43h2.64l-6.66,17.48h-2.36Z" transform="translate(-68.91 -44.5)"/><path class="cls-42" d="M363.59,225.66v-2.5h2.5v2.5Zm.14,15v-13h2.36v13Z" transform="translate(-68.91 -44.5)"/><path class="cls-42" d="M369.69,234.26c0-4.58,1.94-6.94,5.69-6.94h0a5.24,5.24,0,0,1,4.16,1.67,6.1,6.1,0,0,1,1.53,4.57,7.9,7.9,0,0,1-.14,1.81h-9c.28,2.22,1.53,3.33,3.61,3.33a8.48,8.48,0,0,0,4.44-1V240a12.32,12.32,0,0,1-4.58.83h-.14a8.37,8.37,0,0,1-2.08-.28,6.3,6.3,0,0,1-1.94-1,4,4,0,0,1-1.39-2.08C369.83,236.76,369.69,235.65,369.69,234.26Zm2.36-.83h6.66a4,4,0,0,0-.28-1.25,4.73,4.73,0,0,0-.55-1.25,3.21,3.21,0,0,0-1-1,2.79,2.79,0,0,0-1.53-.42,2.88,2.88,0,0,0-2.36.83A5.76,5.76,0,0,0,372.05,233.43Z" transform="translate(-68.91 -44.5)"/><path class="cls-42" d="M382.73,229.68V227.6H385v-3.89h2.36v3.89h3.47v2.08h-3.47v7.49c0,1,.7,1.53,1.94,1.53h0a2.79,2.79,0,0,0,1.53-.42v2.22a4.22,4.22,0,0,1-1.8.42h0a2.31,2.31,0,0,1-1-.14l-1.25-.42a2.39,2.39,0,0,1-1.25-1.11,4.59,4.59,0,0,1-.42-2.08v-7.35h-2.36Z" transform="translate(-68.91 -44.5)"/><path class="cls-42" d="M394,240.64V228.71a13.2,13.2,0,0,1,5.55-1.39,5.72,5.72,0,0,1,3.89,1.25,4.51,4.51,0,0,1,1.38,3.61v8.46H402.3V232a2.36,2.36,0,0,0-.56-1.81,3.45,3.45,0,0,0-2.36-.69,10.71,10.71,0,0,0-3.05.42V240.5H394Z" transform="translate(-68.91 -44.5)"/><path class="cls-42" d="M407.85,236.62a3.5,3.5,0,0,1,1.66-3.06,8.45,8.45,0,0,1,4.44-1.11,12.59,12.59,0,0,1,2.36.14,3.43,3.43,0,0,0-.83-2.36,4.35,4.35,0,0,0-2.64-.69,12,12,0,0,0-3.61.69v-2.08a12.23,12.23,0,0,1,3.89-.69,5.07,5.07,0,0,1,5.69,5.41v3.75a1.76,1.76,0,0,1-.14.83,2.21,2.21,0,0,1-.42,1.11,7.63,7.63,0,0,1-.83,1.11,6.1,6.1,0,0,1-1.67.83,7.15,7.15,0,0,1-2.49.42,6.67,6.67,0,0,1-2.5-.42,9.58,9.58,0,0,1-1.67-.83,4.47,4.47,0,0,1-1.24-2.22Zm2.35-.14c0,1.52,1.11,2.22,3.2,2.22h0c1.94,0,2.91-.7,2.91-2.08v-2.08a11.11,11.11,0,0,0-2.22-.14,3,3,0,0,0-1.11.14,4,4,0,0,0-1.25.27,3,3,0,0,0-1.11.7A1.24,1.24,0,0,0,410.2,236.48Z" transform="translate(-68.91 -44.5)"/><path class="cls-42" d="M422.14,240.64V228.71a12.82,12.82,0,0,1,5.41-1.25,5.47,5.47,0,0,1,3.47,1,12,12,0,0,1,4.71-1,5.7,5.7,0,0,1,3.89,1.25,4.51,4.51,0,0,1,1.38,3.61v8.32h-2.35V232a2.56,2.56,0,0,0-.56-1.81,2.9,2.9,0,0,0-2.08-.69,10.45,10.45,0,0,0-3.47.69,7,7,0,0,1,.28,1.81v8.46h-2.36V232a2.4,2.4,0,0,0-.55-1.81,3.45,3.45,0,0,0-2.36-.69,10.52,10.52,0,0,0-2.92.42V240.5h-2.49Z" transform="translate(-68.91 -44.5)"/><path class="cls-42" d="M68.91,244v-17.2h2.63l5.69,7.49,5.69-7.49h2.63V244H83.2v-13.6l-5.83,7.77-6.11-7.77V244Z" transform="translate(-68.91 -44.5)"/><path class="cls-42" d="M88.47,231.07H91l3.46,9.71,3.47-9.71h2.5l-5.27,14.29c-1,2.49-2.22,3.74-4,3.74h0a8.43,8.43,0,0,1-1.8-.14v-2.08c.56.14,1,.14,1.39.28,1.11,0,1.94-1,2.63-2.91Z" transform="translate(-68.91 -44.5)"/><path class="cls-42" d="M101.93,240a3.66,3.66,0,0,1,1.66-3.06,8.1,8.1,0,0,1,4.44-1.11,13.36,13.36,0,0,1,2.36.14,3.08,3.08,0,0,0-.83-2.36,3.58,3.58,0,0,0-2.64-.69,12,12,0,0,0-3.61.69v-2.08a12.23,12.23,0,0,1,3.89-.69,5.61,5.61,0,0,1,4.16,1.39,5.33,5.33,0,0,1,1.53,4V240a1.76,1.76,0,0,1-.14.83c-.14.28-.14.55-.42,1.11a3.3,3.3,0,0,1-.83,1.11,7.5,7.5,0,0,1-1.53.83,7.4,7.4,0,0,1-2.63.42,6.67,6.67,0,0,1-2.5-.42,9.58,9.58,0,0,1-1.67-.83,4.47,4.47,0,0,1-1.24-2.22Zm2.35,0c0,1.38,1,2.22,3.06,2.22h0c1.94,0,2.91-.7,2.91-2.08V238a11.21,11.21,0,0,0-2.22-.13,3.67,3.67,0,0,0-1.11.13,4,4,0,0,0-1.25.28,3.09,3.09,0,0,0-1.11.7A1.57,1.57,0,0,0,104.28,240Z" transform="translate(-68.91 -44.5)"/><path class="cls-42" d="M116.08,244V232.18a13,13,0,0,1,5.55-1.39,5.69,5.69,0,0,1,3.88,1.25,4.41,4.41,0,0,1,1.39,3.47v8.32h-2.36v-8.46a2.6,2.6,0,0,0-.55-1.81,3.21,3.21,0,0,0-2.36-.69,10.83,10.83,0,0,0-3.06.42v10.4h-2.49Z" transform="translate(-68.91 -44.5)"/><path class="cls-42" d="M131.06,244V232.18a11.85,11.85,0,0,1,5.41-1.25,5.7,5.7,0,0,1,3.47,1,12,12,0,0,1,4.72-1,5,5,0,0,1,3.74,1.25,4.51,4.51,0,0,1,1.39,3.6v8.33h-2.36v-8.46a2.6,2.6,0,0,0-.55-1.81,2.9,2.9,0,0,0-2.08-.69,11.18,11.18,0,0,0-3.47.69,7,7,0,0,1,.28,1.81v8.46h-2.36v-8.46a2.56,2.56,0,0,0-.56-1.81,3.43,3.43,0,0,0-2.36-.69,9.83,9.83,0,0,0-2.77.41V244Z" transform="translate(-68.91 -44.5)"/><path class="cls-42" d="M152.7,240a3.68,3.68,0,0,1,1.67-3.06,8.1,8.1,0,0,1,4.44-1.11,13.36,13.36,0,0,1,2.36.14,3.08,3.08,0,0,0-.83-2.36,3.58,3.58,0,0,0-2.64-.69,12,12,0,0,0-3.61.69v-2.08a12.23,12.23,0,0,1,3.89-.69,5.61,5.61,0,0,1,4.16,1.39,5.33,5.33,0,0,1,1.53,4V240a1.76,1.76,0,0,1-.14.83,2.77,2.77,0,0,1-.42,1.11,3.3,3.3,0,0,1-.83,1.11,7.5,7.5,0,0,1-1.53.83,6.81,6.81,0,0,1-2.5.28,6.62,6.62,0,0,1-2.49-.42,8.62,8.62,0,0,1-1.67-.83,4.6,4.6,0,0,1-1.25-2.22A6.28,6.28,0,0,1,152.7,240Zm2.36,0c0,1.38,1,2.22,3.06,2.22h0c1.94,0,2.91-.7,2.91-2.08V238a11.26,11.26,0,0,0-2.22-.13,3.67,3.67,0,0,0-1.11.13,4,4,0,0,0-1.25.28,3,3,0,0,0-1.11.7A1.57,1.57,0,0,0,155.06,240Z" transform="translate(-68.91 -44.5)"/><path class="cls-42" d="M166.86,244V232.18a17.09,17.09,0,0,1,6.24-1.25v2.22a12.75,12.75,0,0,0-3.89.55v10.41h-2.35Z" transform="translate(-68.91 -44.5)"/><path class="cls-43" d="M319.75,347.47V330h2.49v15.12h8.61v2.22h-11.1Z" transform="translate(-68.91 -44.5)"/><path class="cls-43" d="M332.79,343.31a3.5,3.5,0,0,1,1.66-3.06,8.45,8.45,0,0,1,4.44-1.11,12.59,12.59,0,0,1,2.36.14,3.38,3.38,0,0,0-.83-2.35,4.28,4.28,0,0,0-2.64-.7,11.62,11.62,0,0,0-3.6.7v-2.09a12.12,12.12,0,0,1,3.88-.69,5.07,5.07,0,0,1,5.69,5.41v3.75a1.76,1.76,0,0,1-.14.83,2.21,2.21,0,0,1-.42,1.11,7,7,0,0,1-.83,1.11,6.16,6.16,0,0,1-1.66.83,7.25,7.25,0,0,1-2.5.42,6.71,6.71,0,0,1-2.5-.42,9.1,9.1,0,0,1-1.66-.83,2.15,2.15,0,0,1-.84-1.11,2.27,2.27,0,0,1-.41-1.11Zm2.36,0c0,1.52,1.11,2.22,3.19,2.22h0c1.94,0,2.91-.7,2.91-2.08v-2.09a12,12,0,0,0-2.22-.13,3.25,3.25,0,0,0-1.11.13,4.09,4.09,0,0,0-1.25.28,3.09,3.09,0,0,0-1.11.7A1.08,1.08,0,0,0,335.15,343.31Z" transform="translate(-68.91 -44.5)"/><path class="cls-43" d="M346.66,344.28a8.5,8.5,0,0,1-.55-3.33,7.66,7.66,0,0,1,.55-3.33,4.07,4.07,0,0,1,1.53-2.08,6.3,6.3,0,0,1,1.94-1,8.94,8.94,0,0,1,4.44,0,6.3,6.3,0,0,1,1.94,1,4.07,4.07,0,0,1,1.53,2.08,8.5,8.5,0,0,1,.55,3.33,7.66,7.66,0,0,1-.55,3.33,4.11,4.11,0,0,1-1.53,2.08,6.3,6.3,0,0,1-1.94,1,8.94,8.94,0,0,1-4.44,0,6.3,6.3,0,0,1-1.94-1A4.11,4.11,0,0,1,346.66,344.28Zm2.22-5.69a10.9,10.9,0,0,0-.28,2.36,9.93,9.93,0,0,0,.28,2.36,2,2,0,0,0,.83,1.38,2.79,2.79,0,0,0,1.11.56,7,7,0,0,0,2.78,0,2.77,2.77,0,0,0,1.11-.56,2.37,2.37,0,0,0,.83-1.38,11,11,0,0,0,.28-2.36,9.86,9.86,0,0,0-.28-2.36,2,2,0,0,0-.83-1.39,2.82,2.82,0,0,0-1.11-.55,7,7,0,0,0-2.78,0,3,3,0,0,0-1.11.55A2,2,0,0,0,348.88,338.59Z" transform="translate(-68.91 -44.5)"/><path class="cls-43" d="M361,338.17a4.13,4.13,0,0,1,1.11-2.77,5.2,5.2,0,0,1,3.47-1.11,8,8,0,0,1,3.47.83v2.08a7.35,7.35,0,0,0-3.19-.83c-1.67,0-2.64.56-2.64,1.67,0,.41.28.69.7,1a10.85,10.85,0,0,0,1.66.69,11.56,11.56,0,0,1,1.94.69,3.85,3.85,0,0,1,1.67,1.25,3.9,3.9,0,0,1,.69,2.22,3.73,3.73,0,0,1-1.25,2.78,5.34,5.34,0,0,1-3.6,1.11,6.91,6.91,0,0,1-3.75-1v-2.22a6.76,6.76,0,0,0,3.61,1h0a3.65,3.65,0,0,0,1.94-.42,1.4,1.4,0,0,0,.69-1.11,1.46,1.46,0,0,0-.69-1.25,9.23,9.23,0,0,0-1.67-.83c-.69-.14-1.24-.42-1.94-.56a3.42,3.42,0,0,1-1.66-1.11A5.71,5.71,0,0,1,361,338.17Z" transform="translate(-68.91 -44.5)"/><path class="cls-43" d="M212.36,447.64v-2.22h14.15v2.22h-5.82v15.12h-2.5V447.64Z" transform="translate(-68.91 -44.5)"/><path class="cls-43" d="M229,462.76v-18h2.36v5.41a9.59,9.59,0,0,1,3.47-.7,4.63,4.63,0,0,1,3.74,1.39A6.2,6.2,0,0,1,240,455v7.63h-2.5v-7.77a3,3,0,0,0-.83-2.49,3.38,3.38,0,0,0-2.08-.7,8.74,8.74,0,0,0-3.19.7v10.4Z" transform="translate(-68.91 -44.5)"/><path class="cls-43" d="M242.89,458.6a3.47,3.47,0,0,1,1.66-3.05,8.35,8.35,0,0,1,4.44-1.11,12.64,12.64,0,0,1,2.36.14,3.41,3.41,0,0,0-.83-2.36,4,4,0,0,0-2.64-.7,11.74,11.74,0,0,0-3.61.7v-2.08a12,12,0,0,1,3.89-.7,5.07,5.07,0,0,1,5.69,5.41v3.75a1.74,1.74,0,0,1-.14.83,2.17,2.17,0,0,1-.42,1.11,7.63,7.63,0,0,1-.83,1.11,5.82,5.82,0,0,1-1.67.83,7.62,7.62,0,0,1-5,0,8.62,8.62,0,0,1-1.67-.83,4.6,4.6,0,0,1-1.25-2.22C242.89,459.15,242.89,458.88,242.89,458.6Zm2.35,0c0,1.53,1.11,2.22,3.19,2.22h0c1.95,0,2.92-.69,2.92-2.08v-2.08a11.16,11.16,0,0,0-2.22-.14,3,3,0,0,0-1.11.14,4.31,4.31,0,0,0-1.25.27,3,3,0,0,0-1.11.7A1.07,1.07,0,0,0,245.24,458.6Z" transform="translate(-68.91 -44.5)"/><path class="cls-43" d="M257.45,447.64v-2.5H260v2.5Zm0,15.12v-13h2.36v13Z" transform="translate(-68.91 -44.5)"/><path class="cls-43" d="M264.25,462.76v-18h2.36v18Z" transform="translate(-68.91 -44.5)"/><path class="cls-43" d="M270.08,458.6a3.47,3.47,0,0,1,1.66-3.05,8.35,8.35,0,0,1,4.44-1.11,12.59,12.59,0,0,1,2.36.14,3.41,3.41,0,0,0-.83-2.36,4,4,0,0,0-2.64-.7,11.62,11.62,0,0,0-3.6.7v-2.08a11.86,11.86,0,0,1,3.88-.7,5.07,5.07,0,0,1,5.69,5.41v3.75a1.74,1.74,0,0,1-.14.83,5.48,5.48,0,0,1-.42,1.11,7,7,0,0,1-.83,1.11,5.88,5.88,0,0,1-1.66.83,7.65,7.65,0,0,1-5,0,8.5,8.5,0,0,1-1.66-.83,2.15,2.15,0,0,1-.84-1.11,2.24,2.24,0,0,1-.41-1.11Zm2.36,0c0,1.53,1.11,2.22,3.19,2.22h0c1.94,0,2.91-.69,2.91-2.08v-2.08a11.11,11.11,0,0,0-2.22-.14,3,3,0,0,0-1.11.14,4.31,4.31,0,0,0-1.25.27,3.09,3.09,0,0,0-1.11.7A1.09,1.09,0,0,0,272.44,458.6Z" transform="translate(-68.91 -44.5)"/><path class="cls-43" d="M284.51,462.76V450.83a13.12,13.12,0,0,1,5.55-1.39,5.69,5.69,0,0,1,3.88,1.25,4.52,4.52,0,0,1,1.39,3.61v8.46h-2.5v-8.6a2.36,2.36,0,0,0-.55-1.8,3.4,3.4,0,0,0-2.36-.7,10.71,10.71,0,0,0-3.05.42v10.54h-2.36Z" transform="translate(-68.91 -44.5)"/><path class="cls-43" d="M298.52,456.1a8.5,8.5,0,0,1,.55-3.33,4.9,4.9,0,0,1,1.53-2.08,5.14,5.14,0,0,1,1.94-1,10.71,10.71,0,0,1,2.08-.28,9.52,9.52,0,0,1,2.78.42v-5.13h2.36v14a1.74,1.74,0,0,1-.14.83,2.21,2.21,0,0,1-.42,1.11,3.3,3.3,0,0,1-.83,1.11,7,7,0,0,1-1.53.83,6.62,6.62,0,0,1-2.49.42,4.25,4.25,0,0,1-1.39-.14,11.69,11.69,0,0,1-1.53-.55,5.57,5.57,0,0,1-1.38-1.11,5.06,5.06,0,0,1-1-1.95A8.72,8.72,0,0,1,298.52,456.1Zm2.36,0a12.34,12.34,0,0,0,.28,2.5A2,2,0,0,0,302,460c.41.27.69.55,1.11.55a3.39,3.39,0,0,0,1.25.14c1.94,0,3-.69,3-1.94v-6.66a6.15,6.15,0,0,0-2.78-.56,4.19,4.19,0,0,0-1.38.14,4,4,0,0,0-1.11.56,2,2,0,0,0-.84,1.38A6.93,6.93,0,0,0,300.88,456.1Z" transform="translate(-68.91 -44.5)"/><path class="cls-43" d="M262.45,578.33a16.91,16.91,0,0,1,0-7.49,6.56,6.56,0,0,1,1.25-2.64,6.13,6.13,0,0,1,1.8-1.52,7.21,7.21,0,0,1,2.22-.84,12.73,12.73,0,0,1,2.22-.13,13.54,13.54,0,0,1,5.27,1v2.22a12.87,12.87,0,0,0-5-1.11c-2.08,0-3.61.55-4.44,1.52s-1.39,2.78-1.39,5.14.42,4,1.39,5.13a5.46,5.46,0,0,0,4.44,1.66,12.34,12.34,0,0,0,5-1.11v2.22a14.24,14.24,0,0,1-5.27,1.11,12,12,0,0,1-2.22-.13,8.84,8.84,0,0,1-2.22-.84,6.48,6.48,0,0,1-1.8-1.52A22.77,22.77,0,0,1,262.45,578.33Z" transform="translate(-68.91 -44.5)"/><path class="cls-43" d="M278.26,579.16a3.48,3.48,0,0,1,1.67-3,8.42,8.42,0,0,1,4.44-1.11,12.64,12.64,0,0,1,2.36.14,3.38,3.38,0,0,0-.84-2.36,4.3,4.3,0,0,0-2.63-.69,12,12,0,0,0-3.61.69V570.7a12,12,0,0,1,3.89-.69,5,5,0,0,1,5.68,5.41v3.74a1.9,1.9,0,0,1-.13.84,2.24,2.24,0,0,1-.42,1.11,9.15,9.15,0,0,1-.83,1.11,6.57,6.57,0,0,1-1.67.83,7.8,7.8,0,0,1-5,0,9.94,9.94,0,0,1-1.67-.83,4.6,4.6,0,0,1-1.25-2.22Zm2.36-.14c0,1.53,1.11,2.22,3.19,2.22h0c1.95,0,2.92-.69,2.92-2.08v-2.08a11.16,11.16,0,0,0-2.22-.14,3,3,0,0,0-1.11.14,4,4,0,0,0-1.25.28,3.12,3.12,0,0,0-1.11.69A1.26,1.26,0,0,0,280.62,579Z" transform="translate(-68.91 -44.5)"/><path class="cls-43" d="M292.69,583.19V571.26A12.74,12.74,0,0,1,298.1,570a5.37,5.37,0,0,1,3.47,1,11.87,11.87,0,0,1,4.72-1,5.64,5.64,0,0,1,3.88,1.25,4.51,4.51,0,0,1,1.39,3.6v8.33H309.2v-8.6a2.6,2.6,0,0,0-.55-1.81,2.9,2.9,0,0,0-2.08-.69,10.45,10.45,0,0,0-3.47.69,7,7,0,0,1,.28,1.81v8.46H301v-8.46a2.35,2.35,0,0,0-.56-1.81,3.43,3.43,0,0,0-2.36-.69,10.82,10.82,0,0,0-2.91.41v10.55h-2.5Z" transform="translate(-68.91 -44.5)"/><path class="cls-43" d="M315.45,579.16v-14h2.35v5.13a9.25,9.25,0,0,1,2.78-.41,10.61,10.61,0,0,1,2.08.28,6.08,6.08,0,0,1,1.94,1A3.91,3.91,0,0,1,326,573.2a7.91,7.91,0,0,1,.55,3.33,10.05,10.05,0,0,1-.41,3.05,5.15,5.15,0,0,1-1,1.94,5.57,5.57,0,0,1-1.39,1.11,4.11,4.11,0,0,1-1.53.56,4.63,4.63,0,0,1-1.38.14,6.67,6.67,0,0,1-2.5-.42,10.34,10.34,0,0,1-1.67-.83,2.23,2.23,0,0,1-.83-1.11,5.2,5.2,0,0,1-.41-1.11C315.31,579.58,315.45,579.44,315.45,579.16Zm2.35.14c0,1.25,1,1.94,3.06,1.94a3.45,3.45,0,0,0,2.35-.69,2.33,2.33,0,0,0,.84-1.53,12.3,12.3,0,0,0,.27-2.49,11,11,0,0,0-.27-2.36,2.35,2.35,0,0,0-.84-1.39,4,4,0,0,0-1.11-.55,4.19,4.19,0,0,0-1.38-.14,6.34,6.34,0,0,0-2.78.55v6.66Z" transform="translate(-68.91 -44.5)"/><path class="cls-43" d="M329.6,580.13a8.32,8.32,0,0,1-.56-3.33,7.49,7.49,0,0,1,.56-3.32,4.08,4.08,0,0,1,1.52-2.09,6.57,6.57,0,0,1,1.95-1,10.62,10.62,0,0,1,2.22-.27,10.79,10.79,0,0,1,2.22.27,6.65,6.65,0,0,1,1.94,1,4.08,4.08,0,0,1,1.52,2.09,8.3,8.3,0,0,1,.56,3.32,7.51,7.51,0,0,1-.56,3.33,4.08,4.08,0,0,1-1.52,2.09,6.65,6.65,0,0,1-1.94,1,10.79,10.79,0,0,1-2.22.27,10.62,10.62,0,0,1-2.22-.27,6.57,6.57,0,0,1-1.95-1A4.51,4.51,0,0,1,329.6,580.13Zm2.08-5.82a10.82,10.82,0,0,0-.28,2.36,9.77,9.77,0,0,0,.28,2.35,2,2,0,0,0,.83,1.39,2.73,2.73,0,0,0,1.11.56,7,7,0,0,0,2.78,0,2.84,2.84,0,0,0,1.11-.56,2.39,2.39,0,0,0,.83-1.39,10.86,10.86,0,0,0,.27-2.35,9.87,9.87,0,0,0-.27-2.36,2,2,0,0,0-.83-1.39,2.74,2.74,0,0,0-1.11-.55,7,7,0,0,0-2.78,0,2.64,2.64,0,0,0-1.11.55A6,6,0,0,0,331.68,574.31Z" transform="translate(-68.91 -44.5)"/><path class="cls-43" d="M343.89,576.53a8.5,8.5,0,0,1,.55-3.33,4.76,4.76,0,0,1,1.53-2.08,4.93,4.93,0,0,1,1.94-1,10.61,10.61,0,0,1,2.08-.28,9.9,9.9,0,0,1,2.78.41v-5.13h2.35v14a1.9,1.9,0,0,1-.13.84,2.24,2.24,0,0,1-.42,1.11,3.55,3.55,0,0,1-.83,1.11,8,8,0,0,1-1.53.83,6.65,6.65,0,0,1-2.5.41,4.5,4.5,0,0,1-1.38-.13,10.56,10.56,0,0,1-1.53-.56,5.57,5.57,0,0,1-1.39-1.11,5.23,5.23,0,0,1-1-1.94A8.24,8.24,0,0,1,343.89,576.53Zm2.36,0a12.3,12.3,0,0,0,.27,2.49,2,2,0,0,0,.84,1.39c.41.28.69.56,1.11.56a3.36,3.36,0,0,0,1.24.14c2,0,3.06-.7,3.06-2V572.5A6.34,6.34,0,0,0,350,572a4.28,4.28,0,0,0-1.39.14,4.58,4.58,0,0,0-1.11.55,2,2,0,0,0-.83,1.39A7.21,7.21,0,0,0,346.25,576.53Z" transform="translate(-68.91 -44.5)"/><path class="cls-43" d="M358.87,568.2v-2.49h2.5v2.49Zm0,15v-13h2.36v13Z" transform="translate(-68.91 -44.5)"/><path class="cls-43" d="M364.7,579.16a3.47,3.47,0,0,1,1.66-3A8.45,8.45,0,0,1,370.8,575a12.59,12.59,0,0,1,2.36.14,3.43,3.43,0,0,0-.83-2.36,4.35,4.35,0,0,0-2.64-.69,11.89,11.89,0,0,0-3.6.69V570.7A11.85,11.85,0,0,1,370,570a5.06,5.06,0,0,1,5.69,5.41v3.74a1.78,1.78,0,0,1-.14.84,2.24,2.24,0,0,1-.42,1.11,7.45,7.45,0,0,1-.83,1.11,6.47,6.47,0,0,1-1.66.83,7.83,7.83,0,0,1-5,0,9.79,9.79,0,0,1-1.66-.83,2.19,2.19,0,0,1-.84-1.11,2.31,2.31,0,0,1-.41-1.11Zm2.36-.14c0,1.53,1.11,2.22,3.19,2.22h0c1.94,0,2.91-.69,2.91-2.08v-2.08a11.11,11.11,0,0,0-2.22-.14,3,3,0,0,0-1.11.14,4,4,0,0,0-1.25.28,3.21,3.21,0,0,0-1.11.69A1.29,1.29,0,0,0,367.06,579Z" transform="translate(-68.91 -44.5)"/><path class="cls-42" d="M737.35,504.38V487h6.24a6.09,6.09,0,0,1,4.44,1.39,5.65,5.65,0,0,1,1.67,4,5.12,5.12,0,0,1-1.67,4,6.27,6.27,0,0,1-4.44,1.39h-3.88v6.52Zm2.36-8.6h3.61c1.52,0,2.63-.28,3-.83a3.77,3.77,0,0,0,0-4.72,4.27,4.27,0,0,0-3-.83h-3.61Z" transform="translate(-68.91 -44.5)"/><path class="cls-42" d="M752.75,504.38v-18h2.36v5.41a9.59,9.59,0,0,1,3.47-.7,4.63,4.63,0,0,1,3.74,1.39,6.2,6.2,0,0,1,1.39,4.16v7.63h-2.5v-7.77a3,3,0,0,0-.83-2.49,3.38,3.38,0,0,0-2.08-.7,8.74,8.74,0,0,0-3.19.7v10.4Z" transform="translate(-68.91 -44.5)"/><path class="cls-42" d="M767.6,489.4v-2.5h2.49v2.5Zm0,15v-13H770v13Z" transform="translate(-68.91 -44.5)"/><path class="cls-42" d="M774.39,504.38v-18h2.36v18Z" transform="translate(-68.91 -44.5)"/><path class="cls-42" d="M781.05,489.4v-2.5h2.5v2.5Zm.14,15v-13h2.36v13Z" transform="translate(-68.91 -44.5)"/><path class="cls-42" d="M787.85,509.38v-14a1.78,1.78,0,0,1,.14-.84,2.24,2.24,0,0,1,.42-1.11,7.45,7.45,0,0,1,.83-1.11,6.47,6.47,0,0,1,1.66-.83,6.71,6.71,0,0,1,2.5-.42,4.7,4.7,0,0,1,1.39.14,10.48,10.48,0,0,1,1.52.56,5.23,5.23,0,0,1,1.39,1.11,4.88,4.88,0,0,1,1,1.94,9.42,9.42,0,0,1,.42,3.05,8.32,8.32,0,0,1-.56,3.33,4.75,4.75,0,0,1-1.52,2.08,8.19,8.19,0,0,1-1.94,1,5.37,5.37,0,0,1-2.08.28,9.15,9.15,0,0,1-2.78-.41v5.13h-2.36Zm2.36-7.36a6.55,6.55,0,0,0,2.78.56,4.19,4.19,0,0,0,1.38-.14,4.25,4.25,0,0,0,1.11-.55,2,2,0,0,0,.83-1.39,9.93,9.93,0,0,0,.28-2.36,12.43,12.43,0,0,0-.28-2.5,2.64,2.64,0,0,0-.83-1.52,2.4,2.4,0,0,0-1.11-.7,3.39,3.39,0,0,0-1.25-.14c-1.94,0-3,.7-3,2V502Z" transform="translate(-68.91 -44.5)"/><path class="cls-42" d="M802.14,509.38v-14a1.78,1.78,0,0,1,.14-.84,2.24,2.24,0,0,1,.42-1.11,7.45,7.45,0,0,1,.83-1.11,6.47,6.47,0,0,1,1.66-.83,6.71,6.71,0,0,1,2.5-.42,4.7,4.7,0,0,1,1.39.14,10.07,10.07,0,0,1,1.52.56,5.23,5.23,0,0,1,1.39,1.11,4.88,4.88,0,0,1,1,1.94,9.42,9.42,0,0,1,.42,3.05,8.32,8.32,0,0,1-.56,3.33,4.75,4.75,0,0,1-1.52,2.08,8.19,8.19,0,0,1-1.94,1,5.37,5.37,0,0,1-2.08.28,9.15,9.15,0,0,1-2.78-.41v5.13h-2.36ZM804.5,502a6.55,6.55,0,0,0,2.78.56,4.19,4.19,0,0,0,1.38-.14,4.25,4.25,0,0,0,1.11-.55,2,2,0,0,0,.84-1.39,11.72,11.72,0,0,0,.27-2.36,13.27,13.27,0,0,0-.27-2.5,2.71,2.71,0,0,0-.84-1.52,4.66,4.66,0,0,0-1.11-.7,3.39,3.39,0,0,0-1.25-.14c-1.94,0-3,.7-3,2V502Z" transform="translate(-68.91 -44.5)"/><path class="cls-42" d="M816.71,489.4v-2.5h2.5v2.5Zm0,15v-13h2.36v13Z" transform="translate(-68.91 -44.5)"/><path class="cls-42" d="M823.37,504.38V492.45a13.16,13.16,0,0,1,5.55-1.39,5.69,5.69,0,0,1,3.88,1.25,4.53,4.53,0,0,1,1.39,3.61v8.46h-2.5v-8.6a2.36,2.36,0,0,0-.55-1.8,3.4,3.4,0,0,0-2.36-.7,10.71,10.71,0,0,0-3,.42v10.54h-2.36Z" transform="translate(-68.91 -44.5)"/><path class="cls-42" d="M837.52,498c0-4.58,1.94-6.94,5.69-6.94h0a5.24,5.24,0,0,1,4.16,1.67,6.13,6.13,0,0,1,1.53,4.58,7.81,7.81,0,0,1-.14,1.8h-8.88c.28,2.22,1.53,3.33,3.61,3.33a8.48,8.48,0,0,0,4.44-1v2.22a12.36,12.36,0,0,1-4.58.83h-.14a8.3,8.3,0,0,1-2.08-.28,6,6,0,0,1-1.94-1,3.91,3.91,0,0,1-1.39-2.08A16.63,16.63,0,0,1,837.52,498Zm2.36-.83h6.66a4,4,0,0,0-.28-1.25,5.24,5.24,0,0,0-.55-1.25,3.36,3.36,0,0,0-1-1,2.75,2.75,0,0,0-1.52-.42,2.85,2.85,0,0,0-2.36.84A6.47,6.47,0,0,0,839.88,497.17Z" transform="translate(-68.91 -44.5)"/><path class="cls-42" d="M851.53,495.09a4.17,4.17,0,0,1,1.11-2.78,5.24,5.24,0,0,1,3.47-1.11,7.47,7.47,0,0,1,3.47.84v2.08a7.24,7.24,0,0,0-3.19-.84c-1.67,0-2.64.56-2.64,1.67,0,.42.28.69.7,1a9.15,9.15,0,0,0,1.66.69,10.52,10.52,0,0,1,1.94.7,3.7,3.7,0,0,1,1.67,1.25,3.85,3.85,0,0,1,.69,2.22,3.66,3.66,0,0,1-1.25,2.77,5.34,5.34,0,0,1-3.6,1.11,6.91,6.91,0,0,1-3.75-1v-2.22a6.76,6.76,0,0,0,3.61,1h0a3.65,3.65,0,0,0,1.94-.42,1.38,1.38,0,0,0,.69-1.11,1.43,1.43,0,0,0-.69-1.24,9.4,9.4,0,0,0-1.66-.84c-.7-.14-1.25-.41-2-.55a3.57,3.57,0,0,1-1.66-1.11A3.33,3.33,0,0,1,851.53,495.09Z" transform="translate(-68.91 -44.5)"/><path class="cls-42" d="M551.72,788.94V771.46h6a9.56,9.56,0,0,1,3.06.41,3.59,3.59,0,0,1,1.8,1.25,3.72,3.72,0,0,1,.69,1.53,4.9,4.9,0,0,1,.28,1.52,4.08,4.08,0,0,1-.28,1.39c-.14.42-.27.83-.55,1s-.42.42-.56.7a1.83,1.83,0,0,0-.55.41l-.14.14.28.14a1.29,1.29,0,0,1,.69.41,5.81,5.81,0,0,1,1,.7,3,3,0,0,1,.7,1.11,3.59,3.59,0,0,1,.27,1.66,7.46,7.46,0,0,1-.27,1.67,4.13,4.13,0,0,1-.84,1.52,3.32,3.32,0,0,1-1.94,1.25,10.36,10.36,0,0,1-3.19.42h-6.38Zm2.5-10.13h3.6a4.16,4.16,0,0,0,2.5-.56,2.27,2.27,0,0,0,.83-2.08,2.45,2.45,0,0,0-.83-2.08,4.74,4.74,0,0,0-2.64-.55h-3.33v5.27Zm0,7.91h3.88a5.76,5.76,0,0,0,3-.7,2.41,2.41,0,0,0,1-2.22,2.36,2.36,0,0,0-1.11-2.22,6.38,6.38,0,0,0-3-.55h-3.74Z" transform="translate(-68.91 -44.5)"/><path class="cls-42" d="M567.53,788.94V777a17.85,17.85,0,0,1,6.39-1.25V778a14.29,14.29,0,0,0-4,.55v10.55h-2.36Z" transform="translate(-68.91 -44.5)"/><path class="cls-42" d="M576.41,783.39V775.9h2.36v7.76a4.26,4.26,0,0,0,.7,2.64,3.76,3.76,0,0,0,4.71,0,3.52,3.52,0,0,0,.7-2.64V775.9h2.36v7.49a5.07,5.07,0,0,1-5.42,5.69,5.33,5.33,0,0,1-4-1.53A5.61,5.61,0,0,1,576.41,783.39Z" transform="translate(-68.91 -44.5)"/><path class="cls-42" d="M591.26,788.94V777a13,13,0,0,1,5.55-1.39,5.64,5.64,0,0,1,3.88,1.25,4.51,4.51,0,0,1,1.39,3.6v8.47h-2.5v-8.61a2.38,2.38,0,0,0-.55-1.8,3.45,3.45,0,0,0-2.36-.69,11.08,11.08,0,0,0-3,.41V788.8h-2.36Z" transform="translate(-68.91 -44.5)"/><path class="cls-42" d="M605.27,782.55c0-4.57,1.94-6.93,5.69-6.93h0a5.23,5.23,0,0,1,4.16,1.66,6.13,6.13,0,0,1,1.53,4.58,7.77,7.77,0,0,1-.14,1.8h-9c.28,2.22,1.53,3.33,3.61,3.33a8.38,8.38,0,0,0,4.44-1v2.22a12.16,12.16,0,0,1-4.58.84h-.14a8.3,8.3,0,0,1-2.08-.28,8.53,8.53,0,0,1-1.94-1,4,4,0,0,1-1.39-2.08C605.41,784.91,605.27,783.8,605.27,782.55Zm2.5-1h6.66a4.09,4.09,0,0,0-.28-1.25,5.18,5.18,0,0,0-.55-1.24,3.13,3.13,0,0,0-1-1,2.75,2.75,0,0,0-1.52-.42,2.88,2.88,0,0,0-2.36.83A4.7,4.7,0,0,0,607.77,781.58Z" transform="translate(-68.91 -44.5)"/><path class="cls-42" d="M620,773.81v-2.49h2.49v2.49Zm.14,15.13v-13h2.35v13Z" transform="translate(-68.91 -44.5)"/><path class="cls-42" d="M217.63,822.1V804.61h2.64l5.69,7.5,5.69-7.5h2.63V822.1h-2.49V808.36l-6,7.77-6-7.77V822.1Z" transform="translate(-68.91 -44.5)"/><path class="cls-42" d="M237.89,817.93a3.48,3.48,0,0,1,1.67-3,8.41,8.41,0,0,1,4.43-1.11,12.54,12.54,0,0,1,2.36.14,3.38,3.38,0,0,0-.83-2.36,4,4,0,0,0-2.63-.69,12,12,0,0,0-3.61.69v-2.08a12,12,0,0,1,3.88-.69,5.06,5.06,0,0,1,5.69,5.41v3.74a1.78,1.78,0,0,1-.14.84,2.31,2.31,0,0,1-.41,1.11,8.22,8.22,0,0,1-.84,1.11,6.3,6.3,0,0,1-1.66.83,7.21,7.21,0,0,1-2.5.41,6.72,6.72,0,0,1-2.5-.41,10.19,10.19,0,0,1-1.66-.83,2.17,2.17,0,0,1-.83-1.11,2.24,2.24,0,0,1-.42-1.11Zm2.36,0c0,1.53,1.11,2.22,3.19,2.22h0c1.94,0,2.91-.69,2.91-2.08v-2.22a11.06,11.06,0,0,0-2.22-.14,3.06,3.06,0,0,0-1.11.14,4,4,0,0,0-1.24.28,3,3,0,0,0-1.11.69A1.58,1.58,0,0,0,240.25,817.93Z" transform="translate(-68.91 -44.5)"/><path class="cls-42" d="M252.32,822.1v-18h2.36v18Z" transform="translate(-68.91 -44.5)"/><path class="cls-42" d="M258.15,817.93a3.47,3.47,0,0,1,1.66-3,8.45,8.45,0,0,1,4.44-1.11,12.59,12.59,0,0,1,2.36.14,3.43,3.43,0,0,0-.83-2.36,4.06,4.06,0,0,0-2.64-.69,12,12,0,0,0-3.61.69v-2.08a12,12,0,0,1,3.89-.69,5.06,5.06,0,0,1,5.69,5.41v3.74a1.78,1.78,0,0,1-.14.84,6,6,0,0,1-.42,1.11,8.21,8.21,0,0,1-.83,1.11,6.4,6.4,0,0,1-1.67.83,7.15,7.15,0,0,1-2.49.41,6.68,6.68,0,0,1-2.5-.41,10.34,10.34,0,0,1-1.67-.83,2.23,2.23,0,0,1-.83-1.11,2.31,2.31,0,0,1-.41-1.11Zm2.35,0c0,1.53,1.11,2.22,3.2,2.22h0c1.94,0,2.91-.69,2.91-2.08v-2.22a11.11,11.11,0,0,0-2.22-.14,3,3,0,0,0-1.11.14,4,4,0,0,0-1.25.28,3.12,3.12,0,0,0-1.11.69A1.58,1.58,0,0,0,260.5,817.93Z" transform="translate(-68.91 -44.5)"/><path class="cls-42" d="M270.77,809.05h2.5l3.47,9.72,3.47-9.72h2.49l-5.41,14.43c-1,2.5-2.22,3.75-4,3.75h0a7.77,7.77,0,0,1-1.8-.14v-2.22a5.81,5.81,0,0,0,1.52.28c1.11,0,1.94-1,2.64-3Z" transform="translate(-68.91 -44.5)"/><path class="cls-42" d="M284.65,812.66a4.08,4.08,0,0,1,1.11-2.77,5.14,5.14,0,0,1,3.46-1.11,7.89,7.89,0,0,1,3.47.83v2.08a7.35,7.35,0,0,0-3.19-.83c-1.66,0-2.63.55-2.63,1.66,0,.42.27.7.69,1a10.22,10.22,0,0,0,1.66.7c.7.27,1.25.41,1.95.69a3.59,3.59,0,0,1,2.35,3.47,3.68,3.68,0,0,1-1.24,2.77,5.33,5.33,0,0,1-3.61,1.11,6.83,6.83,0,0,1-3.75-1V819a6.67,6.67,0,0,0,3.61,1h0a3.64,3.64,0,0,0,1.94-.41,1.43,1.43,0,0,0,.7-1.11,1.45,1.45,0,0,0-.7-1.25,8.5,8.5,0,0,0-1.66-.83,10.34,10.34,0,0,0-1.94-.56,3.52,3.52,0,0,1-1.67-1.11A4.55,4.55,0,0,1,284.65,812.66Z" transform="translate(-68.91 -44.5)"/><path class="cls-42" d="M296.85,807v-2.49h2.5V807Zm0,15.13V809.05h2.36V822.1Z" transform="translate(-68.91 -44.5)"/><path class="cls-42" d="M302.68,817.93a3.48,3.48,0,0,1,1.67-3,8.42,8.42,0,0,1,4.44-1.11,12.48,12.48,0,0,1,2.35.14,3.38,3.38,0,0,0-.83-2.36,4,4,0,0,0-2.63-.69,12,12,0,0,0-3.61.69v-2.08a12,12,0,0,1,3.88-.69,5,5,0,0,1,5.69,5.41v3.74a1.78,1.78,0,0,1-.14.84,6.59,6.59,0,0,1-.41,1.11,8.22,8.22,0,0,1-.84,1.11,6.3,6.3,0,0,1-1.66.83,7.8,7.8,0,0,1-5,0,9.94,9.94,0,0,1-1.67-.83,2.17,2.17,0,0,1-.83-1.11,2.24,2.24,0,0,1-.42-1.11Zm2.36,0c0,1.53,1.11,2.22,3.19,2.22h0c1.94,0,2.91-.69,2.91-2.08v-2.22a11.06,11.06,0,0,0-2.22-.14,3.06,3.06,0,0,0-1.11.14,4,4,0,0,0-1.24.28,3,3,0,0,0-1.11.69A1.58,1.58,0,0,0,305,817.93Z" transform="translate(-68.91 -44.5)"/><path class="cls-42" d="M211.39,925.59a4.73,4.73,0,0,1,1.53-3.46c1-1,2.49-1.39,4.58-1.39a10.09,10.09,0,0,1,4.44,1.11v2.36a7.19,7.19,0,0,0-4.17-1.11c-2.63,0-3.88.83-3.88,2.63a1.92,1.92,0,0,0,.69,1.25,3.08,3.08,0,0,0,1.67.83c.69.28,1.38.42,2.22.84a10.71,10.71,0,0,1,2.22,1.11,4.71,4.71,0,0,1,1.66,1.66,4.79,4.79,0,0,1,.7,2.5,4,4,0,0,1-1.67,3.47,7.5,7.5,0,0,1-4.58,1.25,11.23,11.23,0,0,1-5.13-1.25v-2.5a10,10,0,0,0,5,1.53c2.78,0,4-.84,4-2.5a2.89,2.89,0,0,0-.7-1.8,3.42,3.42,0,0,0-1.66-1.11l-2.22-.7c-.83-.28-1.53-.55-2.22-.83a3.23,3.23,0,0,1-1.67-1.39A4.17,4.17,0,0,1,211.39,925.59Z" transform="translate(-68.91 -44.5)"/><path class="cls-42" d="M226.51,923.24v-2.5H229v2.5Zm0,15.12v-13h2.36v13Z" transform="translate(-68.91 -44.5)"/><path class="cls-42" d="M233.17,938.36V926.43a13,13,0,0,1,5.55-1.39,5.7,5.7,0,0,1,3.89,1.25A4.51,4.51,0,0,1,244,929.9v8.46H241.5v-8.6a2.35,2.35,0,0,0-.56-1.81,3.43,3.43,0,0,0-2.36-.69,10.71,10.71,0,0,0-3.05.42v10.54h-2.36Z" transform="translate(-68.91 -44.5)"/><path class="cls-42" d="M247.46,931.7a7.51,7.51,0,0,1,1.39-4.86A4.91,4.91,0,0,1,253,925a6,6,0,0,1,3.75,1.11,3.4,3.4,0,0,1,1.39,3.05v9.71a7,7,0,0,1-.28,1.67A3,3,0,0,1,257,942a4.56,4.56,0,0,1-1.81,1.11,9.42,9.42,0,0,1-2.91.41,12.75,12.75,0,0,1-3.89-.55v-2.22a11.62,11.62,0,0,0,3.61.55,8.3,8.3,0,0,0,2.08-.28,2.06,2.06,0,0,0,1.11-.69,3,3,0,0,1,.42-.69V937.8a8.62,8.62,0,0,1-2.64.42,5.54,5.54,0,0,1-4.3-1.66A9.67,9.67,0,0,1,247.46,931.7Zm2.36,0c0,1.66.28,2.77,1,3.33a3.43,3.43,0,0,0,2.5.83,5.74,5.74,0,0,0,2.64-.55v-6.94c0-.14-.14-.28-.28-.56a1.32,1.32,0,0,0-.83-.55,5.7,5.7,0,0,0-1.67-.14,2.7,2.7,0,0,0-1.11.14,3.68,3.68,0,0,0-1,.55,4.09,4.09,0,0,0-.83,1.39A7.21,7.21,0,0,0,249.82,931.7Z" transform="translate(-68.91 -44.5)"/><path class="cls-42" d="M261.2,934.2a3.5,3.5,0,0,1,1.66-3.06A8.45,8.45,0,0,1,267.3,930a12.54,12.54,0,0,1,2.36.14,3.38,3.38,0,0,0-.83-2.36,4.35,4.35,0,0,0-2.64-.69,11.89,11.89,0,0,0-3.6.69v-2.08a12.12,12.12,0,0,1,3.88-.69,5.07,5.07,0,0,1,5.69,5.41v3.75a1.76,1.76,0,0,1-.14.83,2.21,2.21,0,0,1-.42,1.11,7,7,0,0,1-.83,1.11,6,6,0,0,1-1.66.83,7.25,7.25,0,0,1-2.5.42,6.71,6.71,0,0,1-2.5-.42,9.1,9.1,0,0,1-1.66-.83,2.15,2.15,0,0,1-.84-1.11,2.27,2.27,0,0,1-.41-1.11Zm2.36,0c0,1.52,1.11,2.22,3.19,2.22h0c1.94,0,2.91-.7,2.91-2.08v-2.09a12,12,0,0,0-2.22-.13,3.28,3.28,0,0,0-1.11.13,4.09,4.09,0,0,0-1.25.28,3.09,3.09,0,0,0-1.11.7A1.08,1.08,0,0,0,263.56,934.2Z" transform="translate(-68.91 -44.5)"/><path class="cls-42" d="M275.35,943.35v-14a1.74,1.74,0,0,1,.14-.83,6,6,0,0,1,.41-1.11,7.63,7.63,0,0,1,.84-1.11,5.74,5.74,0,0,1,1.66-.83,6.71,6.71,0,0,1,2.5-.42,4.7,4.7,0,0,1,1.39.14,11.61,11.61,0,0,1,1.52.55,5.62,5.62,0,0,1,1.39,1.11,5.06,5.06,0,0,1,1,1.95,9.42,9.42,0,0,1,.42,3.05,8.32,8.32,0,0,1-.56,3.33,4.8,4.8,0,0,1-1.52,2.08,8.45,8.45,0,0,1-1.95,1,10.51,10.51,0,0,1-2.08.28,8.84,8.84,0,0,1-2.77-.42v5.13h-2.36Zm2.5-7.49a6.54,6.54,0,0,0,2.77.56,4.25,4.25,0,0,0,1.39-.14,4.14,4.14,0,0,0,1.11-.56,2,2,0,0,0,.83-1.38,9.93,9.93,0,0,0,.28-2.36,12.34,12.34,0,0,0-.28-2.5,2.76,2.76,0,0,0-.83-1.53,5.17,5.17,0,0,0-1.11-.69,3.42,3.42,0,0,0-1.25-.14c-1.94,0-3.05.69-3.05,1.94v6.8Z" transform="translate(-68.91 -44.5)"/><path class="cls-42" d="M289.78,935.17a8.32,8.32,0,0,1-.56-3.33,7.51,7.51,0,0,1,.56-3.33,4.11,4.11,0,0,1,1.52-2.08,6.13,6.13,0,0,1,1.95-1,10.59,10.59,0,0,1,2.22-.28,10.77,10.77,0,0,1,2.22.28,6.08,6.08,0,0,1,1.94,1,4.12,4.12,0,0,1,1.53,2.08,8.5,8.5,0,0,1,.55,3.33,7.66,7.66,0,0,1-.55,3.33,4.17,4.17,0,0,1-1.53,2.08,6.3,6.3,0,0,1-1.94,1,10.77,10.77,0,0,1-2.22.28,10.59,10.59,0,0,1-2.22-.28,6.34,6.34,0,0,1-1.95-1A5.17,5.17,0,0,1,289.78,935.17Zm2.22-5.69a10.9,10.9,0,0,0-.28,2.36,9.93,9.93,0,0,0,.28,2.36,2,2,0,0,0,.83,1.38,2.73,2.73,0,0,0,1.11.56,7,7,0,0,0,2.78,0,2.84,2.84,0,0,0,1.11-.56,2.37,2.37,0,0,0,.83-1.38,11,11,0,0,0,.28-2.36,9.86,9.86,0,0,0-.28-2.36,2,2,0,0,0-.83-1.39,2.74,2.74,0,0,0-1.11-.55,7,7,0,0,0-2.78,0,2.76,2.76,0,0,0-1.11.55A2,2,0,0,0,292,929.48Z" transform="translate(-68.91 -44.5)"/><path class="cls-42" d="M304.76,938.36V926.43a17.8,17.8,0,0,1,6.38-1.25v2.22a14.27,14.27,0,0,0-4,.55V938.5h-2.36Z" transform="translate(-68.91 -44.5)"/><path class="cls-42" d="M313,932c0-4.58,1.94-6.94,5.69-6.94h0a5.23,5.23,0,0,1,4.16,1.66,6.12,6.12,0,0,1,1.52,4.58,8.49,8.49,0,0,1-.13,1.81h-9c.28,2.22,1.52,3.33,3.61,3.33a8.41,8.41,0,0,0,4.43-1v2.22a12.27,12.27,0,0,1-4.57.83h-.14a8.3,8.3,0,0,1-2.08-.28,6.57,6.57,0,0,1-1.95-1,3.94,3.94,0,0,1-1.38-2.08C313.09,934.34,313,933.23,313,932Zm2.36-1H322a4,4,0,0,0-.28-1.25,4.76,4.76,0,0,0-.56-1.25,3,3,0,0,0-1-1,2.75,2.75,0,0,0-1.52-.42,2.87,2.87,0,0,0-2.36.83A5.67,5.67,0,0,0,315.31,931Z" transform="translate(-68.91 -44.5)"/><path class="cls-42" d="M540.9,947.65V930.17h2.49v17.48Z" transform="translate(-68.91 -44.5)"/><path class="cls-42" d="M547.28,947.65V935.72a13.15,13.15,0,0,1,5.55-1.38,5.69,5.69,0,0,1,3.88,1.24,4.54,4.54,0,0,1,1.39,3.61v8.46h-2.5v-8.6a2.38,2.38,0,0,0-.55-1.8,3.4,3.4,0,0,0-2.36-.69,10.71,10.71,0,0,0-3.05.41v10.55h-2.36Z" transform="translate(-68.91 -44.5)"/><path class="cls-42" d="M561.43,941a8.48,8.48,0,0,1,.55-3.32,4.87,4.87,0,0,1,1.53-2.09,5.29,5.29,0,0,1,1.94-1,10.69,10.69,0,0,1,2.08-.27,9.5,9.5,0,0,1,2.78.41v-5.13h2.36v14a1.72,1.72,0,0,1-.14.83,2.17,2.17,0,0,1-.42,1.11,3.21,3.21,0,0,1-.83,1.11,7.48,7.48,0,0,1-1.53.84,6.83,6.83,0,0,1-2.49.41,4.25,4.25,0,0,1-1.39-.14,10.39,10.39,0,0,1-1.53-.55,5.57,5.57,0,0,1-1.38-1.11,5.09,5.09,0,0,1-1-1.94A8.77,8.77,0,0,1,561.43,941Zm2.36,0a12.26,12.26,0,0,0,.28,2.5,2,2,0,0,0,.83,1.39c.41.28.69.55,1.11.55a3.39,3.39,0,0,0,1.25.14c1.94,0,3-.69,3-1.94V937a6.29,6.29,0,0,0-2.78-.55,4.19,4.19,0,0,0-1.38.14,3.71,3.71,0,0,0-1.11.55,2,2,0,0,0-.84,1.39A6.83,6.83,0,0,0,563.79,941Z" transform="translate(-68.91 -44.5)"/><path class="cls-42" d="M576,944.46a8.32,8.32,0,0,1-.56-3.33,7.56,7.56,0,0,1,.56-3.33,4.1,4.1,0,0,1,1.52-2.08,6.57,6.57,0,0,1,2-1,10.59,10.59,0,0,1,2.22-.28,10.77,10.77,0,0,1,2.22.28,6.65,6.65,0,0,1,1.94,1,4.1,4.1,0,0,1,1.52,2.08,8.32,8.32,0,0,1,.56,3.33,7.51,7.51,0,0,1-.56,3.33,4.05,4.05,0,0,1-1.52,2.08,6.45,6.45,0,0,1-1.94,1,11.53,11.53,0,0,1-2.22.27,11.33,11.33,0,0,1-2.22-.27,6.38,6.38,0,0,1-2-1A4.05,4.05,0,0,1,576,944.46Zm2.22-5.69a11,11,0,0,0-.28,2.36,9.86,9.86,0,0,0,.28,2.36,2,2,0,0,0,.83,1.39,2.69,2.69,0,0,0,1.11.55,4.25,4.25,0,0,0,1.39.14,4.19,4.19,0,0,0,1.38-.14,2.58,2.58,0,0,0,1.11-.55,2.35,2.35,0,0,0,.84-1.39,11,11,0,0,0,.27-2.36,10,10,0,0,0-.27-2.36,2,2,0,0,0-.84-1.38,2.67,2.67,0,0,0-1.11-.56,4.19,4.19,0,0,0-1.38-.14,4.25,4.25,0,0,0-1.39.14,2.77,2.77,0,0,0-1.11.56A2,2,0,0,0,578.22,938.77Z" transform="translate(-68.91 -44.5)"/><path class="cls-42" d="M590.7,947.65V935.72a13.18,13.18,0,0,1,5.55-1.38,5.7,5.7,0,0,1,3.89,1.24,4.54,4.54,0,0,1,1.39,3.61v8.46H599v-8.6a2.34,2.34,0,0,0-.56-1.8,3.38,3.38,0,0,0-2.36-.69,10.71,10.71,0,0,0-3.05.41v10.55H590.7Z" transform="translate(-68.91 -44.5)"/><path class="cls-42" d="M604.86,941.27c0-4.58,1.94-6.93,5.68-6.93h0a5.25,5.25,0,0,1,4.17,1.66,6.12,6.12,0,0,1,1.52,4.58,7.81,7.81,0,0,1-.14,1.8h-9c.28,2.22,1.53,3.33,3.61,3.33a8.45,8.45,0,0,0,4.44-1V947a12.12,12.12,0,0,1-4.58.83h-.14a8.92,8.92,0,0,1-2.08-.27,6.34,6.34,0,0,1-1.94-1,4,4,0,0,1-1.39-2.08C605,943.63,604.86,942.52,604.86,941.27Zm2.35-1h6.66a4.31,4.31,0,0,0-.27-1.25,5.07,5.07,0,0,0-.56-1.25,3.32,3.32,0,0,0-1-1,3.46,3.46,0,0,0-3.89.42A6.58,6.58,0,0,0,607.21,940.3Z" transform="translate(-68.91 -44.5)"/><path class="cls-42" d="M618.87,938.22a4.08,4.08,0,0,1,1.11-2.77,5.15,5.15,0,0,1,3.47-1.11,7.85,7.85,0,0,1,3.46.83v2.08a7.21,7.21,0,0,0-3.19-.83c-1.66,0-2.63.55-2.63,1.66,0,.42.28.69.69,1a10,10,0,0,0,1.67.7c.69.27,1.24.41,1.94.69a3.74,3.74,0,0,1,1.66,1.25,3.81,3.81,0,0,1,.7,2.22,3.69,3.69,0,0,1-1.25,2.77c-.83.84-1.94,1.11-3.61,1.11a6.79,6.79,0,0,1-3.74-1V944.6a6.64,6.64,0,0,0,3.6,1h0a3.73,3.73,0,0,0,1.94-.41,1.43,1.43,0,0,0,.7-1.11,1.45,1.45,0,0,0-.7-1.25A8.5,8.5,0,0,0,623,942a10.13,10.13,0,0,0-1.94-.56,3.52,3.52,0,0,1-1.67-1.11A4.68,4.68,0,0,1,618.87,938.22Z" transform="translate(-68.91 -44.5)"/><path class="cls-42" d="M631.08,932.53V930h2.49v2.5Zm0,15.12v-13h2.36v13Z" transform="translate(-68.91 -44.5)"/><path class="cls-42" d="M636.9,943.49a3.48,3.48,0,0,1,1.67-3,8.42,8.42,0,0,1,4.44-1.11,12.64,12.64,0,0,1,2.36.14,3.38,3.38,0,0,0-.84-2.36,4,4,0,0,0-2.63-.69,11.71,11.71,0,0,0-3.61.69V935a12,12,0,0,1,3.89-.69,5,5,0,0,1,5.68,5.41v3.74a1.83,1.83,0,0,1-.13.83,5.48,5.48,0,0,1-.42,1.11,7.81,7.81,0,0,1-.83,1.11,6.22,6.22,0,0,1-1.67.84,7.41,7.41,0,0,1-2.5.41,6.83,6.83,0,0,1-2.49-.41,9.19,9.19,0,0,1-1.67-.84,2.15,2.15,0,0,1-.83-1.11,2.17,2.17,0,0,1-.42-1.11Zm2.36,0c0,1.53,1.11,2.22,3.19,2.22h0c1.95,0,2.92-.69,2.92-2.08v-2.08a11.16,11.16,0,0,0-2.22-.14,3,3,0,0,0-1.11.14,4,4,0,0,0-1.25.28,3,3,0,0,0-1.11.69A1.08,1.08,0,0,0,639.26,943.49Z" transform="translate(-68.91 -44.5)"/><path class="cls-44" d="M290.2,252.85a35.41,35.41,0,0,0,2.21-12.76,38.73,38.73,0,0,0-2.21-12.77l-34.27-3.19-34.27,3.19a35.22,35.22,0,0,0-2.22,12.77,38.46,38.46,0,0,0,2.22,12.76L255.93,256Z" transform="translate(-68.91 -44.5)"/><path class="cls-45" d="M290.2,227.46a36.54,36.54,0,0,0-68.54,0Z" transform="translate(-68.91 -44.5)"/><path class="cls-46" d="M255.93,276.71a36.66,36.66,0,0,0,34.27-23.86H221.66A36.45,36.45,0,0,0,255.93,276.71Z" transform="translate(-68.91 -44.5)"/><path class="cls-42" d="M281,234.54H261.89l-6-18.18-6,18.18H230.81l15.54,11.23-6,18.18,15.54-11.1L271.47,264l-6-18.18Z" transform="translate(-68.91 -44.5)"/><path class="cls-46" d="M421.58,574.59A38.29,38.29,0,0,0,426,592.34l32.47,3.19L491,592.34a36.27,36.27,0,0,0,4.44-17.75A37.75,37.75,0,0,0,491,556.83l-32.46-3.19L426,556.83A38.3,38.3,0,0,0,421.58,574.59Z" transform="translate(-68.91 -44.5)"/><path class="cls-47" d="M426.16,556.83h65.07a37.08,37.08,0,0,0-65.07,0Z" transform="translate(-68.91 -44.5)"/><path class="cls-47" d="M458.62,611.63a36.86,36.86,0,0,0,32.47-19.29H426A37.24,37.24,0,0,0,458.62,611.63Z" transform="translate(-68.91 -44.5)"/><polygon class="cls-42" points="402.62 537.3 402.62 532.45 399.43 532.45 399.43 526.07 396.1 522.87 392.91 526.07 392.91 519.68 389.72 516.35 386.53 519.68 386.53 526.07 383.34 522.87 380.01 526.07 380.01 532.45 376.81 532.45 376.81 537.3 373.62 537.3 373.62 542.16 405.81 542.16 405.81 537.3 402.62 537.3"/><circle class="cls-42" cx="876.83" cy="456" r="37.04"/><path class="cls-46" d="M945.74,463.46v37l-26.22,26.22a37.08,37.08,0,0,0,63.26-26.22C982.78,480,945.74,463.46,945.74,463.46Z" transform="translate(-68.91 -44.5)"/><path class="cls-47" d="M945.74,463.46a37.23,37.23,0,0,0-26.22,10.82l26.22,26.22h37A37.12,37.12,0,0,0,945.74,463.46Z" transform="translate(-68.91 -44.5)"/><polygon class="cls-45" points="865.18 456 860.6 453.92 862.96 449.48 858.1 450.45 857.41 445.46 854.08 449.06 850.61 445.46 850.05 450.45 845.06 449.48 847.56 453.92 842.98 456 847.56 458.08 845.06 462.52 850.05 461.55 850.61 466.55 854.08 462.94 857.41 466.55 858.1 461.55 862.96 462.52 860.6 458.08 865.18 456"/><polygon class="cls-45" points="849.64 433.53 851.16 435.61 853.66 434.77 852.13 436.86 853.52 438.94 851.16 438.11 849.64 440.19 849.64 437.69 847.14 436.86 849.64 436.02 849.64 433.53"/><polygon class="cls-45" points="849.64 471.82 851.16 473.9 853.66 473.07 852.13 475.15 853.52 477.23 851.16 476.4 849.64 478.48 849.64 475.98 847.14 475.15 849.64 474.31 849.64 471.82"/><polygon class="cls-45" points="871.14 452.67 869.62 454.75 867.12 453.92 868.64 456 867.12 458.08 869.62 457.25 871.14 459.33 871.14 456.83 873.64 456 871.14 455.17 871.14 452.67"/><circle class="cls-42" cx="638.75" cy="742.64" r="37.04"/><path d="M675.61,768.68a38.89,38.89,0,0,0-3.74,9l61.87,35.79a37.25,37.25,0,0,0,6-7.77Z" transform="translate(-68.91 -44.5)"/><path class="cls-45" d="M726.11,755.08a37,37,0,0,0-44.67,5.83l61.88,35.8A36.91,36.91,0,0,0,726.11,755.08Z" transform="translate(-68.91 -44.5)"/><path class="cls-45" d="M689.21,819.18a37,37,0,0,0,44.67-5.83L672,777.56A36.81,36.81,0,0,0,689.21,819.18Z" transform="translate(-68.91 -44.5)"/><path class="cls-46" d="M718.07,783.11a10.41,10.41,0,1,1-20.81,0,10.26,10.26,0,0,1,1.24-5,13.13,13.13,0,0,0-3.6,9,12.9,12.9,0,1,0,25.8,0,13.14,13.14,0,0,0-3.61-9A14.39,14.39,0,0,1,718.07,783.11Z" transform="translate(-68.91 -44.5)"/><rect class="cls-46" x="636.4" y="726.54" width="4.86" height="24.14"/><path class="cls-46" d="M715.71,775.9h-16.1a2.14,2.14,0,0,0,2.08,2.08h0a1228.11,1228.11,0,0,1,4.17,4.16h4a2,2,0,0,0,2.08-2.08A2,2,0,0,0,714,778h0A2.26,2.26,0,0,0,715.71,775.9Z" transform="translate(-68.91 -44.5)"/><rect class="cls-46" x="627.52" y="752.35" width="22.48" height="4.86"/><rect class="cls-46" x="643.61" y="753.87" width="9.71" height="4.86"/><rect class="cls-46" x="624.33" y="753.87" width="9.71" height="4.86"/><circle class="cls-42" cx="335.05" cy="770.11" r="37.04"/><path class="cls-46" d="M402.3,814.6h38.57a38.14,38.14,0,0,0-1.25-9.71H402.3Z" transform="translate(-68.91 -44.5)"/><path class="cls-46" d="M402.3,795.18h33.15a35.67,35.67,0,0,0-8.6-9.71H402.16v9.71Z" transform="translate(-68.91 -44.5)"/><path class="cls-46" d="M404,851.51a36.8,36.8,0,0,0,23-8H380.93A36.05,36.05,0,0,0,404,851.51Z" transform="translate(-68.91 -44.5)"/><path class="cls-46" d="M372.33,833.89h63.12a38,38,0,0,0,4.17-9.71H368.17A40,40,0,0,0,372.33,833.89Z" transform="translate(-68.91 -44.5)"/><path class="cls-47" d="M404,814.6v-37a37,37,0,0,0-37,37Z" transform="translate(-68.91 -44.5)"/><path class="cls-45" d="M391.47,809.19a9.16,9.16,0,0,1,0-18.31,9.08,9.08,0,0,1,4.31,1.11,11.64,11.64,0,0,0-7.91-3.19,11.24,11.24,0,1,0,0,22.47,11.59,11.59,0,0,0,7.91-3.19A8.57,8.57,0,0,1,391.47,809.19Z" transform="translate(-68.91 -44.5)"/><polygon class="cls-45" points="325.2 749.16 326.87 752.49 330.48 751.65 328.81 755.12 331.86 757.34 328.12 758.18 328.12 762.06 325.2 759.7 322.29 762.06 322.29 758.18 318.55 757.34 321.6 755.12 319.93 751.65 323.54 752.49 325.2 749.16"/><circle class="cls-42" cx="346.15" cy="891.23" r="37.04"/><path class="cls-46" d="M378,935.72a37,37,0,0,1,74.08,0" transform="translate(-68.91 -44.5)"/><path class="cls-42" d="M400.63,918.1a11.16,11.16,0,0,1,8.88-11,13.57,13.57,0,0,0-2.36-.28,11.24,11.24,0,1,0,0,22.48,12.12,12.12,0,0,0,2.36-.28A11.16,11.16,0,0,1,400.63,918.1Z" transform="translate(-68.91 -44.5)"/><polygon class="cls-42" points="346.15 863.06 346.99 865.56 349.62 865.56 347.54 867.09 348.24 869.58 346.15 868.06 344.07 869.58 344.9 867.09 342.82 865.56 345.32 865.56 346.15 863.06"/><polygon class="cls-42" points="339.91 867.92 340.74 870.41 343.24 870.41 341.16 871.94 341.99 874.44 339.91 872.91 337.83 874.44 338.66 871.94 336.58 870.41 339.08 870.41 339.91 867.92"/><polygon class="cls-42" points="352.4 867.92 353.23 870.41 355.87 870.41 353.78 871.94 354.48 874.44 352.4 872.91 350.32 874.44 351.15 871.94 349.07 870.41 351.7 870.41 352.4 867.92"/><polygon class="cls-42" points="350.04 875.13 350.87 877.63 353.37 877.63 351.29 879.16 352.12 881.65 350.04 880.13 347.96 881.65 348.79 879.16 346.71 877.63 349.21 877.63 350.04 875.13"/><polygon class="cls-42" points="342.27 875.13 343.1 877.63 345.74 877.63 343.66 879.16 344.35 881.65 342.27 880.13 340.19 881.65 341.02 879.16 338.94 877.63 341.57 877.63 342.27 875.13"/><circle class="cls-42" cx="673.02" cy="893.86" r="37.04"/><path class="cls-48" d="M704.89,938.36a37,37,0,0,1,74.08,0" transform="translate(-68.91 -44.5)"/><circle class="cls-46" cx="458.25" cy="195.73" r="37.04"/><polygon class="cls-45" points="458.25 177.97 462.28 190.32 475.18 190.32 464.78 197.81 468.8 210.16 458.25 202.53 447.85 210.16 451.87 197.81 441.33 190.32 454.23 190.32 458.25 177.97"/><path class="cls-46" d="M486.65,323.88a36.94,36.94,0,0,0-66.6,0l33.3,3.19Z" transform="translate(-68.91 -44.5)"/><path class="cls-46" d="M419.92,356.07a36.93,36.93,0,0,0,66.59,0l-33.3-3.19Z" transform="translate(-68.91 -44.5)"/><path class="cls-47" d="M486.65,323.88H419.92a36.54,36.54,0,0,0-3.61,16.1,38.54,38.54,0,0,0,3.61,16.09h66.73A36.5,36.5,0,0,0,490.26,340,34.71,34.71,0,0,0,486.65,323.88Z" transform="translate(-68.91 -44.5)"/><circle class="cls-42" cx="384.45" cy="295.48" r="12.9"/><circle class="cls-42" cx="323.4" cy="413.13" r="37.04"/><path class="cls-47" d="M427,444.73H357.48a36.44,36.44,0,0,0,0,25.8H427a36,36,0,0,0,2.36-12.9A40,40,0,0,0,427,444.73Z" transform="translate(-68.91 -44.5)"/><path class="cls-46" d="M392.31,420.58a36.79,36.79,0,0,0-28,12.91h56.19A37.51,37.51,0,0,0,392.31,420.58Z" transform="translate(-68.91 -44.5)"/><path class="cls-46" d="M420.33,481.77H364.14a37,37,0,0,0,56.19,0Z" transform="translate(-68.91 -44.5)"/></svg>