<?xml version="1.0" encoding="utf-8"?>
<!-- Generator: Adobe Illustrator 22.0.1, SVG Export Plug-In . SVG Version: 6.00 Build 0)  -->
<svg version="1.1" id="Layer_1" xmlns="http://www.w3.org/2000/svg" xmlns:xlink="http://www.w3.org/1999/xlink" x="0px" y="0px"
	 viewBox="0 0 959.9 866.5" style="enable-background:new 0 0 959.9 866.5;" xml:space="preserve">
<style type="text/css">
	.st0{fill:#DCDFE2;}
	.st1{fill:url(#SVGID_1_);}
	.st2{fill:url(#SVGID_2_);}
	.st3{fill:url(#SVGID_3_);}
	.st4{fill:#101010;}
	.st5{fill:url(#SVGID_4_);}
	.st6{fill:url(#SVGID_5_);}
	.st7{fill:url(#SVGID_6_);}
	.st8{fill:url(#SVGID_7_);}
	.st9{fill:url(#SVGID_8_);}
	.st10{fill:url(#SVGID_9_);}
	.st11{fill:url(#SVGID_10_);}
	.st12{fill:url(#SVGID_11_);}
	.st13{fill:url(#SVGID_12_);}
	.st14{fill:url(#SVGID_13_);}
	.st15{fill:url(#SVGID_14_);}
	.st16{fill:url(#SVGID_15_);}
	.st17{fill:url(#SVGID_16_);}
	.st18{fill:url(#SVGID_17_);}
	.st19{fill:url(#SVGID_18_);}
	.st20{fill:url(#SVGID_19_);}
	.st21{fill:url(#SVGID_20_);}
	.st22{fill:url(#SVGID_21_);}
	.st23{fill:url(#SVGID_22_);}
	.st24{fill:url(#SVGID_23_);}
	.st25{fill:url(#SVGID_24_);}
	.st26{fill:url(#SVGID_25_);}
	.st27{fill:url(#SVGID_26_);}
	.st28{fill:url(#SVGID_27_);}
	.st29{fill:url(#SVGID_28_);}
	.st30{fill:url(#SVGID_29_);}
	.st31{fill:url(#SVGID_30_);}
	.st32{fill:#131A22;}
	.st33{fill:#6DA544;}
	.st34{fill:#FFDA44;}
	.st35{fill:#D80027;}
	.st36{fill:#F0F0F0;}
	.st37{fill:#0052B4;}
	.st38{fill:#A2001D;}
</style>
<g>
	<path class="st0" d="M85.2,266.5c7.9-5.3,6.5-9.3,9.7-16.2c3.2-6.9,3.7-5.8,3.7-5.8l8.3,16c0,0,5.8,12.3,6,23.8
		c0.2,11.6,3,16.9,3.7,19.7c0.7,2.8,4.2,9,6.2,12.3c2.1,3.2,5.1,6,5.1,9.5s1.4,8.1-0.2,12.5s0.5,3.7,2.5,5.8
		c2.1,2.1,3.5,6.5,3.5,9.3s-5.1,6-6.5,7.4c-1.4,1.4-1.4,4.9-1.6,6.5s1.2,3.2,2.5,4.4c1.4,1.2,2.6,3.2,3.7,10.9
		c1.2,7.6-0.9,13.9-1.3,15.7c-0.4,1.9-1.5,5.1,0,6.5s8.7-2.5,8.7-2.5s1.6,1.6,1.9,4.2c0.2,2.5-1.9,7.6-3.5,8.8
		c-1.6,1.2-1.6,6.7-2.1,8.6c-0.5,1.8-1.4,2.1-2.6,3.9c-1.2,1.8-3,10.2-2.3,12.7s3.7,3,5.3,3s1.4,1.6,3,4.2s5.6,4.6,7.6,6.5
		c2.1,1.8,4.4,6.2,5,8.1s4.7,4.2,7.9,6.7s5.1,3.7,5.1,3.7s0.7,1.6,1.4,4.2c0.4,1.5,1.6,3.3,2.9,5.5c0.9,1.5,1.8,3.3,2.4,5.4
		c-0.7,3.7,0.2,6,1.8,11.3s0.5,10.7,1.2,12.7c0.7,2.1,2.3,3.2,3.7,5.6c1.4,2.3,3,3.5,5.1,9.7c0.9,5.1,3,9,4.2,11.1s3,3.7,3.5,6.2
		s1.8,6.5,1.8,7.9s0,3.7,0.5,4.9s7.9,6.5,8.8,6.7s2.3,1.8,3.5,5.3s8.8,6,10.7,7.4c1.8,1.4,10.6,6.7,12.7,7.6
		c2.1,0.9,4.2,1.2,7.2,4.2s13.6,9.2,13.6,9.2s5.1,0,9.3,0c0.9-7.2-0.7-9.5-1.8-11.3c-1.2-1.9-11.1-20.8-11.1-20.8
		s-6.5-14.8-6.7-25.9c-0.2-11.1-0.9-15.5-0.9-16.7s-3.5-3.5-6.7-4.2s-11.1-11.8-12-13.9s-1.6-5.3-1.6-6c0-0.6-4.5-4.2-7.3-6.2
		c-0.6-0.4-1.2-0.8-1.5-1c-2.1-1.2-2.8-6-3.9-9c-1.2-3-6.7-4.4-9.5-5.1s-11.8-6.2-13.9-7.2c-2.1-0.9-5.1-6-6-10.4s-2.3-6.2-3.9-8.3
		c-1.6-2.1-6.2-15.3-5.6-25.2c0.7-10,0.2-10.4-1.2-10.9s-3.5,3.2-5.6,5.1s-6.2,1.4-6.9,0s-1.8-16.9,0-24.3s8.1-12.7,10.4-18.7
		c2.3-6,5-14.7,5-19.9s0.9-7.1,1.2-11.1s0-13,0-13s5-1.2,7.5-1c2.4,0.2,4.2,2.9,6.2,3.8c2.1,0.9,4.5,9.4,7.1,11.3s3.5,0.7,8,0.3
		s3.1-1,5.7-2.4c2.6-1.4,6.2-1,9-0.5c2.2,0.4,2.8,3.2,4.2,6.5c0.3,0.8,0.7,1.7,1.2,2.6c2.4,4.3,4.5,5.7,6.8,10.1
		c2.3,4.3,3.7,5.2,6.9,8c3.3,2.8,5.6,3.3,8.3,4.7c2.8,1.4,3.5,3.8,6.1,5.9s7.8,13.5,8.5,15.8c0.3,1,2.7,2.1,5.5,3.1
		c3.3,1.3,7.1,2.5,8.1,3.7c1.7,2.1,5.4,9.4,6.9,13c1.6,3.7,2.2,18.6,2.2,18.6s1.7-1.7,2.8-2.8s3.5-3.1,7.3-5.6
		c3.8-2.4,4.9-2.6,6.4-4.3c1.6-1.7,0.7-3.5,0.9-7.8s3.5-9,3.5-9s11.1,0,14.9,0s4.5-2.1,9.4-6.6s14.2-13.2,15.6-14.6
		s8.7-3.1,12.5-5.2s15.4-18.2,16.8-23.7c1.4-5.6,3.7-25,4.2-31.9s-8.8-26.9-10.6-29.6c-1.9-2.8-5.1-12.5-7.9-18.1s-4.6-6.5-9.3-8.3
		c-4.6-1.8-11.6-13.4-16.7-18.5s-15.7-16.7-17.6-21.3s-6.9-9.7-10.7-13.4c-3.7-3.7-3.2-15.3-2.3-21.8c0.9-6.5,9.3-11.6,12.5-15.7
		c3.2-4.2,4.6-7.9,5.1-10.7s6.9-1.4,15.7-5.1c6.5-2.7,6-7.4,7.1-9.9c0,0-11.5-4.5-15-6.4s-9.2-6.9-11.1-9.2s-3.8-12-4.5-13.2
		s-12.2,0.2-14.2-0.3c-2.1-0.5-5.4-2.6-6.8-3.8c-1.4-1.2-4,0-5,0.2s-9,7.8-12.1,9.4c-3.1,1.6-13.9,2.4-14.6,2.4s-3.5-0.4-7.1,2.2
		s-10.4,3.3-11.6,4.2c-1.2,0.9-8.9,0.7-11.1,0.7c-2.3,0-6.6,3.1-7.1,3.8s-3.3,0-6.4,0c-3.1,0-5.2,2.4-6.2,3.3
		c-1,0.9-3.8,4.7-9.7,6.6c-4.6,1.5-10.1,1.6-13.5,0.9c-1-0.2-1.8-0.5-2.3-0.8c-2.4-1.4-2.3-1.9-5.4-2.8c-3.1-0.9-6.4-6.6-7.5-9.7
		c-1-3.1-3.5-3.1-5.6-3.1s-6.2-3.1-8.7-4.2s-2.8-1.4-2.8-4.5c0-3.1-3.8-7.3-6.2-11.1c-2.4-3.8-5.9-4.9-9.7-8s-5.4-9.6-6.4-11.9
		c-0.9-2.3-10.7-0.5-12.5-2.3c-1.9-1.8,0-14.3,2.8-20.8S127,66.9,133,54c6-13,1.4-25.5,0-29.2s-6.5-6.5-10.6-9.7
		c-4.2-3.2-5.1-4.6-8.3-6.5c-3.2-1.8-7.9,6-7.9,9.7s-1.4,10.7-7.9,12.5C75.2,32,66.9,41.3,64.6,44.5c-2.3,3.2-2.3,8.3-2.8,12
		s-4.2,5.1-7.9,8.8C50.2,69,49.7,82,46.5,90.8s-19,19.9-25.5,25.9s-9.3,14.3-10.2,19.4s-4.2,13.4-4.2,17.1c0,3.7-6.5,10.4-6.5,10.4
		s2.5,1.8,5.6,5.6c3,3.7,5.8,10.4,6.9,12.3c1.2,1.9,4.9,2.6,6.7,3.5s4.4,1.9,6.7,5.1c2.3,3.2,4.2,13,4.2,13s3.9-1.6,6.7-0.5
		c2.8,1.2,6.2,15.7,8.1,22.5c1.8,6.7,3,21.5,2.6,26.8c-0.5,5.3-2.1,12-2.5,16c-0.5,3.9,4.2,3.2,6.7,5.3c2.6,2.1,6.2,0.9,13.7,1.9
		C72.9,276,77.3,271.8,85.2,266.5z"/>
	<path class="st0" d="M375.2,232c6.5-0.5,7.4-6.5,9.3-11.1s15.3-5.1,19.9-8.8s3.7-4.2,5.6-9.7s0-8.3,0-11.6c0-3.2-10.6-2.8-19-2.8
		c-8.3,0-25.5,4.2-30.1,5.1c-4.6,0.9-1.9,15.3-1.9,15.3c-5.1,4.2-5.1,14.3-3.2,18.5C357.6,231.1,368.7,232.5,375.2,232z"/>
	<path class="st0" d="M621.4,139c0,0,4.2,4.2,8.7,4.2s5.2-16.7,8-24.5s5.1-9.3,6.5-15.3s4.2-5.1,6.4-13s1-7.9,0-12s-0.8-2.8-3.6-5.1
		s-14.8,3.7-18.1,6c-3.2,2.3-10.2,6.5-10.2,10.6S608,108.4,608,115.4s3.2,11.1,5.1,14.8C614.9,133.9,621.4,139,621.4,139z"/>
	<path class="st0" d="M608.7,293.5c1.7,3.4,3.1,7.9,4.6,9.3c1.4,1.4,8.1-1,11-1s3.1,5,2.9,8.9c-0.2,3.8-7.4,2.4-7.2,3.6
		s6.9,2.6,10.3,3.1c3.4,0.4,9.6-0.4,11.5-0.2c1.9,0.2,4.8,0.7,6-1.9c0.2-5.5-8.6-21.6-8.6-26.2s0.4-5.4,1.4-8.3s12.9-12.2,15.4-15.8
		c2.5-3.6,4.7-12.9,4.7-16.5s-1.8-9-2.9-14.7c-1.1-5.7,0.4-8.3,0-13.3s-7.9-3.6-9.3-3.6c-1.4,0-10.1,1.1-12.2-1.8
		c-2.2-2.9-8.3-2.9-12.6-2.5s-6.8,12.6-7.5,18s0,14.4,0,17.6c0,3.2-2.9,11.9-5.4,18.7s-9,3.6-9,3.6s2.9,9.7,3.4,13.1
		S607.1,290.1,608.7,293.5z"/>
	<path class="st0" d="M625,351c2.4,3.4,2.4,5.7,4.6,6.5c2.2,0.7,2.4,0.2,6-2.9s1.2-8.9,1-12s-6.5-6.7-7.7-7.2s-6.2-1.7-7.9-2.9
		c-1.7-1.2-5.3-5.3-5.3-5.3s-1.2,7.2-1.2,9.3s1.2,3.8,4.1,5.9C621.4,344.6,622.6,347.6,625,351z"/>
	<path class="st0" d="M663.8,334.5c1.8,0.7,4.1,4.1,5.2,3.6c1.1-0.5-3.1-7.2-3.1-7.2h-7.5C658.4,330.9,662,333.8,663.8,334.5z"/>
	<path class="st0" d="M671.7,320.7c0.9,0.7,1.6,1.6,3.8,1.8c2.2,0.2,1.6,2.2,4,4.6c2.3,2.5,1.6,2.2,2,4.5s3,2.3,4.8,2.9
		s3.2,3.4,6.8,3.6s2-7.8,1.4-10.1c-0.5-2.3-2.5-2-4.5-2.7s-3.4-1.8-6.6-3.6c-3.2-1.8-6.5-3.1-8.1-4.2c-1.6-1.2-7.7-1.5-7.7-1.5
		S670.8,319.9,671.7,320.7z"/>
	<path class="st0" d="M710.8,357.7c1.1,1.7,2.7,2.3,4,3s3.2,5,7.9,8.3s5.9,3.6,7.4,4.3c1.4,0.7,4.9,5.4,4.9,5.4s0.7-1.1,0-3.6
		s-2.3-4.7-4-8.4c-1.6-3.8-1.3-2.7-2.3-7.7c-1.1-5-2.2-7.5-2.2-7.5h-19.8C705.6,355.5,709.8,356.1,710.8,357.7z"/>
	<path class="st0" d="M688,357.7c-0.9-0.7-2.5-2-2.5-2c-0.9,3.2,1.3,4.1,3.2,7.5c2,3.4,3.2,2.7,5.2,3.4s3.2-0.4,3.1-1.6
		c-0.2-1.3-4.3-3.4-5.6-4C690.2,360.5,688.9,358.4,688,357.7z"/>
	<path class="st0" d="M665.2,369.7c-3.2-0.7-6.5-1.8-10.1-2V388c0,0-0.7,3.1-1.4,4.3s-2.9,5-1.8,5.9c1.1,0.9,7,2.3,8.8,0.9
		s5.6-2.7,6.8-6.6c1.3-4,1.1-4.5,1.6-6.8s0.4-5,0.9-7s1.4-4.7,1.4-4.7s-1.3-0.7-2.3-1.6S668.5,370.4,665.2,369.7z"/>
	<path class="st0" d="M674.6,408.3c-4.9,2.2-9.2,5.6-9.5,7.4c-0.4,1.8,1.1,4.3,3.2,5.7s3.9,3.1,4.5,4s2.7,1.8,5.1,0
		c2.3-1.8,1.3-4.7,1.6-6.3c0.4-1.6,2.2-4.3,2.3-6.1c0.2-1.8-1.3-10.1-1.3-10.1S679.4,406.2,674.6,408.3z"/>
	<path class="st0" d="M699,384.9c1.1,0.6,1.7,3.6,1.6,7.3c-0.1,3.7,0.8,7.6,0.8,7.6s2.2-2.5,2.6-5.6c0.5-3.1-0.4-6.1-1.4-8.7
		c-1.1-2.6-5.6-2.5-5.6-2.5S698,384.3,699,384.9z"/>
	<path class="st0" d="M546.2,450.8c3.1-3.1,4.3-2.4,6.2-3.8s5-4.1,5.5-5.7c0.5-1.7,1.9-1.9,4.8-6c2.9-4.1,4.6-3.6,5.7-5.5
		c1.2-1.9,5.3-2.4,7.4-5.3c2.2-2.9,3.6-5,5.3-7.4s4.3-6.5,6-8.4s8.6-3.4,14.6-4.1s4.8-1.4,5.7-3.1c1-1.7-3.6-4.1-3.8-10.1
		c-0.2-6.1,2.6-10.2,2.6-10.2c0.2-6.5-6-5-6.2-3.8s-2.2,1.7-3.1,1.4c-1-0.3-3.1,4.1-3.8,8.2s-8.1,14.6-8.6,16s-4.1,1.9-5.5,2.9
		s-7.4,9.8-7.9,11.7s-4.3,4.1-6,4.8c-1.7,0.7-6,6-8.1,8.1c-2.2,2.2-2.4,1.7-4.8,4.3c-2.4,2.6-6.5,5.7-8.1,7.2
		c-1.7,1.4-1,4.8-1.9,7.2c-1,2.4-3.4,3.6-2.9,6.2C539.8,458,543.1,454,546.2,450.8z"/>
	<path class="st0" d="M656.8,447.8c0,0-1.7,8.6-1.7,12.5s-3.4,9.1-3.4,9.1c1.2-2.2,6-2.2,7.1-3.8c1.1-1.7,6.6-1,13.1-1.4
		c6.5-0.5,3.8,2.6,7.1,1c3.3-1.7,1-6.7,1-11.6s1.4-4.7,2.9-8.3C669.7,438.9,656.8,447.8,656.8,447.8z"/>
	<path class="st0" d="M697.4,448.9c-0.4,1.1-2.7,3.9-2.7,3.9s0,8.7,0,10.3c0,1.6,1.6,2.2,2.5,5c0.9,2.9,2.9,4.5,2.9,4.5
		s0.2,5,1.3,8.4s4.5,4.1,6.8,7.4c2.3,3.2,6.5,4.3,7.4,4.9s4.7,0.7,4.7,0.7s1.8,2.9,2.7,4.3s5.2,0,5.2,0l1.6-2.2c0,0-0.2-12.9-0.2-14
		s0.4-1.6,0.7-2.5c0.4-0.9,1.4-3.1,1.4-4s2.7-2.9,3.6-3.6c0.9-0.7,0-4.3,0-4.3s6.3,0.4,7.9,2.2c1.6,1.8,1.6,3.6,2.3,5.7
		c0.7,2.2,2.2,3.4,3.2,4c1.1,0.5,1.8-4.9,2.5-7.9c0.7-3.1,1.4-5,1.8-5.7s1.1-4.9,1.1-9.6s-1.3-3.2-2.3-5.7c-1.1-2.5-2.5-3.4-4.1-5.6
		s-0.9-8.6-0.9-10.4s0.5-3.4,1.6-6.8s-0.9-5.2-1.6-6.2c-0.7-1-3.6-3.4-5.6-3.9s-6.3-2.9-7.2-4s-5,0-5,0s0.4,6.3,0,10.1
		c-0.4,3.8-5.2,6.1-5.2,6.1h-7.4c0,0-4.1,6.1-5.7,7.7c-1.6,1.6-2.7,4-4.5,5.2c-1.8,1.3-5.4,2.2-6.8,2.9
		C697.9,446.5,697.7,447.8,697.4,448.9z"/>
	<path class="st0" d="M647.6,203.4c-1.1,1.9,3.2,3.8,5.9,4.9c2.6,1.1,2.5-1.8,2.2-3.5c-0.4-1.7-2.9-2.4-4.5-3.1
		C649.4,201,647.6,203.4,647.6,203.4z"/>
	<path class="st0" d="M638.6,195.8c-2.2-0.7-5.3,2.8-5.3,2.8s2.3,2.6,5.6,3.6c3.4,1,3-3.6,3-3.6S640.7,196.5,638.6,195.8z"/>
	<path class="st0" d="M557.1,640.2c1.8-5.8,0.7-10.4,2.5-18.3c1.8-7.9,4.2-9.3,6.2-11.1c2.1-1.8,4.2-2.5,10.9-2.3s7.6-0.5,8.3-2.1
		s0-1.6-1.6-4.4c-1.6-2.8-4.4-4.4-7.4-8.8c-3-4.4-10.6-5.1-11.5-6.5s0.6-3.2,1.6-4.6c0.9-1.4,1.2-5.6,0.9-9c-0.2-3.5-3-5.1-6-6.9
		c-3-1.8-10-6-10.9-7.6s0,0,1.4-3s0.2-6.5-0.5-8.3c-0.7-1.9-1.6-1.4-0.5-3.7c1.2-2.3,4.9-5.8,5.8-8.3c0.9-2.5,0,0,2.5-0.7
		s4.9-6,10-8.3s6.5-3.2,9.5-4.2c3-0.9,8.8-2.5,10.9-3.5c2.1-0.9,1.4-4.4,1.4-6.9c0-2.5,0-2.3-2.1-3.9s-12.7-9.5-15.1-10.4
		c-2.3-0.9-3.2,0-6.7,0s-8.1-1.6-10.2-2.3c-2.1-0.7-5.6-5.3-7.2-7.6c-1.6-2.3-1.6-7.9-2.8-10.9s-2.3-4.2-3.9-5.3
		c-1.6-1.2-4.4-1.7-4.4-1.7s-3,0.6-4.9,0s-1.6,5.2-4.2,7.5c-2.6,2.3-2.1,6.2-3.9,7.6c-1.8,1.4-2.8,2.1-4.4,5.3
		c-1.6,3.2-1.6,4.2-5.3,6.5s-4.4,1.8-6.5,5.6c-2.1,3.7-5.1,8.6-6.5,8.8c-1.4,0.2-2.8,3-2.8,5.1s-0.5,5.6-2.5,9
		c-2.1,3.5-3.2,5.3-5.1,6.7c-1.8,1.4-2.5,1.6-3.9,2.3s-4.6,0-6-0.2s-2.5-0.5-4.2-4.2c-1.6-3.7-5.1-1.2-6.5-0.7s-1.9,3.2-3.7,4.9
		c-1.8,1.6-3,3.5-4.6,5.8s-1.9,4.6-4.9,6s-5.6,5.6-6.5,7.9c-0.9,2.3-0.2,2.3-3.5,4.9c-3.2,2.5-5.3,3.2-8.1,3.5
		c-2.8,0.2-7.2,2.5-10,3s-5.8,2.5-7.6,3c-1.8,0.5-6.9,4.6-6.9,7.6s-0.7,20.6-0.7,20.6s-0.9,0.9-2.8,1.6c-1.8,0.7-3.9-1.8-6-3.7
		s-3.7,0.1-5.8,0c-2.1,0-3.2-1.8-4.9-3.4c-1.6-1.6-3.2-2.3-6-4.6s-11.3-1.2-13.2-0.7c-1.9,0.5-3.2,5.8-4.2,8.7
		c-0.9,3-2.1,2.6-3.7,3.7c-1.6,1.2-2.1,4.6-2.8,6.5c-0.7,1.8-1.4,4.9-1.8,6c-0.5,1.2-3.2,3.7-3.2,4.9s-0.5,7.9,0,10.7
		s2.8,4.9,3.9,7.9c1.2,3,0.9,10.2,2.3,12.5s6.5,5.6,9.3,6.5s5.8,4.9,7.2,6c1.4,1.2,0,8.3,0,9.9c0,1.6,0.7,7.2,1.8,8.3
		c1.2,1.2,3.9,4.9,5.3,6.5c1.3,1.6,0.7,4.9,0.1,8.3s4.4,7.4,6.5,8.3c2.1,0.9,6.9,0.7,11.1,0.7s10.4-0.5,13.2-0.9
		c2.8-0.5,2.3-1.4,5.1-2.5c2.8-1.2,1.8,0,2.5,1.8c0.7,1.9,1.4,2.6,2.8,3.5s3.9,1.2,6.7,1.2c2.8,0,6-1.2,8.8-1.9s3.5-2.3,6.7-2.3
		s5.8,0.5,6.9,0.7c1.2,0.2,3.5,5.1,3.9,6c0.5,0.9,10.4-0.7,12.5-0.7s1.4,0.9,3.9,3.9s5.1,7.4,6.5,8.3c1.4,0.9,7.4,0.2,12,0
		s8.8-1.6,10-2.5s3.7-2.1,6.9-2.3s5.3-0.7,6.9-3.2c1.6-2.5,2.3-9,3.2-12.7s0.5-7.4,1.4-11.6c0.9-4.2,0.9-14.8,1.2-17.1
		c0.2-2.3,5.6-5.1,8.8-9s12.3-6.5,14.1-7.9C554.3,649.7,555.2,646,557.1,640.2z"/>
	<path class="st0" d="M696.7,630.8c3.8-1.1,7.8-3,12-6.2c4.2-3.3,10.4-11.1,14.1-15.3c3.6-4.2,5.9-7.5,6.2-9c0.3-1.6-1-3-1.9-4
		s-13-0.3-15.1,0.2s-3.3,4.3-5.7,6.1c-2.4,1.7-9.5,3.3-10.9,4.3c-1.4,1.1-13.5,1.4-17.2,0.7s-4.5-0.2-9-1.4s-4.7-0.2-7.5-1.7
		c-2.8-1.6-9.7-3.7-10.7-4.2s-2.4-1.4-5.2-1.6c-2.8-0.2-7.6-2.4-9.7-3.5c-2.1-1-6.4-0.3-8.3,2.2c-1.9,2.6-7.8,7.9-9.4,8.7
		c-1.6,0.9-11.3,1.7-13.4,1.7s-5.2,4.9-8.3,7.6c-3.1,2.8-2.9,9.5-2.6,11.3c0.3,1.7,4.7,1.6,7.3,2.2s5.4,3.8,5.4,3.8
		c2.8,1,8-0.5,10.1-2.3c2.1-1.7,4.2-3.3,6.9-4.3c2.8-1,4-1.6,7.6-2.2c3.7-0.7,3.8,0,8.5,1.4s9,2.9,9,2.9s21.3-0.3,22.7,0.2
		s5.4,2.1,8.3,3.5C682.8,633.4,692.9,631.8,696.7,630.8z"/>
	<path class="st0" d="M653.5,670.4c2.1-0.5,2.1-0.9,3.8-1.6c1.7-0.7,4.5-3,6.1-4.5s4.2-2.6,5.4-2.9c1.2-0.4,4.9,0.5,7.8,0.5
		c3,0,3.1,0.5,4.9,0c1.7-0.5,1.6-5.7,1.9-6.4c0.4-0.7,0.4-4.5-1.2-6.6c-1.6-2.1-5.9-3.1-7.6-4c-1.7-0.9-5.7-2.2-9-2.9
		s-11.3-0.2-14.6,0.2c-3.3,0.3-4.2,0-6.4,1.2s-3.5,1.1-5.9,2.3s-5.4,3.1-6.9,5.2c-1.6,2.1-4.9,1.7-6.2,1.6c-1.4-0.2-4.2-4.7-5.6-8.2
		c-1.4-3.5-3.8-7.6-5.2-9.4c-1.4-1.7-9.7,0-9.7,0s-2.2,1.3-3.2,1.3c-0.9,0-1.8,1.4-2.4,2.8c-0.6,1.4-1.5,1.8-3,3.6
		c-1.5,1.7-7.5,10.3-7.5,10.3s-0.5,4.7-0.6,6.1c-0.1,1.4-0.2,6.6,0.1,8.3s-5.3,7.6-6.8,10.4c-1.5,2.8-3,5.2-3.6,7.1
		c-0.6,1.8,0.6,7.6,0.6,9.5s1.6,2.7,3.1,5.3s3.7,5.4,4.7,7.1c1,1.6,5.1,5.9,6,7.4s0,5.6-0.1,8.2c-0.1,2.7-0.8,5.8-1,8.1
		s-0.6,7.5-0.5,10.8c0.1,3.2,0.5,6,0.9,8.1c0.5,2.1,2.1,3.9,2.8,4.7s4.2,0.5,5.6,0c1.4-0.5,2.4-3.5,2.7-4.9c0.2-1.4,2.2-5,2.9-6.9
		c0.7-2,4.2-7.3,5.3-9.3c1.2-2,1.5-3.5,2.2-6.4s0.9-10.2,2.3-13c1.4-2.8,1.7-11.6,1.7-14.8s1.7-3.8,2.1-5c0.3-1.2,1.6-1.5,2-1.7
		c0.3-0.2,0.9,0,1.4,1.6s1.4,5.9,1,9.7c-0.3,3.8,1.3,7.2,1.9,9c0.6,1.9,6.2,5.6,7.2,6.2c0.9,0.6,4.7,1.1,5.1,3.5
		c0.3,2.3,2.5,5.7,3.9,6.2c1.4,0.6,4.4,0.8,6.5,1.2c2.1,0.3,3.4,0.1,5.2,0.7c1.8,0.6,3.8,3.8,4.9,5.7c1,1.8,0,3-0.5,6.1
		s3.3,3.6,5.7,3.2c2.3-0.3,3.4-3,4.5-6.6c1.2-3.6,2.2-7.2,2.9-8.7s2.2-9.5,2.9-12s-0.5-9.8-0.6-12.7s-0.5-6.6-0.5-8.1
		s-2.8-2.8-4.4-5c-1.6-2.2-7.3-4.9-7.9-5.2c-0.6-0.3-4.2-1.9-4.7-4.7c-0.6-2.9-3.9-6.8-4.7-7.8c-0.9-1-2.8-0.2-2.8-2.1
		C648.1,670.2,651.4,670.9,653.5,670.4z"/>
	<path class="st0" d="M712.5,673.4c1.7,0.6,3.8,2.5,6.2,3.7s4.9,1.6,6.2,1.7c1.4,0.2,3.5,2.4,5,4.5c1.6,2.1,4.7,3.3,5.7,3.3
		s6.2-0.6,7.8,0c1.6,0.5,1.9-4.2,2.1-6.1c0.2-1.9,2.4-3.1,3.5-5s1.2-4.7,1.2-6.6s-1.9-2.8-3-3.8s0-2.8,0-2.8s-8-0.1-11.6,0
		s-6.6-0.4-8.5-0.1c-1.9,0.3-3.6-0.3-6.2-1c-2.6-0.7-13.7-1-13.7-1s-1.9,5-1.2,7.5C706.8,670,710.8,672.8,712.5,673.4z"/>
	<path class="st0" d="M752.8,697.6c-3-0.5-11.6-2.1-11.6-2.1s0.5,3.5,3.1,7.3s6.8,3,9.5,4.4c2.8,1.4,5.2,2.3,7.3,2.8
		s8.3-1.2,8.3-1.2s-1.7-6.6-3.1-8.5S755.7,698.1,752.8,697.6z"/>
	<path class="st0" d="M835.6,697.3c-2.4-2.1-5.7-2.6-8.3-3.6s-14.1-0.5-15.3-0.7s-2.1-0.9-2.1-0.9h-24.1c0,0-1.6,3.1-3,5.4
		c-1.4,2.3-3.1,7.5-3.1,7.5s0,0,3,2.4s10.1,3.1,15.6,4.3c5.6,1.2,6.1-2.3,8.7-3.6c2.6-1.4,7.8-1.9,9.5-2.6c1.7-0.7,5.4,1.6,7.1,2.4
		c1.7,0.9,7.8,1.9,10.8,2.2s3.8,2.5,4.5,2.9c0.7,0.3,7.5-0.2,8.2-0.9s-2.3-5-3.5-7.1C842.4,702.8,838,699.4,835.6,697.3z"/>
	<path class="st0" d="M792,651.1c1.4-0.5,1.4-6,1.2-9.3c-0.2-3.2-2.3-8.8-4.2-11.8s0-5.6,0-5.6c0.8-2.8,10.4-3,10.4-5.6
		s-11.6-6.2-12.3-6.7s-1.6-2.1-2.1-5.1s0-6.2,0.7-12.4c0.7-6.1,1.9-5.2,3.7-9.1c1.9-3.9,0.2-5.3-0.5-7.6s-3.2,1.6-7.4,4.4
		c-4.2,2.8-7.9,8.1-9.3,10.2c-1.4,2.1-2.3,9.3-2.3,13s3,5.6,3.2,8.5s-0.2,3.8-0.9,8s-5.6,8.1-6.9,10c-1.4,1.9-2.3,6.2-2.3,9.7
		s3.7,3.2,6.4,4.9c2.7,1.6,6.3,3.2,8.6,4.6C780.4,652.5,790.6,651.6,792,651.1z"/>
	<path class="st0" d="M943,642.1c-4.9,4-11.6,9.8-12.9,11.8c-2.1,3.2-3.5,6.5-4.6,10.9c-1.2,4.4-2.1,4.2-3.2,5.8
		c-1.2,1.6-6.7,3-10.7,1.4c-3.9-1.6-5.6-0.9-6.9-2.1c-1.4-1.2-4.4-1.2-5.6-1.8c-1.2-0.7,0-2.8,0-5.8s-2.8-4.2-4.9-6.7
		c-2.1-2.5-5.9-5.1-7.1-8.3c-1.2-3.2-6.5-7.7-10.6-10.2c-4.2-2.6-6.7-1.4-11.6,0c-4.9,1.4-9.9,3.2-13.6,4.4c-3.7,1.2-11.1,6-11,7.2
		s1.7,5.3,3.4,7.9c1.6,2.5,8.3,4.2,9.7,5.8s7.4,3,9.7,3.7s5.1,3,7.6,5.3s4.9,1.4,8.6,2.6c3.7,1.2,7.6,1.2,9.2,1.4
		c0.5,0.1,0.7,0.4,0.8,0.9c0.3,1.6-0.8,3.1-2.4,3.5c-3.4,0.8-9.9,2.2-12.3,1.8c-3.2-0.5-9.7,4.2-8.8,6s11.1,11.6,12,13.4
		c0.9,1.8,3.2,13,6,15.3s10.7-3.2,13-7.8c0.9-1.8,1.9-3.5,2.7-4.8c1-1.7,3.3-2,4.7-0.8l6.4,5.5c0.1,0.1,0.1,0.1,0.2,0.2l0.2,0.1
		c4.4,3.3,9.3,5.8,14.5,7.6c3.3,1.2,7,2.6,9.7,4.1c3.1,1.7,6.4,2.8,8.9,3.6c2,0.6,11.1-17.3,11.1-19.4v-31.1
		C955.2,670.8,945,640.4,943,642.1z"/>
	<path class="st0" d="M293.5,749.9c0.9-3.2,1.4-13.7,1.4-19s0.2-8.6,0.9-13c0.7-4.4,4.2-13.4,3-19s-2.3-4.4-4.9-6.7
		s-6.7-7.6-9.7-9.5c-3-1.8-6.2,0-9.7,1.2s-3.5,5.1-4.4,6.2c-0.9,1.2-3.7,2.1-5.1,2.1s-0.7-4.6-0.7-10c0-5.3,0.5-4.6,1.4-8.6
		c0.9-3.9,0-9.7,0-12.7s-3.2-6-4.9-10.7c-1.6-4.6-5.7-9.2-7.1-11.3c-1.4-2.1-4.9-1.6-6.3-1.7c-1.5-0.2-2.2-2.8-1.3-5s2.4-4.9,0-8
		s-6.6-2.4-8.7-3.8c-2.1-1.4-7.6,0.3-9.4,0c-1.7-0.3-3.8-2.1-3.5-5.2c0.3-3.1,0.3-5.6,0-8s-2.8-2.1-4.9-4.5
		c-2.1-2.4-4.5-2.8-8.9-5.4c-4.4-2.7-4.6-3.6-7.1-5.3s-9-4.5-10.8-6.6c-1.7-2.1-9.4-2.4-10.4-4.2s-6.2-4.9-8.7-8.7
		c-2.4-3.8-6.6-3.5-9-5.9s-6.6-4.5-9.4-5.9c-2.8-1.4-10.1-9-12.5-11.8s-3.5-1-6.6-5.2s-8.7-16-10.4-20.5s-10.1-6.6-12.8-9.4
		s-17.4-1.7-22.9-2.1c-5.6-0.3-8.3-0.7-14.2-4.5c-5.9-3.8-15.3-3.5-15.3-3.5s1.7,12.7,2.9,16c1.2,3.2,6.5,6.9,9.5,9.3
		c3,2.3,7.4,8.3,10.4,11.8s6,4.9,8.6,8.3c2.6,3.5,10.2,5.1,12.5,7.9c2.3,2.8,2.1,7.2,4.4,14.1c2.3,6.9,10.2,12.3,12.5,13.9
		c2.3,1.6,6.7,4.6,10.9,7.6s6.5,9.7,9.3,13.4s3.9,10.4,5.1,14.1c1.2,3.7,5.1,5.3,6.9,6.7c1.8,1.4,7.6,5.1,10.2,6.9
		c2.5,1.8,3.2,6,5.8,9.9c2.5,3.9,6.2,12,7.2,14.1c0.9,2.1,3.2,6.9,4.4,11.6c1.2,4.6,8.1,12.7,9.7,16c1.6,3.2,3.9,10.2,5.8,13.2
		c1.8,3,12.5,9.7,14.3,11.3s5.8,7.4,7.6,10.2s8.1,5.8,10.2,6.9c2.1,1.2,7.4,5.1,9.3,6.7c1.8,1.6,10.2,8.8,14.3,10.6
		c4.2,1.9,7.4,7.2,9.7,9.5s8.8,2.3,12.5,3.7s13,0.5,15.3,0C292.3,757.3,292.5,753.2,293.5,749.9z"/>
	<path class="st0" d="M305.8,676.3c-1.8-2.1-3.2-4.4-4.6-7.4s-2.2-4.6-3.5-6.7c-1.3-2.1-6.9-0.3-8.1,0s-1.4,2.2-1.6,4.2
		s-3.1,5.8-3.1,5.8c0.1,1,3.7,1.8,5.6,2c1.8,0.2,2.2,1.9,3.3,4.1c1.2,2.2,3.6,2.9,5.2,3.6c1.6,0.7,3.1,2,4.7,3.7s5.2,1.6,6.8,1.6
		c1.6,0,1.2-2.7,0.9-4.4C311.3,681.1,307.7,678.4,305.8,676.3z"/>
	<path class="st0" d="M479.4,802.5c-3.5,0-15.1-1.7-17.9-2.9s-4.7-1.9-7.3-4.7c-2.6-2.8-3.3-5.4-6.1-10.4c-2.8-5-5.6-3.8-8.3-5.6
		c-2.8-1.7-17.7-1.7-19.6-2.6c-1.9-0.9-5.9-3.8-7.8-4.9c-1.9-1-5.4-0.3-7.6,0c-2.2,0.4-8.7,4.9-8.7,4.9s-26.9,1.6-27.8,0
		s-3.5-3.1-5.2-4.9c-1.7-1.7-9.9-2.1-14.1-3.3s-5.2-0.9-7.8-2.8c-2.6-1.9-6.4-1-9-1.2s-12-2.6-15.3-4.7c-3.3-2.1-8.7,0-9.7,0
		s-4.5,3.5-6.1,3.5s-2.4,1.2-3.5,3.3s-3.5,3.5-3.5,3.5c-4.9,1.4-3.7,8.8-3.1,10.4c0.5,1.6,5.7,2.8,6.8,4s4.2,1.2,8.3,3
		c4.2,1.7,7.6,2.2,11.5,3.1c3.8,0.9,10.4,2.8,13.2,3.3c2.8,0.5,10.8,1.2,13.5,1.4s7.1,1.2,9,1.9s7.8,0.7,10.6,0.7s14.8,0.2,18.2,0.2
		s7.8,2.1,10.8,2.9c3,0.9,12.5,3.5,17.5,5.4s9,4.2,14.1,6.9s11.6,3.6,14.8,3.6c3.1,0,9.7-0.7,11.8-1.6c2.1-0.9,8.2-0.7,11.4-0.7
		c3.3,0,7.1,1.6,10.2,2.9c3.1,1.4,7.8,1.6,11.6,2.4c3.8,0.9,7.1-6.4,7.3-9c0.2-2.6-1.2-4.3-2.8-6.4
		C487.4,802.1,482.9,802.5,479.4,802.5z"/>
	<path class="st0" d="M521.9,809.8c-2.5,1.2-5.6,1.9-7.6,2.8s-0.7,1.4-0.5,3.6c0.2,2.2,3.7,3.6,3.7,3.6c2.5,0.8,4.4-0.7,7.4-1.1
		c3-0.3,4.6-2.1,5.1-3.8s-0.5-4-1.5-5.1S524.4,808.6,521.9,809.8z"/>
	<path class="st0" d="M590.5,811.3c-0.8-1.2-0.6-2.9-3.4-3.6s-5.3,0.2-6.7,1.9s-2.8,3.9-4.6,4.2c-1.9,0.2-5.7,0-7.3-0.3
		s-3.2-0.5-5.1-0.8c-1.9-0.3-10.8-0.5-12.8-0.2c-2.1,0.2-7.4,0.8-7.4,0.8s-1.4,1.7-1.4,4.4s-0.7,4.5,0.7,7.3s0.8,4.9,3.5,5.1
		s6.7,1.2,8.2,0s4.3-2.9,6.5-3.2s10-2.5,11.3-2.5c1.4,0,6-0.3,8.6-1.7c2.5-1.4,6-3.5,6.9-4.4S591.3,812.4,590.5,811.3z"/>
	<path class="st0" d="M612.7,840.1h-26.2c0.3,1.4,5,7.4,7.4,9.3s5.8,3.7,10.4,5.4c4.6,1.7,7.5,0.9,13,0s6-3.9,6-5.6s-3-4.3-4.6-6
		S612.7,840.1,612.7,840.1z"/>
	<path class="st0" d="M690.8,817.8c1,0.5,10.2-0.2,14.1-1.2s4.9-3.3,5.6-4.3s1-4,1-4h-14.8c0,0-12.7,1.6-14.1,1.4s-9.7,1.2-11.5,1.2
		c-1.7,0-7.1-0.2-8.9,0c-1.7,0.2-7.3,1.4-8.7,3.5s-7.5,1.7-10.1,3c-2.6,1.2-5.6,0.2-8.3-0.9s-10.9,0.5-13.2-0.3s-4.9-2.1-8.9-3
		s-6.9,4.2-6.9,4.2s0.3,3.6,1.4,5c1,1.4,7.5,3.3,10.9,4.2s6.8,2.4,11.3,3.3s6.8,0,10.4-1.9s9.9-3,13.2-4.5c3.3-1.6,5.9-1.4,8.7-2.8
		c2.8-1.4,6.6-2.6,7.3-2.6C670.2,818,689.8,817.2,690.8,817.8z"/>
	<path class="st0" d="M762.6,812c-1.9-1.4-10,2.8-11.6,3.2c-1.6,0.5-7.4,3.2-11.1,3.9c-3.7,0.7-6.7,0.9-10.9,1.2
		c-4.2,0.2-9,1.6-10.6,2.1s-12.5,6-14.8,7.7s-9.3,1.6-11.8,3s-6.5,3.9-6.9,5.6s-3.9,10.6-6.5,12c-2.5,1.4-4.4,2.8-7.2,5.2
		s-6.5,11.2-6.5,11.2c7.2,0.9,18.7-7.2,21.5-8.8s5.3-2.1,9.7-3.5s5.8-4.4,7.9-6.8c2.1-2.4,11.1-6.8,11.9-7.9c0.8-1,4.3-2.9,6.6-5.2
		s8.1-2.8,11.8-4.8s6-2.4,7.9-3.1s12.7-4.4,16.9-4.6c4.2-0.2,6.7-5.3,7.6-6.5C767.4,814.7,764.4,813.3,762.6,812z"/>
</g>
<g>
	
		<radialGradient id="SVGID_1_" cx="347.1748" cy="626.6935" r="49.6152" gradientTransform="matrix(0.8856 0 0 -0.8856 -21.0572 778.9448)" gradientUnits="userSpaceOnUse">
		<stop  offset="0" style="stop-color:#FFFFFF;stop-opacity:0"/>
		<stop  offset="1" style="stop-color:#101010;stop-opacity:0.1"/>
	</radialGradient>
	<circle class="st1" cx="286.4" cy="224" r="43.9"/>
	
		<radialGradient id="SVGID_2_" cx="347.1748" cy="626.6935" r="36.374" gradientTransform="matrix(0.8856 0 0 -0.8856 -21.0572 778.9448)" gradientUnits="userSpaceOnUse">
		<stop  offset="0" style="stop-color:#FFFFFF;stop-opacity:0"/>
		<stop  offset="1" style="stop-color:#101010;stop-opacity:0.1"/>
	</radialGradient>
	<circle class="st2" cx="286.4" cy="224" r="32.2"/>
	
		<radialGradient id="SVGID_3_" cx="378.4121" cy="618.7911" r="15.96" gradientTransform="matrix(0.8364 0 0 -0.8364 -30.0464 741.5245)" gradientUnits="userSpaceOnUse">
		<stop  offset="0" style="stop-color:#FFFFFF;stop-opacity:0"/>
		<stop  offset="1" style="stop-color:#101010;stop-opacity:0.1"/>
	</radialGradient>
	<circle class="st3" cx="286.4" cy="224" r="13.3"/>
	<circle class="st4" cx="286.4" cy="224" r="7.2"/>
</g>
<g>
	
		<radialGradient id="SVGID_4_" cx="308.4727" cy="240.7522" r="49.8316" gradientTransform="matrix(0.8826 0 0 -0.8826 -21.4835 778.6305)" gradientUnits="userSpaceOnUse">
		<stop  offset="0" style="stop-color:#FFFFFF;stop-opacity:0"/>
		<stop  offset="1" style="stop-color:#101010;stop-opacity:0.1"/>
	</radialGradient>
	<circle class="st5" cx="250.8" cy="566.1" r="43.9"/>
	
		<radialGradient id="SVGID_5_" cx="308.5507" cy="240.7522" r="36.4584" gradientTransform="matrix(0.8826 0 0 -0.8826 -21.4835 778.6305)" gradientUnits="userSpaceOnUse">
		<stop  offset="0" style="stop-color:#FFFFFF;stop-opacity:0"/>
		<stop  offset="1" style="stop-color:#101010;stop-opacity:0.1"/>
	</radialGradient>
	<circle class="st6" cx="250.8" cy="566.1" r="32.2"/>
	
		<radialGradient id="SVGID_6_" cx="337.4499" cy="210.1232" r="16.0014" gradientTransform="matrix(0.8336 0 0 -0.8336 -30.4427 741.3351)" gradientUnits="userSpaceOnUse">
		<stop  offset="0" style="stop-color:#FFFFFF;stop-opacity:0"/>
		<stop  offset="1" style="stop-color:#101010;stop-opacity:0.1"/>
	</radialGradient>
	<circle class="st7" cx="250.8" cy="566.1" r="13.3"/>
	<circle class="st4" cx="250.8" cy="566.1" r="7.2"/>
</g>
<g>
	
		<radialGradient id="SVGID_7_" cx="298.9495" cy="532.3018" r="49.8387" gradientTransform="matrix(0.8826 0 0 -0.8826 -21.4835 778.6305)" gradientUnits="userSpaceOnUse">
		<stop  offset="0" style="stop-color:#FFFFFF;stop-opacity:0"/>
		<stop  offset="1" style="stop-color:#101010;stop-opacity:0.1"/>
	</radialGradient>
	<circle class="st8" cx="242.4" cy="308.8" r="43.9"/>
	
		<radialGradient id="SVGID_8_" cx="298.9495" cy="532.3018" r="36.5042" gradientTransform="matrix(0.8826 0 0 -0.8826 -21.4835 778.6305)" gradientUnits="userSpaceOnUse">
		<stop  offset="0" style="stop-color:#FFFFFF;stop-opacity:0"/>
		<stop  offset="1" style="stop-color:#101010;stop-opacity:0.1"/>
	</radialGradient>
	<circle class="st9" cx="242.4" cy="308.8" r="32.2"/>
	
		<radialGradient id="SVGID_9_" cx="327.3504" cy="518.8871" r="16.0014" gradientTransform="matrix(0.8336 0 0 -0.8336 -30.4427 741.3351)" gradientUnits="userSpaceOnUse">
		<stop  offset="0" style="stop-color:#FFFFFF;stop-opacity:0"/>
		<stop  offset="1" style="stop-color:#101010;stop-opacity:0.1"/>
	</radialGradient>
	<circle class="st10" cx="242.4" cy="308.8" r="13.3"/>
	<circle class="st4" cx="242.4" cy="308.8" r="7.2"/>
</g>
<g>
	
		<radialGradient id="SVGID_10_" cx="748.0447" cy="497.3153" r="47.4108" gradientTransform="matrix(0.9267 0 0 -0.9267 -51.9648 800.577)" gradientUnits="userSpaceOnUse">
		<stop  offset="0" style="stop-color:#FFFFFF;stop-opacity:0"/>
		<stop  offset="1" style="stop-color:#101010;stop-opacity:0.1"/>
	</radialGradient>
	<circle class="st11" cx="641.3" cy="339.7" r="43.9"/>
	
		<radialGradient id="SVGID_11_" cx="748.0447" cy="497.3153" r="34.7115" gradientTransform="matrix(0.9267 0 0 -0.9267 -51.9648 800.577)" gradientUnits="userSpaceOnUse">
		<stop  offset="0" style="stop-color:#FFFFFF;stop-opacity:0"/>
		<stop  offset="1" style="stop-color:#101010;stop-opacity:0.1"/>
	</radialGradient>
	<circle class="st12" cx="641.3" cy="339.7" r="32.2"/>
	
		<radialGradient id="SVGID_12_" cx="802.8203" cy="481.7151" r="15.2394" gradientTransform="matrix(0.8753 0 0 -0.8753 -61.372 761.4168)" gradientUnits="userSpaceOnUse">
		<stop  offset="0" style="stop-color:#FFFFFF;stop-opacity:0"/>
		<stop  offset="1" style="stop-color:#101010;stop-opacity:0.1"/>
	</radialGradient>
	<circle class="st13" cx="641.3" cy="339.7" r="13.3"/>
	<circle class="st4" cx="641.3" cy="339.7" r="7.2"/>
</g>
<g>
	
		<radialGradient id="SVGID_13_" cx="556.6121" cy="263.2151" r="49.7919" gradientTransform="matrix(0.8826 0 0 -0.8826 -21.4835 778.6305)" gradientUnits="userSpaceOnUse">
		<stop  offset="0" style="stop-color:#FFFFFF;stop-opacity:0"/>
		<stop  offset="1" style="stop-color:#101010;stop-opacity:0.1"/>
	</radialGradient>
	<circle class="st14" cx="469.7" cy="546.3" r="43.9"/>
	
		<radialGradient id="SVGID_14_" cx="556.6121" cy="263.2151" r="36.4573" gradientTransform="matrix(0.8826 0 0 -0.8826 -21.4835 778.6305)" gradientUnits="userSpaceOnUse">
		<stop  offset="0" style="stop-color:#FFFFFF;stop-opacity:0"/>
		<stop  offset="1" style="stop-color:#101010;stop-opacity:0.1"/>
	</radialGradient>
	<circle class="st15" cx="469.7" cy="546.3" r="32.2"/>
	
		<radialGradient id="SVGID_15_" cx="600.1086" cy="233.9471" r="15.9923" gradientTransform="matrix(0.8336 0 0 -0.8336 -30.4427 741.3351)" gradientUnits="userSpaceOnUse">
		<stop  offset="0" style="stop-color:#FFFFFF;stop-opacity:0"/>
		<stop  offset="1" style="stop-color:#101010;stop-opacity:0.1"/>
	</radialGradient>
	<circle class="st16" cx="469.7" cy="546.3" r="13.3"/>
	<circle class="st4" cx="469.7" cy="546.3" r="7.2"/>
</g>
<g>
	
		<radialGradient id="SVGID_16_" cx="317.5876" cy="141.8451" r="49.7813" gradientTransform="matrix(0.8826 0 0 -0.8826 -21.4835 778.6305)" gradientUnits="userSpaceOnUse">
		<stop  offset="0" style="stop-color:#FFFFFF;stop-opacity:0"/>
		<stop  offset="1" style="stop-color:#101010;stop-opacity:0.1"/>
	</radialGradient>
	<circle class="st17" cx="258.8" cy="653.4" r="43.9"/>
	
		<radialGradient id="SVGID_17_" cx="317.5876" cy="141.8451" r="36.447" gradientTransform="matrix(0.8826 0 0 -0.8826 -21.4835 778.6305)" gradientUnits="userSpaceOnUse">
		<stop  offset="0" style="stop-color:#FFFFFF;stop-opacity:0"/>
		<stop  offset="1" style="stop-color:#101010;stop-opacity:0.1"/>
	</radialGradient>
	<circle class="st18" cx="258.8" cy="653.4" r="32.2"/>
	
		<radialGradient id="SVGID_18_" cx="347.0809" cy="105.3437" r="16.0115" gradientTransform="matrix(0.8336 0 0 -0.8336 -30.4427 741.3351)" gradientUnits="userSpaceOnUse">
		<stop  offset="0" style="stop-color:#FFFFFF;stop-opacity:0"/>
		<stop  offset="1" style="stop-color:#101010;stop-opacity:0.1"/>
	</radialGradient>
	<circle class="st19" cx="258.8" cy="653.4" r="13.3"/>
	<circle class="st4" cx="258.8" cy="653.4" r="7.2"/>
</g>
<g>
	
		<radialGradient id="SVGID_19_" cx="596.6329" cy="74.3604" r="47.4703" gradientTransform="matrix(0.9246 0 0 -0.9246 -44.26 781.7558)" gradientUnits="userSpaceOnUse">
		<stop  offset="0" style="stop-color:#FFFFFF;stop-opacity:0"/>
		<stop  offset="1" style="stop-color:#101010;stop-opacity:0.1"/>
	</radialGradient>
	<circle class="st20" cx="507.3" cy="713" r="43.9"/>
	
		<radialGradient id="SVGID_20_" cx="596.6329" cy="74.3604" r="34.7421" gradientTransform="matrix(0.9246 0 0 -0.9246 -44.26 781.7558)" gradientUnits="userSpaceOnUse">
		<stop  offset="0" style="stop-color:#FFFFFF;stop-opacity:0"/>
		<stop  offset="1" style="stop-color:#101010;stop-opacity:0.1"/>
	</radialGradient>
	<circle class="st21" cx="507.3" cy="713" r="32.2"/>
	
		<radialGradient id="SVGID_21_" cx="642.4825" cy="33.896" r="15.2741" gradientTransform="matrix(0.8733 0 0 -0.8733 -53.6458 742.6844)" gradientUnits="userSpaceOnUse">
		<stop  offset="0" style="stop-color:#FFFFFF;stop-opacity:0"/>
		<stop  offset="1" style="stop-color:#101010;stop-opacity:0.1"/>
	</radialGradient>
	<circle class="st22" cx="507.3" cy="713" r="13.3"/>
	<circle class="st4" cx="507.3" cy="713" r="7.2"/>
</g>
<g>
	
		<radialGradient id="SVGID_22_" cx="353.1512" cy="436.1681" r="49.7813" gradientTransform="matrix(0.8826 0 0 -0.8826 -21.4835 778.6305)" gradientUnits="userSpaceOnUse">
		<stop  offset="0" style="stop-color:#FFFFFF;stop-opacity:0"/>
		<stop  offset="1" style="stop-color:#101010;stop-opacity:0.1"/>
	</radialGradient>
	<circle class="st23" cx="290.2" cy="393.7" r="43.9"/>
	
		<radialGradient id="SVGID_23_" cx="353.1512" cy="436.1681" r="36.447" gradientTransform="matrix(0.8826 0 0 -0.8826 -21.4835 778.6305)" gradientUnits="userSpaceOnUse">
		<stop  offset="0" style="stop-color:#FFFFFF;stop-opacity:0"/>
		<stop  offset="1" style="stop-color:#101010;stop-opacity:0.1"/>
	</radialGradient>
	<circle class="st24" cx="290.2" cy="393.7" r="32.2"/>
	
		<radialGradient id="SVGID_24_" cx="384.7401" cy="416.9921" r="15.9965" gradientTransform="matrix(0.8336 0 0 -0.8336 -30.4427 741.3351)" gradientUnits="userSpaceOnUse">
		<stop  offset="0" style="stop-color:#FFFFFF;stop-opacity:0"/>
		<stop  offset="1" style="stop-color:#101010;stop-opacity:0.1"/>
	</radialGradient>
	<circle class="st25" cx="290.2" cy="393.7" r="13.3"/>
	<circle class="st4" cx="290.2" cy="393.7" r="7.2"/>
</g>
<g>
	
		<radialGradient id="SVGID_25_" cx="407.3233" cy="709.8273" r="47.6169" gradientTransform="matrix(0.9227 0 0 -0.9227 -36.2331 807.0364)" gradientUnits="userSpaceOnUse">
		<stop  offset="0" style="stop-color:#FFFFFF;stop-opacity:0"/>
		<stop  offset="1" style="stop-color:#101010;stop-opacity:0.1"/>
	</radialGradient>
	<circle class="st26" cx="339.6" cy="152.1" r="43.9"/>
	
		<radialGradient id="SVGID_26_" cx="407.3935" cy="709.8273" r="34.8661" gradientTransform="matrix(0.9227 0 0 -0.9227 -36.2331 807.0364)" gradientUnits="userSpaceOnUse">
		<stop  offset="0" style="stop-color:#FFFFFF;stop-opacity:0"/>
		<stop  offset="1" style="stop-color:#101010;stop-opacity:0.1"/>
	</radialGradient>
	<circle class="st27" cx="339.6" cy="152.1" r="32.2"/>
	
		<radialGradient id="SVGID_27_" cx="442.1079" cy="706.8116" r="15.3048" gradientTransform="matrix(0.8715 0 0 -0.8715 -45.5995 768.0458)" gradientUnits="userSpaceOnUse">
		<stop  offset="0" style="stop-color:#FFFFFF;stop-opacity:0"/>
		<stop  offset="1" style="stop-color:#101010;stop-opacity:0.1"/>
	</radialGradient>
	<circle class="st28" cx="339.6" cy="152.1" r="13.3"/>
	<circle class="st4" cx="339.6" cy="152.1" r="7.2"/>
</g>
<g>
	
		<radialGradient id="SVGID_28_" cx="187.5944" cy="709.8" r="49.7415" gradientTransform="matrix(0.8826 0 0 -0.8826 -21.4835 778.6305)" gradientUnits="userSpaceOnUse">
		<stop  offset="0" style="stop-color:#FFFFFF;stop-opacity:0"/>
		<stop  offset="1" style="stop-color:#101010;stop-opacity:0.1"/>
	</radialGradient>
	<circle class="st29" cx="144.1" cy="152.1" r="43.9"/>
	
		<radialGradient id="SVGID_29_" cx="187.5126" cy="709.8" r="36.4478" gradientTransform="matrix(0.8826 0 0 -0.8826 -21.4835 778.6305)" gradientUnits="userSpaceOnUse">
		<stop  offset="0" style="stop-color:#FFFFFF;stop-opacity:0"/>
		<stop  offset="1" style="stop-color:#101010;stop-opacity:0.1"/>
	</radialGradient>
	<circle class="st30" cx="144.1" cy="152.1" r="32.2"/>
	
		<radialGradient id="SVGID_30_" cx="209.2912" cy="706.7719" r="16.0014" gradientTransform="matrix(0.8336 0 0 -0.8336 -30.4427 741.3351)" gradientUnits="userSpaceOnUse">
		<stop  offset="0" style="stop-color:#FFFFFF;stop-opacity:0"/>
		<stop  offset="1" style="stop-color:#101010;stop-opacity:0.1"/>
	</radialGradient>
	<circle class="st31" cx="144.1" cy="152.1" r="13.4"/>
	<circle class="st4" cx="144.1" cy="152.1" r="7.3"/>
</g>
<g>
	<path class="st32" d="M208.5,139.9h1.9l3.8,10.4l3.8-10.4h1.9l-4.8,12.6h-1.7L208.5,139.9z"/>
	<path class="st32" d="M221.7,141.6v-1.8h1.8v1.8H221.7z M221.8,152.4V143h1.7v9.4H221.8z"/>
	<path class="st32" d="M226.1,147.8c0-3.3,1.4-5,4.1-5c0,0,0,0,0,0c1.3,0,2.3,0.4,3,1.2c0.8,0.8,1.1,1.9,1.1,3.3
		c0,0.4,0,0.9-0.1,1.3h-6.5c0.2,1.6,1.1,2.4,2.6,2.4c1.3,0,2.4-0.2,3.2-0.7v1.6c-1,0.4-2.1,0.6-3.3,0.6c0,0,0,0-0.1,0
		c-0.6,0-1.1-0.1-1.5-0.2c-0.5-0.1-0.9-0.4-1.4-0.7c-0.4-0.3-0.8-0.8-1-1.5C226.2,149.6,226.1,148.8,226.1,147.8z M227.8,147.2h4.8
		c0-0.3-0.1-0.6-0.2-0.9c-0.1-0.3-0.2-0.6-0.4-0.9s-0.4-0.5-0.7-0.7c-0.3-0.2-0.7-0.3-1.1-0.3c-0.8,0-1.4,0.2-1.7,0.6
		C228.1,145.5,227.9,146.2,227.8,147.2z"/>
	<path class="st32" d="M235.5,144.5V143h1.6v-2.8h1.7v2.8h2.5v1.5h-2.5v5.4c0,0.7,0.5,1.1,1.4,1.1c0,0,0,0,0,0
		c0.4,0,0.8-0.1,1.1-0.3v1.6c-0.4,0.2-0.9,0.3-1.3,0.3c0,0,0,0,0,0c-0.2,0-0.5,0-0.7-0.1c-0.3-0.1-0.6-0.2-0.9-0.3
		c-0.4-0.2-0.7-0.4-0.9-0.8c-0.2-0.4-0.3-0.9-0.3-1.5v-5.3H235.5z"/>
	<path class="st32" d="M243.6,152.4v-8.6c1.3-0.6,2.6-1,4-1c1.2,0,2.1,0.3,2.8,0.9c0.7,0.6,1,1.5,1,2.6v6.1h-1.8v-6.2
		c0-0.6-0.1-1-0.4-1.3c-0.3-0.3-0.9-0.5-1.7-0.5c-0.8,0-1.5,0.1-2.2,0.3v7.6H243.6z"/>
	<path class="st32" d="M253.6,149.5c0-0.9,0.4-1.7,1.2-2.2s1.9-0.8,3.2-0.8c0.6,0,1.2,0,1.7,0.1c0-0.8-0.3-1.4-0.6-1.7
		c-0.4-0.3-1-0.5-1.9-0.5c-0.8,0-1.7,0.2-2.6,0.5v-1.5c0.9-0.3,1.8-0.5,2.8-0.5c1.3,0,2.3,0.3,3,1c0.7,0.7,1.1,1.7,1.1,2.9v2.7
		c0,0.2,0,0.4-0.1,0.6c0,0.2-0.1,0.5-0.3,0.8c-0.2,0.3-0.4,0.6-0.6,0.8c-0.3,0.2-0.6,0.4-1.2,0.6s-1.1,0.3-1.8,0.3
		c-0.7,0-1.3-0.1-1.8-0.3s-0.9-0.4-1.2-0.6c-0.3-0.2-0.5-0.5-0.6-0.8c-0.2-0.3-0.3-0.6-0.3-0.8C253.6,149.9,253.6,149.7,253.6,149.5
		z M255.3,149.4c0,1.1,0.8,1.6,2.3,1.6c0,0,0,0,0,0c1.4,0,2.1-0.5,2.1-1.5V148c-0.5-0.1-1-0.1-1.6-0.1c-0.3,0-0.5,0-0.8,0.1
		c-0.3,0-0.6,0.1-0.9,0.2c-0.3,0.1-0.6,0.3-0.8,0.5C255.4,148.9,255.3,149.1,255.3,149.4z"/>
	<path class="st32" d="M263.9,152.4v-8.6c1.3-0.6,2.6-0.9,3.9-0.9c1,0,1.9,0.2,2.5,0.7c1.2-0.5,2.3-0.7,3.4-0.7
		c1.2,0,2.1,0.3,2.8,0.9c0.7,0.6,1,1.5,1,2.6v6h-1.7v-6.2c0-0.5-0.1-1-0.4-1.3s-0.8-0.5-1.5-0.5c-0.8,0-1.7,0.2-2.5,0.5
		c0.1,0.4,0.2,0.8,0.2,1.3c0,0,0,0,0,0.1v6h-1.7v-6.1c0-0.6-0.1-1-0.4-1.3s-0.9-0.5-1.7-0.5c-0.7,0-1.4,0.1-2.1,0.3v7.6H263.9z"/>
</g>
<g>
	<path class="st32" d="M9.3,154.8v-12.4h1.9l4.1,5.4l4.1-5.4h1.9v12.4h-1.7V145l-4.2,5.6L11,145v9.8H9.3z"/>
	<path class="st32" d="M23.4,145.5h1.8l2.5,7l2.5-7H32l-3.8,10.3c-0.7,1.8-1.6,2.7-2.9,2.7h0c-0.4,0-0.8,0-1.3-0.1v-1.5
		c0.4,0.1,0.7,0.1,1,0.2c0.8,0,1.4-0.7,1.9-2.1L23.4,145.5z"/>
	<path class="st32" d="M33.1,151.9c0-0.9,0.4-1.6,1.2-2.2c0.8-0.5,1.8-0.8,3.2-0.8c0.6,0,1.1,0,1.7,0.1c0-0.8-0.2-1.3-0.6-1.7
		s-1-0.5-1.9-0.5c-0.8,0-1.7,0.2-2.6,0.5v-1.5c0.9-0.3,1.8-0.5,2.8-0.5c1.3,0,2.3,0.3,3,1c0.7,0.7,1.1,1.6,1.1,2.9v2.7
		c0,0.2,0,0.4-0.1,0.6s-0.1,0.4-0.3,0.8c-0.1,0.3-0.4,0.6-0.6,0.8c-0.3,0.2-0.6,0.4-1.1,0.6S37.7,155,37,155c-0.7,0-1.3-0.1-1.8-0.3
		s-0.9-0.4-1.2-0.6c-0.3-0.2-0.5-0.5-0.6-0.8c-0.2-0.3-0.3-0.6-0.3-0.8C33.1,152.3,33.1,152.1,33.1,151.9z M34.8,151.9
		c0,1,0.7,1.6,2.2,1.6c0,0,0,0,0,0c1.4,0,2.1-0.5,2.1-1.5v-1.5c-0.4-0.1-1-0.1-1.6-0.1c-0.2,0-0.5,0-0.8,0.1c-0.3,0-0.6,0.1-0.9,0.2
		c-0.3,0.1-0.6,0.3-0.8,0.5C34.9,151.3,34.8,151.6,34.8,151.9z"/>
	<path class="st32" d="M43.3,154.8v-8.5c1.3-0.6,2.6-1,4-1c1.2,0,2.1,0.3,2.8,0.9c0.7,0.6,1,1.5,1,2.5v6h-1.7v-6.1
		c0-0.5-0.1-1-0.4-1.3c-0.3-0.3-0.8-0.5-1.7-0.5c-0.8,0-1.5,0.1-2.2,0.3v7.5H43.3z"/>
	<path class="st32" d="M54.1,154.8v-8.5c1.2-0.6,2.5-0.9,3.9-0.9c1,0,1.8,0.2,2.5,0.7c1.2-0.5,2.3-0.7,3.4-0.7
		c1.2,0,2.1,0.3,2.7,0.9c0.7,0.6,1,1.5,1,2.6v6h-1.7v-6.1c0-0.5-0.1-1-0.4-1.3s-0.8-0.5-1.5-0.5c-0.8,0-1.6,0.2-2.5,0.5
		c0.1,0.4,0.2,0.8,0.2,1.3c0,0,0,0,0,0.1v6H60v-6.1c0-0.5-0.1-1-0.4-1.3c-0.3-0.3-0.9-0.5-1.7-0.5c-0.7,0-1.3,0.1-2,0.3v7.5H54.1z"
		/>
	<path class="st32" d="M69.7,151.9c0-0.9,0.4-1.6,1.2-2.2c0.8-0.5,1.8-0.8,3.2-0.8c0.6,0,1.1,0,1.7,0.1c0-0.8-0.2-1.3-0.6-1.7
		s-1-0.5-1.9-0.5c-0.8,0-1.7,0.2-2.6,0.5v-1.5c0.9-0.3,1.8-0.5,2.8-0.5c1.3,0,2.3,0.3,3,1c0.7,0.7,1.1,1.6,1.1,2.9v2.7
		c0,0.2,0,0.4-0.1,0.6c0,0.2-0.1,0.4-0.3,0.8c-0.1,0.3-0.4,0.6-0.6,0.8c-0.3,0.2-0.6,0.4-1.1,0.6c-0.5,0.2-1.1,0.2-1.8,0.2
		c-0.7,0-1.3-0.1-1.8-0.3c-0.5-0.2-0.9-0.4-1.2-0.6c-0.3-0.2-0.5-0.5-0.6-0.8c-0.2-0.3-0.3-0.6-0.3-0.8
		C69.8,152.3,69.7,152.1,69.7,151.9z M71.4,151.9c0,1,0.7,1.6,2.2,1.6c0,0,0,0,0,0c1.4,0,2.1-0.5,2.1-1.5v-1.5
		c-0.4-0.1-1-0.1-1.6-0.1c-0.2,0-0.5,0-0.8,0.1c-0.3,0-0.6,0.1-0.9,0.2c-0.3,0.1-0.6,0.3-0.8,0.5C71.5,151.3,71.4,151.6,71.4,151.9z
		"/>
	<path class="st32" d="M79.9,154.8v-8.5c1.5-0.6,3.1-0.9,4.5-0.9v1.6c-0.9,0-1.9,0.1-2.8,0.4v7.5H79.9z"/>
</g>
<g>
	<path class="st32" d="M190.1,229.4v-12.6h1.8v10.9h6.2v1.6H190.1z"/>
	<path class="st32" d="M199.5,226.4c0-0.9,0.4-1.7,1.2-2.2s1.9-0.8,3.2-0.8c0.6,0,1.2,0,1.7,0.1c0-0.8-0.3-1.4-0.6-1.7
		c-0.4-0.3-1-0.5-1.9-0.5c-0.8,0-1.7,0.2-2.6,0.5v-1.5c0.9-0.3,1.8-0.5,2.8-0.5c1.3,0,2.3,0.3,3,1s1.1,1.7,1.1,2.9v2.7
		c0,0.2,0,0.4-0.1,0.6c0,0.2-0.1,0.5-0.3,0.8c-0.2,0.3-0.4,0.6-0.6,0.8c-0.3,0.2-0.6,0.4-1.2,0.6s-1.1,0.3-1.8,0.3
		c-0.7,0-1.3-0.1-1.8-0.3c-0.5-0.2-0.9-0.4-1.2-0.6c-0.3-0.2-0.5-0.5-0.6-0.8c-0.2-0.3-0.3-0.6-0.3-0.8
		C199.5,226.8,199.5,226.6,199.5,226.4z M201.2,226.4c0,1.1,0.8,1.6,2.3,1.6c0,0,0,0,0,0c1.4,0,2.1-0.5,2.1-1.5V225
		c-0.5-0.1-1-0.1-1.6-0.1c-0.3,0-0.5,0-0.8,0.1c-0.3,0-0.6,0.1-0.9,0.2c-0.3,0.1-0.6,0.3-0.8,0.5
		C201.3,225.8,201.2,226.1,201.2,226.4z"/>
	<path class="st32" d="M209.5,227.1c-0.3-0.7-0.4-1.5-0.4-2.4c0-1,0.1-1.8,0.4-2.4c0.3-0.7,0.6-1.2,1.1-1.5c0.5-0.3,0.9-0.6,1.4-0.7
		c0.5-0.1,1-0.2,1.6-0.2c0.6,0,1.1,0.1,1.6,0.2c0.5,0.1,0.9,0.4,1.4,0.7c0.5,0.3,0.8,0.8,1.1,1.5c0.3,0.7,0.4,1.5,0.4,2.4
		c0,1-0.1,1.8-0.4,2.4c-0.3,0.7-0.6,1.2-1.1,1.5c-0.5,0.3-0.9,0.6-1.4,0.7c-0.5,0.1-1,0.2-1.6,0.2c-0.6,0-1.1-0.1-1.6-0.2
		c-0.5-0.1-0.9-0.4-1.4-0.7C210.1,228.3,209.8,227.8,209.5,227.1z M211.1,223c-0.1,0.5-0.2,1-0.2,1.7c0,0.7,0.1,1.3,0.2,1.7
		c0.1,0.5,0.3,0.8,0.6,1c0.3,0.2,0.6,0.4,0.8,0.4c0.3,0.1,0.6,0.1,1,0.1c0.4,0,0.7,0,1-0.1c0.3-0.1,0.6-0.2,0.8-0.4
		c0.3-0.2,0.5-0.6,0.6-1c0.1-0.5,0.2-1,0.2-1.7c0-0.7-0.1-1.3-0.2-1.7c-0.1-0.5-0.3-0.8-0.6-1c-0.3-0.2-0.6-0.4-0.8-0.4
		c-0.3-0.1-0.6-0.1-1-0.1c-0.4,0-0.7,0-1,0.1c-0.3,0.1-0.6,0.2-0.8,0.4C211.4,222.2,211.2,222.5,211.1,223z"/>
	<path class="st32" d="M219.8,222.7c0-0.8,0.3-1.4,0.8-2c0.6-0.5,1.4-0.8,2.5-0.8c0.8,0,1.7,0.2,2.5,0.6v1.5
		c-0.8-0.4-1.6-0.6-2.3-0.6c-1.2,0-1.9,0.4-1.9,1.2c0,0.3,0.2,0.5,0.5,0.7c0.3,0.2,0.7,0.3,1.2,0.5c0.5,0.1,0.9,0.3,1.4,0.5
		c0.5,0.2,0.9,0.5,1.2,0.9c0.3,0.4,0.5,1,0.5,1.6c0,0.8-0.3,1.4-0.9,2c-0.6,0.5-1.4,0.8-2.6,0.8c-1,0-1.9-0.2-2.7-0.7v-1.6
		c0.8,0.5,1.7,0.7,2.6,0.7c0,0,0,0,0,0c0.6,0,1.1-0.1,1.4-0.3c0.3-0.2,0.5-0.5,0.5-0.8c0-0.4-0.2-0.7-0.5-0.9
		c-0.3-0.2-0.7-0.4-1.2-0.6c-0.5-0.1-0.9-0.3-1.4-0.4c-0.5-0.2-0.9-0.4-1.2-0.8C220,223.7,219.8,223.2,219.8,222.7z"/>
</g>
<g>
	<path class="st32" d="M112.7,301.6v-1.6h10.2v1.6h-4.2v10.9h-1.8v-10.9H112.7z"/>
	<path class="st32" d="M124.7,312.5v-13h1.7v3.9c0.8-0.3,1.6-0.5,2.5-0.5c1.2,0,2.1,0.3,2.7,1c0.6,0.7,1,1.7,1,3v5.5h-1.8v-5.6
		c0-0.9-0.2-1.5-0.6-1.8c-0.4-0.3-0.9-0.5-1.5-0.5c-0.8,0-1.5,0.2-2.3,0.5v7.5H124.7z"/>
	<path class="st32" d="M134.7,309.5c0-0.9,0.4-1.7,1.2-2.2s1.9-0.8,3.2-0.8c0.6,0,1.2,0,1.7,0.1c0-0.8-0.3-1.4-0.6-1.7
		s-1-0.5-1.9-0.5c-0.8,0-1.7,0.2-2.6,0.5v-1.5c0.9-0.3,1.8-0.5,2.8-0.5c1.3,0,2.3,0.3,3,1c0.7,0.7,1.1,1.7,1.1,2.9v2.7
		c0,0.2,0,0.4-0.1,0.6c0,0.2-0.1,0.5-0.3,0.8c-0.2,0.3-0.4,0.6-0.6,0.8c-0.3,0.2-0.6,0.4-1.2,0.6c-0.5,0.2-1.1,0.3-1.8,0.3
		c-0.7,0-1.3-0.1-1.8-0.3c-0.5-0.2-0.9-0.4-1.2-0.6c-0.3-0.2-0.5-0.5-0.6-0.8c-0.2-0.3-0.3-0.6-0.3-0.8
		C134.7,309.9,134.7,309.7,134.7,309.5z M136.4,309.5c0,1.1,0.8,1.6,2.3,1.6c0,0,0,0,0,0c1.4,0,2.1-0.5,2.1-1.5v-1.5
		c-0.5-0.1-1-0.1-1.6-0.1c-0.3,0-0.5,0-0.8,0.1c-0.3,0-0.6,0.1-0.9,0.2c-0.3,0.1-0.6,0.3-0.8,0.5
		C136.5,308.9,136.4,309.2,136.4,309.5z"/>
	<path class="st32" d="M145.2,301.6v-1.8h1.8v1.8H145.2z M145.2,312.5v-9.4h1.7v9.4H145.2z"/>
	<path class="st32" d="M150.1,312.5v-13h1.7v13H150.1z"/>
	<path class="st32" d="M154.3,309.5c0-0.9,0.4-1.7,1.2-2.2s1.9-0.8,3.2-0.8c0.6,0,1.2,0,1.7,0.1c0-0.8-0.3-1.4-0.6-1.7
		s-1-0.5-1.9-0.5c-0.8,0-1.7,0.2-2.6,0.5v-1.5c0.9-0.3,1.8-0.5,2.8-0.5c1.3,0,2.3,0.3,3,1c0.7,0.7,1.1,1.7,1.1,2.9v2.7
		c0,0.2,0,0.4-0.1,0.6s-0.1,0.5-0.3,0.8c-0.2,0.3-0.4,0.6-0.6,0.8c-0.3,0.2-0.6,0.4-1.2,0.6c-0.5,0.2-1.1,0.3-1.8,0.3
		c-0.7,0-1.3-0.1-1.8-0.3c-0.5-0.2-0.9-0.4-1.2-0.6c-0.3-0.2-0.5-0.5-0.6-0.8c-0.2-0.3-0.3-0.6-0.3-0.8
		C154.3,309.9,154.3,309.7,154.3,309.5z M156,309.5c0,1.1,0.8,1.6,2.3,1.6c0,0,0,0,0,0c1.4,0,2.1-0.5,2.1-1.5v-1.5
		c-0.5-0.1-1-0.1-1.6-0.1c-0.3,0-0.5,0-0.8,0.1c-0.3,0-0.6,0.1-0.9,0.2c-0.3,0.1-0.6,0.3-0.8,0.5C156.1,308.9,156,309.2,156,309.5z"
		/>
	<path class="st32" d="M164.7,312.5v-8.6c1.3-0.6,2.6-1,4-1c1.2,0,2.1,0.3,2.8,0.9c0.7,0.6,1,1.5,1,2.6v6.1h-1.8v-6.2
		c0-0.6-0.1-1-0.4-1.3c-0.3-0.3-0.9-0.5-1.7-0.5c-0.8,0-1.5,0.1-2.2,0.3v7.6H164.7z"/>
	<path class="st32" d="M174.8,307.7c0-0.9,0.1-1.7,0.4-2.4c0.3-0.7,0.6-1.1,1.1-1.5c0.4-0.3,0.9-0.6,1.4-0.7c0.5-0.1,1-0.2,1.5-0.2
		c0.7,0,1.3,0.1,2,0.3v-3.7h1.7v10.1c0,0.2,0,0.4-0.1,0.6c0,0.2-0.1,0.5-0.3,0.8c-0.1,0.3-0.4,0.6-0.6,0.8c-0.3,0.2-0.6,0.4-1.1,0.6
		c-0.5,0.2-1.1,0.3-1.8,0.3c-0.4,0-0.7,0-1-0.1c-0.3-0.1-0.7-0.2-1.1-0.4c-0.4-0.2-0.7-0.5-1-0.8c-0.3-0.3-0.5-0.8-0.7-1.4
		C174.9,309.2,174.8,308.5,174.8,307.7z M176.5,307.7c0,0.7,0.1,1.3,0.2,1.8c0.1,0.5,0.3,0.8,0.6,1c0.3,0.2,0.5,0.4,0.8,0.4
		c0.3,0.1,0.5,0.1,0.9,0.1c1.4,0,2.2-0.5,2.2-1.4v-4.8c-0.6-0.3-1.3-0.4-2-0.4c-0.4,0-0.7,0-1,0.1c-0.3,0.1-0.5,0.2-0.8,0.4
		c-0.3,0.2-0.5,0.5-0.6,1C176.6,306.4,176.5,307,176.5,307.7z"/>
</g>
<g>
	<path class="st32" d="M148.8,395.8c-0.2-0.8-0.3-1.7-0.3-2.7c0-1,0.1-1.9,0.3-2.7c0.2-0.8,0.5-1.4,0.9-1.9c0.4-0.5,0.8-0.8,1.3-1.1
		c0.5-0.3,1.1-0.5,1.6-0.6c0.5-0.1,1.1-0.1,1.6-0.1c1.3,0,2.6,0.2,3.8,0.7v1.6c-1.2-0.5-2.4-0.8-3.6-0.8c-1.5,0-2.6,0.4-3.2,1.1
		c-0.7,0.8-1,2-1,3.7c0,1.7,0.3,2.9,1,3.7s1.7,1.2,3.2,1.2c1.2,0,2.5-0.3,3.6-0.8v1.6c-1.3,0.5-2.5,0.8-3.8,0.8
		c-0.6,0-1.1,0-1.6-0.1c-0.5-0.1-1-0.3-1.6-0.6c-0.5-0.3-1-0.7-1.3-1.1C149.4,397.2,149.1,396.5,148.8,395.8z"/>
	<path class="st32" d="M160.2,396.4c0-0.9,0.4-1.7,1.2-2.2c0.8-0.5,1.9-0.8,3.2-0.8c0.6,0,1.2,0,1.7,0.1c0-0.8-0.3-1.4-0.6-1.7
		c-0.4-0.3-1-0.5-1.9-0.5c-0.8,0-1.7,0.2-2.6,0.5v-1.5c0.9-0.3,1.8-0.5,2.8-0.5c1.3,0,2.3,0.3,3,1c0.7,0.7,1.1,1.7,1.1,2.9v2.7
		c0,0.2,0,0.4-0.1,0.6c0,0.2-0.1,0.5-0.3,0.8c-0.2,0.3-0.4,0.6-0.6,0.8c-0.3,0.2-0.6,0.4-1.2,0.6c-0.5,0.2-1.1,0.3-1.8,0.3
		c-0.7,0-1.3-0.1-1.8-0.3c-0.5-0.2-0.9-0.4-1.2-0.6c-0.3-0.2-0.5-0.5-0.6-0.8c-0.2-0.3-0.3-0.6-0.3-0.8
		C160.2,396.8,160.2,396.6,160.2,396.4z M161.9,396.3c0,1.1,0.8,1.6,2.3,1.6c0,0,0,0,0,0c1.4,0,2.1-0.5,2.1-1.5v-1.5
		c-0.5-0.1-1-0.1-1.6-0.1c-0.3,0-0.5,0-0.8,0.1c-0.3,0-0.6,0.1-0.9,0.2c-0.3,0.1-0.6,0.3-0.8,0.5C162,395.8,161.9,396,161.9,396.3z"
		/>
	<path class="st32" d="M170.6,399.3v-8.6c1.3-0.6,2.6-0.9,3.9-0.9c1,0,1.9,0.2,2.5,0.7c1.2-0.5,2.3-0.7,3.4-0.7
		c1.2,0,2.1,0.3,2.8,0.9c0.7,0.6,1,1.5,1,2.6v6h-1.7v-6.2c0-0.5-0.1-1-0.4-1.3s-0.8-0.5-1.5-0.5c-0.8,0-1.7,0.2-2.5,0.5
		c0.1,0.4,0.2,0.8,0.2,1.3c0,0,0,0,0,0.1v6h-1.7v-6.1c0-0.6-0.1-1-0.4-1.3c-0.3-0.3-0.9-0.5-1.7-0.5c-0.7,0-1.4,0.1-2.1,0.3v7.6
		H170.6z"/>
	<path class="st32" d="M187,396.4v-10.1h1.7v3.7c0.6-0.2,1.3-0.3,2-0.3c0.5,0,1,0.1,1.5,0.2c0.5,0.1,0.9,0.4,1.4,0.7
		c0.4,0.3,0.8,0.8,1,1.5c0.3,0.7,0.4,1.4,0.4,2.4c0,0.8-0.1,1.6-0.3,2.2c-0.2,0.6-0.4,1.1-0.7,1.4c-0.3,0.3-0.6,0.6-1,0.8
		c-0.4,0.2-0.8,0.4-1.1,0.4c-0.3,0.1-0.7,0.1-1,0.1c-0.7,0-1.3-0.1-1.8-0.3c-0.5-0.2-0.9-0.4-1.2-0.6c-0.3-0.2-0.5-0.5-0.6-0.8
		c-0.2-0.3-0.2-0.6-0.3-0.8S187,396.6,187,396.4z M188.7,396.5c0,0.9,0.7,1.4,2.2,1.4c0.3,0,0.6,0,0.9-0.1c0.3-0.1,0.5-0.2,0.8-0.4
		c0.3-0.2,0.5-0.6,0.6-1.1c0.1-0.5,0.2-1.1,0.2-1.8c0-0.7-0.1-1.2-0.2-1.7c-0.1-0.4-0.3-0.8-0.6-1c-0.3-0.2-0.5-0.3-0.8-0.4
		c-0.3-0.1-0.6-0.1-1-0.1c-0.7,0-1.4,0.1-2,0.4V396.5z"/>
	<path class="st32" d="M197.2,397.1c-0.3-0.7-0.4-1.5-0.4-2.4c0-1,0.1-1.8,0.4-2.4c0.3-0.7,0.6-1.2,1.1-1.5c0.5-0.3,0.9-0.6,1.4-0.7
		c0.5-0.1,1-0.2,1.6-0.2s1.1,0.1,1.6,0.2c0.5,0.1,0.9,0.4,1.4,0.7c0.5,0.3,0.8,0.8,1.1,1.5c0.3,0.7,0.4,1.5,0.4,2.4
		c0,1-0.1,1.8-0.4,2.4c-0.3,0.7-0.6,1.2-1.1,1.5c-0.5,0.3-0.9,0.6-1.4,0.7c-0.5,0.1-1,0.2-1.6,0.2s-1.1-0.1-1.6-0.2
		c-0.5-0.1-0.9-0.4-1.4-0.7C197.8,398.2,197.4,397.7,197.2,397.1z M198.7,392.9c-0.1,0.5-0.2,1-0.2,1.7c0,0.7,0.1,1.3,0.2,1.7
		c0.1,0.5,0.3,0.8,0.6,1c0.3,0.2,0.6,0.4,0.8,0.4c0.3,0.1,0.6,0.1,1,0.1c0.4,0,0.7,0,1-0.1c0.3-0.1,0.6-0.2,0.8-0.4
		c0.3-0.2,0.5-0.6,0.6-1c0.1-0.5,0.2-1,0.2-1.7c0-0.7-0.1-1.3-0.2-1.7c-0.1-0.5-0.3-0.8-0.6-1c-0.3-0.2-0.6-0.4-0.8-0.4
		c-0.3-0.1-0.6-0.1-1-0.1c-0.4,0-0.7,0-1,0.1c-0.3,0.1-0.6,0.2-0.8,0.4C199.1,392.1,198.9,392.5,198.7,392.9z"/>
	<path class="st32" d="M207.5,394.5c0-0.9,0.1-1.7,0.4-2.4c0.3-0.7,0.6-1.1,1.1-1.5c0.4-0.3,0.9-0.6,1.4-0.7c0.5-0.1,1-0.2,1.5-0.2
		c0.7,0,1.3,0.1,2,0.3v-3.7h1.7v10.1c0,0.2,0,0.4-0.1,0.6c0,0.2-0.1,0.5-0.3,0.8c-0.1,0.3-0.4,0.6-0.6,0.8c-0.3,0.2-0.6,0.4-1.1,0.6
		c-0.5,0.2-1.1,0.3-1.8,0.3c-0.4,0-0.7,0-1-0.1c-0.3-0.1-0.7-0.2-1.1-0.4c-0.4-0.2-0.7-0.5-1-0.8c-0.3-0.3-0.5-0.8-0.7-1.4
		C207.6,396.1,207.5,395.3,207.5,394.5z M209.2,394.5c0,0.7,0.1,1.3,0.2,1.8c0.1,0.5,0.3,0.8,0.6,1c0.3,0.2,0.5,0.4,0.8,0.4
		c0.3,0.1,0.5,0.1,0.9,0.1c1.4,0,2.2-0.5,2.2-1.4v-4.8c-0.6-0.3-1.3-0.4-2-0.4c-0.4,0-0.7,0-1,0.1c-0.3,0.1-0.5,0.2-0.8,0.4
		c-0.3,0.2-0.5,0.5-0.6,1C209.3,393.3,209.2,393.8,209.2,394.5z"/>
	<path class="st32" d="M218.3,388.5v-1.8h1.8v1.8H218.3z M218.3,399.3v-9.4h1.7v9.4H218.3z"/>
	<path class="st32" d="M222.5,396.4c0-0.9,0.4-1.7,1.2-2.2s1.9-0.8,3.2-0.8c0.6,0,1.2,0,1.7,0.1c0-0.8-0.3-1.4-0.6-1.7
		c-0.4-0.3-1-0.5-1.9-0.5c-0.8,0-1.7,0.2-2.6,0.5v-1.5c0.9-0.3,1.8-0.5,2.8-0.5c1.3,0,2.3,0.3,3,1c0.7,0.7,1.1,1.7,1.1,2.9v2.7
		c0,0.2,0,0.4-0.1,0.6c0,0.2-0.1,0.5-0.3,0.8c-0.2,0.3-0.4,0.6-0.6,0.8c-0.3,0.2-0.6,0.4-1.2,0.6c-0.5,0.2-1.1,0.3-1.8,0.3
		c-0.7,0-1.3-0.1-1.8-0.3c-0.5-0.2-0.9-0.4-1.2-0.6c-0.3-0.2-0.5-0.5-0.6-0.8c-0.2-0.3-0.3-0.6-0.3-0.8
		C222.5,396.8,222.5,396.6,222.5,396.4z M224.2,396.3c0,1.1,0.8,1.6,2.3,1.6c0,0,0,0,0,0c1.4,0,2.1-0.5,2.1-1.5v-1.5
		c-0.5-0.1-1-0.1-1.6-0.1c-0.3,0-0.5,0-0.8,0.1c-0.3,0-0.6,0.1-0.9,0.2s-0.6,0.3-0.8,0.5C224.3,395.8,224.2,396,224.2,396.3z"/>
</g>
<g>
	<path class="st32" d="M491.1,342.5V330h4.5c1.4,0,2.5,0.3,3.2,1s1.2,1.7,1.2,2.9s-0.4,2.2-1.2,2.9c-0.8,0.7-1.8,1-3.2,1h-2.8v4.7
		H491.1z M492.8,336.3h2.6c1.1,0,1.9-0.2,2.2-0.6c0.4-0.4,0.6-1,0.6-1.7c0-0.7-0.2-1.3-0.6-1.7c-0.4-0.4-1.1-0.6-2.2-0.6h-2.6V336.3
		z"/>
	<path class="st32" d="M502.2,342.5v-13h1.7v3.9c0.8-0.3,1.6-0.5,2.5-0.5c1.2,0,2.1,0.3,2.7,1c0.6,0.7,1,1.7,1,3v5.5h-1.8v-5.6
		c0-0.9-0.2-1.5-0.6-1.8c-0.4-0.3-0.9-0.5-1.5-0.5c-0.8,0-1.5,0.2-2.3,0.5v7.5H502.2z"/>
	<path class="st32" d="M512.9,331.7v-1.8h1.8v1.8H512.9z M512.9,342.5v-9.4h1.7v9.4H512.9z"/>
	<path class="st32" d="M517.8,342.5v-13h1.7v13H517.8z"/>
	<path class="st32" d="M522.6,331.7v-1.8h1.8v1.8H522.6z M522.7,342.5v-9.4h1.7v9.4H522.7z"/>
	<path class="st32" d="M527.5,346.1V336c0-0.2,0-0.4,0.1-0.6c0-0.2,0.1-0.5,0.3-0.8c0.2-0.3,0.4-0.6,0.6-0.8
		c0.3-0.2,0.6-0.4,1.2-0.6c0.5-0.2,1.1-0.3,1.8-0.3c0.3,0,0.7,0,1,0.1c0.3,0.1,0.7,0.2,1.1,0.4c0.4,0.2,0.7,0.5,1,0.8
		c0.3,0.3,0.5,0.8,0.7,1.4c0.2,0.6,0.3,1.3,0.3,2.2c0,0.9-0.1,1.7-0.4,2.4c-0.3,0.7-0.6,1.1-1.1,1.5c-0.4,0.3-0.9,0.5-1.4,0.7
		s-1,0.2-1.5,0.2c-0.7,0-1.4-0.1-2-0.3v3.7H527.5z M529.2,340.8c0.7,0.3,1.3,0.4,2,0.4c0.4,0,0.7,0,1-0.1s0.5-0.2,0.8-0.4
		c0.3-0.2,0.5-0.5,0.6-1c0.1-0.4,0.2-1,0.2-1.7c0-0.7-0.1-1.3-0.2-1.8c-0.1-0.5-0.3-0.8-0.6-1.1s-0.5-0.4-0.8-0.5
		c-0.3-0.1-0.5-0.1-0.9-0.1c-1.4,0-2.2,0.5-2.2,1.4V340.8z"/>
	<path class="st32" d="M537.8,346.1V336c0-0.2,0-0.4,0.1-0.6c0-0.2,0.1-0.5,0.3-0.8c0.2-0.3,0.4-0.6,0.6-0.8
		c0.3-0.2,0.6-0.4,1.2-0.6c0.5-0.2,1.1-0.3,1.8-0.3c0.3,0,0.7,0,1,0.1c0.3,0.1,0.7,0.2,1.1,0.4c0.4,0.2,0.7,0.5,1,0.8
		c0.3,0.3,0.5,0.8,0.7,1.4c0.2,0.6,0.3,1.3,0.3,2.2c0,0.9-0.1,1.7-0.4,2.4c-0.3,0.7-0.6,1.1-1.1,1.5c-0.4,0.3-0.9,0.5-1.4,0.7
		s-1,0.2-1.5,0.2c-0.7,0-1.4-0.1-2-0.3v3.7H537.8z M539.5,340.8c0.7,0.3,1.3,0.4,2,0.4c0.4,0,0.7,0,1-0.1s0.5-0.2,0.8-0.4
		c0.3-0.2,0.5-0.5,0.6-1s0.2-1,0.2-1.7c0-0.7-0.1-1.3-0.2-1.8s-0.3-0.8-0.6-1.1c-0.3-0.2-0.5-0.4-0.8-0.5c-0.3-0.1-0.5-0.1-0.9-0.1
		c-1.4,0-2.2,0.5-2.2,1.4V340.8z"/>
	<path class="st32" d="M548.3,331.7v-1.8h1.8v1.8H548.3z M548.3,342.5v-9.4h1.7v9.4H548.3z"/>
	<path class="st32" d="M553.1,342.5v-8.6c1.3-0.6,2.6-1,4-1c1.2,0,2.1,0.3,2.8,0.9c0.7,0.6,1,1.5,1,2.6v6.1h-1.8v-6.2
		c0-0.6-0.1-1-0.4-1.3c-0.3-0.3-0.9-0.5-1.7-0.5c-0.8,0-1.5,0.1-2.2,0.3v7.6H553.1z"/>
	<path class="st32" d="M563.3,337.9c0-3.3,1.4-5,4.1-5c0,0,0,0,0,0c1.3,0,2.3,0.4,3,1.2c0.8,0.8,1.1,1.9,1.1,3.3
		c0,0.4,0,0.9-0.1,1.3H565c0.2,1.6,1.1,2.4,2.6,2.4c1.3,0,2.4-0.2,3.2-0.7v1.6c-1,0.4-2.1,0.6-3.3,0.6c0,0,0,0-0.1,0
		c-0.6,0-1.1-0.1-1.5-0.2c-0.5-0.1-0.9-0.4-1.4-0.7c-0.4-0.3-0.8-0.8-1-1.5C563.4,339.7,563.3,338.9,563.3,337.9z M565,337.3h4.8
		c0-0.3-0.1-0.6-0.2-0.9c-0.1-0.3-0.2-0.6-0.4-0.9s-0.4-0.5-0.7-0.7c-0.3-0.2-0.7-0.3-1.1-0.3c-0.8,0-1.4,0.2-1.7,0.6
		S565.1,336.3,565,337.3z"/>
	<path class="st32" d="M573.4,335.8c0-0.8,0.3-1.4,0.8-2c0.6-0.5,1.4-0.8,2.5-0.8c0.9,0,1.7,0.2,2.5,0.6v1.5
		c-0.8-0.4-1.6-0.6-2.3-0.6c-1.2,0-1.9,0.4-1.9,1.2c0,0.3,0.2,0.5,0.5,0.7c0.3,0.2,0.7,0.3,1.2,0.5c0.5,0.1,0.9,0.3,1.4,0.5
		c0.5,0.2,0.9,0.5,1.2,0.9c0.3,0.4,0.5,1,0.5,1.6c0,0.8-0.3,1.4-0.9,2c-0.6,0.5-1.4,0.8-2.6,0.8c-1,0-1.9-0.2-2.7-0.7v-1.6
		c0.8,0.5,1.7,0.7,2.6,0.7c0,0,0,0,0,0c0.6,0,1.1-0.1,1.4-0.3s0.5-0.5,0.5-0.8c0-0.4-0.2-0.7-0.5-0.9c-0.3-0.2-0.7-0.4-1.2-0.6
		c-0.5-0.1-0.9-0.3-1.4-0.4c-0.5-0.2-0.9-0.4-1.2-0.8C573.5,336.9,573.4,336.4,573.4,335.8z"/>
</g>
<g>
	<path class="st32" d="M357.3,547.6V535h4.3c0.9,0,1.6,0.1,2.2,0.3c0.6,0.2,1,0.5,1.3,0.9s0.4,0.7,0.5,1.1c0.1,0.3,0.2,0.7,0.2,1.1
		c0,0.4-0.1,0.7-0.2,1c-0.1,0.3-0.2,0.6-0.4,0.7c-0.1,0.2-0.3,0.3-0.4,0.5c-0.2,0.1-0.3,0.2-0.4,0.3l-0.1,0.1l0.2,0.1
		c0.1,0,0.3,0.1,0.5,0.3c0.3,0.2,0.5,0.3,0.7,0.5c0.2,0.2,0.4,0.5,0.5,0.8c0.2,0.4,0.2,0.8,0.2,1.2c0,0.4-0.1,0.8-0.2,1.2
		c-0.1,0.4-0.3,0.7-0.6,1.1c-0.3,0.4-0.7,0.7-1.4,0.9c-0.6,0.2-1.4,0.3-2.3,0.3H357.3z M359.1,540.3h2.6c0.8,0,1.4-0.1,1.8-0.4
		c0.4-0.3,0.6-0.7,0.6-1.5c0-0.7-0.2-1.2-0.6-1.5c-0.4-0.3-1.1-0.4-1.9-0.4h-2.4V540.3z M359.1,546l2.8,0c1,0,1.7-0.2,2.2-0.5
		c0.5-0.3,0.7-0.9,0.7-1.6c0-0.8-0.3-1.3-0.8-1.6c-0.5-0.3-1.3-0.4-2.2-0.4h-2.7V546z"/>
	<path class="st32" d="M368.7,547.6v-8.6c1.6-0.6,3.1-0.9,4.6-0.9v1.6c-0.9,0-1.9,0.1-2.9,0.4v7.6H368.7z"/>
	<path class="st32" d="M375.1,543.6v-5.4h1.7v5.6c0,0.9,0.2,1.5,0.5,1.9c0.4,0.4,0.9,0.6,1.7,0.6c0.8,0,1.3-0.2,1.7-0.6
		c0.4-0.4,0.5-1,0.5-1.9v-5.6h1.7v5.4c0,1.3-0.3,2.3-1,3c-0.7,0.7-1.7,1.1-2.9,1.1c-1.3,0-2.2-0.4-2.9-1.1
		C375.4,545.9,375.1,544.9,375.1,543.6z"/>
	<path class="st32" d="M385.8,547.6V539c1.3-0.6,2.6-1,4-1c1.2,0,2.1,0.3,2.8,0.9c0.7,0.6,1,1.5,1,2.6v6.1h-1.8v-6.2
		c0-0.6-0.1-1-0.4-1.3c-0.3-0.3-0.9-0.5-1.7-0.5c-0.8,0-1.5,0.1-2.2,0.3v7.6H385.8z"/>
	<path class="st32" d="M395.9,543c0-3.3,1.4-5,4.1-5c0,0,0,0,0,0c1.3,0,2.3,0.4,3,1.2c0.8,0.8,1.1,1.9,1.1,3.3c0,0.4,0,0.9-0.1,1.3
		h-6.5c0.2,1.6,1.1,2.4,2.6,2.4c1.3,0,2.4-0.2,3.2-0.7v1.6c-1,0.4-2.1,0.6-3.3,0.6c0,0,0,0-0.1,0c-0.6,0-1.1-0.1-1.5-0.2
		s-0.9-0.4-1.4-0.7c-0.4-0.3-0.8-0.8-1-1.5C396,544.7,395.9,543.9,395.9,543z M397.7,542.3h4.8c0-0.3-0.1-0.6-0.2-0.9
		c-0.1-0.3-0.2-0.6-0.4-0.9c-0.2-0.3-0.4-0.5-0.7-0.7c-0.3-0.2-0.7-0.3-1.1-0.3c-0.8,0-1.4,0.2-1.7,0.6
		C398,540.6,397.7,541.3,397.7,542.3z"/>
	<path class="st32" d="M406.5,536.7v-1.8h1.8v1.8H406.5z M406.6,547.6v-9.4h1.7v9.4H406.6z"/>
</g>
<g>
	<path class="st32" d="M116.5,571.5v-12.6h1.9l4.1,5.4l4.1-5.4h1.9v12.6h-1.8v-9.9l-4.3,5.6l-4.3-5.6v9.9H116.5z"/>
	<path class="st32" d="M131.1,568.5c0-0.9,0.4-1.7,1.2-2.2c0.8-0.5,1.9-0.8,3.2-0.8c0.6,0,1.2,0,1.7,0.1c0-0.8-0.3-1.4-0.6-1.7
		s-1-0.5-1.9-0.5c-0.8,0-1.7,0.2-2.6,0.5v-1.5c0.9-0.3,1.8-0.5,2.8-0.5c1.3,0,2.3,0.3,3,1c0.7,0.7,1.1,1.7,1.1,2.9v2.7
		c0,0.2,0,0.4-0.1,0.6c0,0.2-0.1,0.5-0.3,0.8c-0.2,0.3-0.4,0.6-0.6,0.8c-0.3,0.2-0.6,0.4-1.2,0.6s-1.1,0.3-1.8,0.3
		c-0.7,0-1.3-0.1-1.8-0.3c-0.5-0.2-0.9-0.4-1.2-0.6c-0.3-0.2-0.5-0.5-0.6-0.8c-0.2-0.3-0.3-0.6-0.3-0.8
		C131.1,568.9,131.1,568.7,131.1,568.5z M132.8,568.5c0,1.1,0.8,1.6,2.3,1.6c0,0,0,0,0,0c1.4,0,2.1-0.5,2.1-1.5V567
		c-0.5-0.1-1-0.1-1.6-0.1c-0.3,0-0.5,0-0.8,0.1c-0.3,0-0.6,0.1-0.9,0.2c-0.3,0.1-0.6,0.3-0.8,0.5
		C132.9,567.9,132.8,568.2,132.8,568.5z"/>
	<path class="st32" d="M141.5,571.5v-13h1.7v13H141.5z"/>
	<path class="st32" d="M145.7,568.5c0-0.9,0.4-1.7,1.2-2.2c0.8-0.5,1.9-0.8,3.2-0.8c0.6,0,1.2,0,1.7,0.1c0-0.8-0.3-1.4-0.6-1.7
		s-1-0.5-1.9-0.5c-0.8,0-1.7,0.2-2.6,0.5v-1.5c0.9-0.3,1.8-0.5,2.8-0.5c1.3,0,2.3,0.3,3,1c0.7,0.7,1.1,1.7,1.1,2.9v2.7
		c0,0.2,0,0.4-0.1,0.6s-0.1,0.5-0.3,0.8c-0.2,0.3-0.4,0.6-0.6,0.8c-0.3,0.2-0.6,0.4-1.2,0.6s-1.1,0.3-1.8,0.3
		c-0.7,0-1.3-0.1-1.8-0.3c-0.5-0.2-0.9-0.4-1.2-0.6c-0.3-0.2-0.5-0.5-0.6-0.8c-0.2-0.3-0.3-0.6-0.3-0.8
		C145.7,568.9,145.7,568.7,145.7,568.5z M147.4,568.5c0,1.1,0.8,1.6,2.3,1.6c0,0,0,0,0,0c1.4,0,2.1-0.5,2.1-1.5V567
		c-0.5-0.1-1-0.1-1.6-0.1c-0.3,0-0.5,0-0.8,0.1c-0.3,0-0.6,0.1-0.9,0.2c-0.3,0.1-0.6,0.3-0.8,0.5
		C147.5,567.9,147.4,568.2,147.4,568.5z"/>
	<path class="st32" d="M154.8,562.1h1.8l2.5,7l2.5-7h1.8l-3.9,10.4c-0.7,1.8-1.6,2.7-2.9,2.7h0c-0.4,0-0.9,0-1.3-0.1v-1.6
		c0.4,0.1,0.7,0.2,1.1,0.2c0.8,0,1.4-0.7,1.9-2.2L154.8,562.1z"/>
	<path class="st32" d="M164.8,564.7c0-0.8,0.3-1.4,0.8-2c0.6-0.5,1.4-0.8,2.5-0.8c0.8,0,1.7,0.2,2.5,0.6v1.5
		c-0.8-0.4-1.6-0.6-2.3-0.6c-1.2,0-1.9,0.4-1.9,1.2c0,0.3,0.2,0.5,0.5,0.7s0.7,0.3,1.2,0.5s0.9,0.3,1.4,0.5c0.5,0.2,0.9,0.5,1.2,0.9
		c0.3,0.4,0.5,1,0.5,1.6c0,0.8-0.3,1.4-0.9,2c-0.6,0.5-1.4,0.8-2.6,0.8c-1,0-1.9-0.2-2.7-0.7v-1.6c0.8,0.5,1.7,0.7,2.6,0.7
		c0,0,0,0,0,0c0.6,0,1.1-0.1,1.4-0.3c0.3-0.2,0.5-0.5,0.5-0.8c0-0.4-0.2-0.7-0.5-0.9c-0.3-0.2-0.7-0.4-1.2-0.6s-0.9-0.3-1.4-0.4
		c-0.5-0.2-0.9-0.4-1.2-0.8C165,565.8,164.8,565.3,164.8,564.7z"/>
	<path class="st32" d="M173.6,560.6v-1.8h1.8v1.8H173.6z M173.6,571.5v-9.4h1.7v9.4H173.6z"/>
	<path class="st32" d="M177.8,568.5c0-0.9,0.4-1.7,1.2-2.2c0.8-0.5,1.9-0.8,3.2-0.8c0.6,0,1.2,0,1.7,0.1c0-0.8-0.3-1.4-0.6-1.7
		s-1-0.5-1.9-0.5c-0.8,0-1.7,0.2-2.6,0.5v-1.5c0.9-0.3,1.8-0.5,2.8-0.5c1.3,0,2.3,0.3,3,1c0.7,0.7,1.1,1.7,1.1,2.9v2.7
		c0,0.2,0,0.4-0.1,0.6s-0.1,0.5-0.3,0.8c-0.2,0.3-0.4,0.6-0.6,0.8c-0.3,0.2-0.6,0.4-1.2,0.6c-0.5,0.2-1.1,0.3-1.8,0.3
		c-0.7,0-1.3-0.1-1.8-0.3c-0.5-0.2-0.9-0.4-1.2-0.6c-0.3-0.2-0.5-0.5-0.6-0.8c-0.2-0.3-0.3-0.6-0.3-0.8
		C177.8,568.9,177.8,568.7,177.8,568.5z M179.5,568.5c0,1.1,0.8,1.6,2.3,1.6c0,0,0,0,0,0c1.4,0,2.1-0.5,2.1-1.5V567
		c-0.5-0.1-1-0.1-1.6-0.1c-0.3,0-0.5,0-0.8,0.1c-0.3,0-0.6,0.1-0.9,0.2c-0.3,0.1-0.6,0.3-0.8,0.5
		C179.6,567.9,179.5,568.2,179.5,568.5z"/>
</g>
<g>
	<path class="st32" d="M112,646.1c0-1,0.4-1.8,1.1-2.5c0.7-0.7,1.8-1,3.3-1c1.1,0,2.2,0.3,3.2,0.8v1.7c-0.9-0.6-1.9-0.8-3-0.8
		c-1.9,0-2.8,0.6-2.8,1.9c0,0.3,0.2,0.6,0.5,0.9c0.3,0.3,0.7,0.5,1.2,0.6c0.5,0.2,1,0.3,1.6,0.6c0.6,0.2,1.1,0.5,1.6,0.8
		c0.5,0.3,0.9,0.7,1.2,1.2c0.3,0.5,0.5,1.1,0.5,1.8c0,1.1-0.4,1.9-1.2,2.5c-0.8,0.6-1.9,0.9-3.3,0.9c-1.3,0-2.5-0.3-3.7-0.9v-1.8
		c1.2,0.7,2.4,1.1,3.6,1.1c2,0,2.9-0.6,2.9-1.8c0-0.5-0.2-0.9-0.5-1.3s-0.7-0.6-1.2-0.8l-1.6-0.5c-0.6-0.2-1.1-0.4-1.6-0.6
		c-0.5-0.2-0.9-0.5-1.2-1C112.2,647.3,112,646.8,112,646.1z"/>
	<path class="st32" d="M122.9,644.4v-1.8h1.8v1.8H122.9z M122.9,655.3v-9.4h1.7v9.4H122.9z"/>
	<path class="st32" d="M127.7,655.3v-8.6c1.3-0.6,2.6-1,4-1c1.2,0,2.1,0.3,2.8,0.9c0.7,0.6,1,1.5,1,2.6v6.1h-1.8v-6.2
		c0-0.6-0.1-1-0.4-1.3c-0.3-0.3-0.9-0.5-1.7-0.5c-0.8,0-1.5,0.1-2.2,0.3v7.6H127.7z"/>
	<path class="st32" d="M138,650.5c0-1.5,0.3-2.6,1-3.5c0.7-0.9,1.7-1.3,3-1.3c1.1,0,2.1,0.3,2.7,0.8c0.7,0.5,1,1.2,1,2.2v7
		c0,0.4-0.1,0.8-0.2,1.2c-0.1,0.4-0.3,0.7-0.6,1c-0.3,0.3-0.7,0.6-1.3,0.8c-0.6,0.2-1.3,0.3-2.1,0.3c-0.9,0-1.9-0.1-2.8-0.4v-1.6
		c0.9,0.3,1.8,0.4,2.6,0.4c0.6,0,1.1-0.1,1.5-0.2c0.4-0.1,0.6-0.3,0.8-0.5c0.1-0.2,0.2-0.4,0.3-0.5c0-0.1,0-0.3,0-0.5v-0.8
		c-0.6,0.2-1.3,0.3-1.9,0.3c-1.3,0-2.4-0.4-3.1-1.2C138.4,653.1,138,652,138,650.5z M139.7,650.5c0,1.2,0.2,2,0.7,2.4
		c0.4,0.4,1,0.6,1.8,0.6c0.7,0,1.3-0.1,1.9-0.4v-4.6c0-0.1,0-0.3,0-0.4s-0.1-0.2-0.2-0.4c-0.1-0.2-0.3-0.3-0.6-0.4
		c-0.3-0.1-0.7-0.1-1.2-0.1c-0.3,0-0.6,0-0.8,0.1c-0.2,0.1-0.5,0.2-0.7,0.4c-0.2,0.2-0.4,0.5-0.6,1
		C139.8,649.3,139.7,649.8,139.7,650.5z"/>
	<path class="st32" d="M147.9,652.3c0-0.9,0.4-1.7,1.2-2.2c0.8-0.5,1.9-0.8,3.2-0.8c0.6,0,1.2,0,1.7,0.1c0-0.8-0.3-1.4-0.6-1.7
		c-0.4-0.3-1-0.5-1.9-0.5c-0.8,0-1.7,0.2-2.6,0.5v-1.5c0.9-0.3,1.8-0.5,2.8-0.5c1.3,0,2.3,0.3,3,1s1.1,1.7,1.1,2.9v2.7
		c0,0.2,0,0.4-0.1,0.6c0,0.2-0.1,0.5-0.3,0.8c-0.2,0.3-0.4,0.6-0.6,0.8c-0.3,0.2-0.6,0.4-1.2,0.6s-1.1,0.3-1.8,0.3
		c-0.7,0-1.3-0.1-1.8-0.3c-0.5-0.2-0.9-0.4-1.2-0.6c-0.3-0.2-0.5-0.5-0.6-0.8c-0.2-0.3-0.3-0.6-0.3-0.8
		C147.9,652.7,147.9,652.5,147.9,652.3z M149.6,652.3c0,1.1,0.8,1.6,2.3,1.6c0,0,0,0,0,0c1.4,0,2.1-0.5,2.1-1.5v-1.5
		c-0.5-0.1-1-0.1-1.6-0.1c-0.3,0-0.5,0-0.8,0.1c-0.3,0-0.6,0.1-0.9,0.2c-0.3,0.1-0.6,0.3-0.8,0.5C149.7,651.7,149.6,652,149.6,652.3
		z"/>
	<path class="st32" d="M158.1,658.9v-10.1c0-0.2,0-0.4,0.1-0.6s0.1-0.5,0.3-0.8c0.2-0.3,0.4-0.6,0.6-0.8c0.3-0.2,0.6-0.4,1.2-0.6
		c0.5-0.2,1.1-0.3,1.8-0.3c0.3,0,0.7,0,1,0.1c0.3,0.1,0.7,0.2,1.1,0.4c0.4,0.2,0.7,0.5,1,0.8c0.3,0.3,0.5,0.8,0.7,1.4
		c0.2,0.6,0.3,1.3,0.3,2.2c0,0.9-0.1,1.7-0.4,2.4c-0.3,0.7-0.6,1.1-1.1,1.5c-0.4,0.3-0.9,0.5-1.4,0.7c-0.5,0.1-1,0.2-1.5,0.2
		c-0.7,0-1.4-0.1-2-0.3v3.7H158.1z M159.9,653.5c0.7,0.3,1.3,0.4,2,0.4c0.4,0,0.7,0,1-0.1c0.3-0.1,0.5-0.2,0.8-0.4
		c0.3-0.2,0.5-0.5,0.6-1c0.1-0.4,0.2-1,0.2-1.7c0-0.7-0.1-1.3-0.2-1.8c-0.1-0.5-0.3-0.8-0.6-1.1c-0.3-0.2-0.5-0.4-0.8-0.5
		c-0.3-0.1-0.5-0.1-0.9-0.1c-1.4,0-2.2,0.5-2.2,1.4V653.5z"/>
	<path class="st32" d="M168.5,653c-0.3-0.7-0.4-1.5-0.4-2.4c0-1,0.1-1.8,0.4-2.4c0.3-0.7,0.6-1.2,1.1-1.5c0.5-0.3,0.9-0.6,1.4-0.7
		c0.5-0.1,1-0.2,1.6-0.2s1.1,0.1,1.6,0.2c0.5,0.1,0.9,0.4,1.4,0.7c0.5,0.3,0.8,0.8,1.1,1.5c0.3,0.7,0.4,1.5,0.4,2.4
		c0,1-0.1,1.8-0.4,2.4c-0.3,0.7-0.6,1.2-1.1,1.5c-0.5,0.3-0.9,0.6-1.4,0.7c-0.5,0.1-1,0.2-1.6,0.2s-1.1-0.1-1.6-0.2
		c-0.5-0.1-0.9-0.4-1.4-0.7C169.2,654.2,168.8,653.7,168.5,653z M170.1,648.9c-0.1,0.5-0.2,1-0.2,1.7c0,0.7,0.1,1.3,0.2,1.7
		c0.1,0.5,0.3,0.8,0.6,1c0.3,0.2,0.6,0.4,0.8,0.4c0.3,0.1,0.6,0.1,1,0.1s0.7,0,1-0.1c0.3-0.1,0.6-0.2,0.8-0.4c0.3-0.2,0.5-0.6,0.6-1
		c0.1-0.5,0.2-1,0.2-1.7c0-0.7-0.1-1.3-0.2-1.7c-0.1-0.5-0.3-0.8-0.6-1c-0.3-0.2-0.6-0.4-0.8-0.4c-0.3-0.1-0.6-0.1-1-0.1
		s-0.7,0-1,0.1c-0.3,0.1-0.6,0.2-0.8,0.4C170.4,648.1,170.2,648.4,170.1,648.9z"/>
	<path class="st32" d="M179.3,655.3v-8.6c1.6-0.6,3.1-0.9,4.6-0.9v1.6c-0.9,0-1.9,0.1-2.9,0.4v7.6H179.3z"/>
	<path class="st32" d="M185.2,650.7c0-3.3,1.4-5,4.1-5c0,0,0,0,0,0c1.3,0,2.3,0.4,3,1.2c0.8,0.8,1.1,1.9,1.1,3.3
		c0,0.4,0,0.9-0.1,1.3h-6.5c0.2,1.6,1.1,2.4,2.6,2.4c1.3,0,2.4-0.2,3.2-0.7v1.6c-1,0.4-2.1,0.6-3.3,0.6c0,0,0,0-0.1,0
		c-0.6,0-1.1-0.1-1.5-0.2c-0.5-0.1-0.9-0.4-1.4-0.7c-0.4-0.3-0.8-0.8-1-1.5C185.3,652.4,185.2,651.6,185.2,650.7z M186.9,650h4.8
		c0-0.3-0.1-0.6-0.2-0.9c-0.1-0.3-0.2-0.6-0.4-0.9c-0.2-0.3-0.4-0.5-0.7-0.7c-0.3-0.2-0.7-0.3-1.1-0.3c-0.8,0-1.4,0.2-1.7,0.6
		C187.2,648.3,187,649,186.9,650z"/>
</g>
<g>
	<path class="st32" d="M362.4,719.7v-12.6h1.8v12.6H362.4z"/>
	<path class="st32" d="M367,719.7v-8.6c1.3-0.6,2.6-1,4-1c1.2,0,2.1,0.3,2.8,0.9s1,1.5,1,2.6v6.1h-1.8v-6.2c0-0.6-0.1-1-0.4-1.3
		c-0.3-0.3-0.9-0.5-1.7-0.5c-0.8,0-1.5,0.1-2.2,0.3v7.6H367z"/>
	<path class="st32" d="M377.2,714.9c0-0.9,0.1-1.7,0.4-2.4c0.3-0.7,0.6-1.1,1.1-1.5c0.4-0.3,0.9-0.6,1.4-0.7c0.5-0.1,1-0.2,1.5-0.2
		c0.7,0,1.3,0.1,2,0.3v-3.7h1.7v10.1c0,0.2,0,0.4-0.1,0.6c0,0.2-0.1,0.5-0.3,0.8c-0.1,0.3-0.4,0.6-0.6,0.8c-0.3,0.2-0.6,0.4-1.1,0.6
		c-0.5,0.2-1.1,0.3-1.8,0.3c-0.4,0-0.7,0-1-0.1c-0.3-0.1-0.7-0.2-1.1-0.4c-0.4-0.2-0.7-0.5-1-0.8c-0.3-0.3-0.5-0.8-0.7-1.4
		C377.3,716.4,377.2,715.7,377.2,714.9z M378.9,714.9c0,0.7,0.1,1.3,0.2,1.8c0.1,0.5,0.3,0.8,0.6,1c0.3,0.2,0.5,0.4,0.8,0.4
		c0.3,0.1,0.5,0.1,0.9,0.1c1.4,0,2.2-0.5,2.2-1.4v-4.8c-0.6-0.3-1.3-0.4-2-0.4c-0.4,0-0.7,0-1,0.1c-0.3,0.1-0.5,0.2-0.8,0.4
		c-0.3,0.2-0.5,0.5-0.6,1C379,713.6,378.9,714.2,378.9,714.9z"/>
	<path class="st32" d="M387.7,717.4c-0.3-0.7-0.4-1.5-0.4-2.4c0-1,0.1-1.8,0.4-2.4c0.3-0.7,0.6-1.2,1.1-1.5c0.5-0.3,0.9-0.6,1.4-0.7
		c0.5-0.1,1-0.2,1.6-0.2s1.1,0.1,1.6,0.2c0.5,0.1,0.9,0.4,1.4,0.7c0.5,0.3,0.8,0.8,1.1,1.5c0.3,0.7,0.4,1.5,0.4,2.4
		c0,1-0.1,1.8-0.4,2.4c-0.3,0.7-0.6,1.2-1.1,1.5c-0.5,0.3-0.9,0.6-1.4,0.7c-0.5,0.1-1,0.2-1.6,0.2s-1.1-0.1-1.6-0.2
		c-0.5-0.1-0.9-0.4-1.4-0.7C388.3,718.6,388,718.1,387.7,717.4z M389.3,713.3c-0.1,0.5-0.2,1-0.2,1.7c0,0.7,0.1,1.3,0.2,1.7
		c0.1,0.5,0.3,0.8,0.6,1c0.3,0.2,0.6,0.4,0.8,0.4c0.3,0.1,0.6,0.1,1,0.1s0.7,0,1-0.1c0.3-0.1,0.6-0.2,0.8-0.4c0.3-0.2,0.5-0.6,0.6-1
		c0.1-0.5,0.2-1,0.2-1.7c0-0.7-0.1-1.3-0.2-1.7c-0.1-0.5-0.3-0.8-0.6-1c-0.3-0.2-0.6-0.4-0.8-0.4c-0.3-0.1-0.6-0.1-1-0.1
		s-0.7,0-1,0.1c-0.3,0.1-0.6,0.2-0.8,0.4C389.6,712.5,389.4,712.8,389.3,713.3z"/>
	<path class="st32" d="M398.3,719.7v-8.6c1.3-0.6,2.6-1,4-1c1.2,0,2.1,0.3,2.8,0.9s1,1.5,1,2.6v6.1h-1.8v-6.2c0-0.6-0.1-1-0.4-1.3
		c-0.3-0.3-0.9-0.5-1.7-0.5c-0.8,0-1.5,0.1-2.2,0.3v7.6H398.3z"/>
	<path class="st32" d="M408.5,715.1c0-3.3,1.4-5,4.1-5c0,0,0,0,0,0c1.3,0,2.3,0.4,3,1.2c0.8,0.8,1.1,1.9,1.1,3.3
		c0,0.4,0,0.9-0.1,1.3h-6.5c0.2,1.6,1.1,2.4,2.6,2.4c1.3,0,2.4-0.2,3.2-0.7v1.6c-1,0.4-2.1,0.6-3.3,0.6c0,0,0,0-0.1,0
		c-0.6,0-1.1-0.1-1.5-0.2c-0.5-0.1-0.9-0.4-1.4-0.7c-0.4-0.3-0.8-0.8-1-1.5C408.6,716.8,408.5,716,408.5,715.1z M410.2,714.4h4.8
		c0-0.3-0.1-0.6-0.2-0.9c-0.1-0.3-0.2-0.6-0.4-0.9c-0.2-0.3-0.4-0.5-0.7-0.7c-0.3-0.2-0.7-0.3-1.1-0.3c-0.8,0-1.4,0.2-1.7,0.6
		S410.3,713.4,410.2,714.4z"/>
	<path class="st32" d="M418.6,712.9c0-0.8,0.3-1.4,0.8-2c0.6-0.5,1.4-0.8,2.5-0.8c0.8,0,1.7,0.2,2.5,0.6v1.5
		c-0.8-0.4-1.6-0.6-2.3-0.6c-1.2,0-1.9,0.4-1.9,1.2c0,0.3,0.2,0.5,0.5,0.7s0.7,0.3,1.2,0.5s0.9,0.3,1.4,0.5c0.5,0.2,0.9,0.5,1.2,0.9
		c0.3,0.4,0.5,1,0.5,1.6c0,0.8-0.3,1.4-0.9,2s-1.4,0.8-2.6,0.8c-1,0-1.9-0.2-2.7-0.7v-1.6c0.8,0.5,1.7,0.7,2.6,0.7c0,0,0,0,0,0
		c0.6,0,1.1-0.1,1.4-0.3c0.3-0.2,0.5-0.5,0.5-0.8c0-0.4-0.2-0.7-0.5-0.9c-0.3-0.2-0.7-0.4-1.2-0.6s-0.9-0.3-1.4-0.4
		c-0.5-0.2-0.9-0.4-1.2-0.8C418.8,714,418.6,713.5,418.6,712.9z"/>
	<path class="st32" d="M427.4,708.8V707h1.8v1.8H427.4z M427.4,719.7v-9.4h1.7v9.4H427.4z"/>
	<path class="st32" d="M431.6,716.7c0-0.9,0.4-1.7,1.2-2.2c0.8-0.5,1.9-0.8,3.2-0.8c0.6,0,1.2,0,1.7,0.1c0-0.8-0.3-1.4-0.6-1.7
		s-1-0.5-1.9-0.5c-0.8,0-1.7,0.2-2.6,0.5v-1.5c0.9-0.3,1.8-0.5,2.8-0.5c1.3,0,2.3,0.3,3,1c0.7,0.7,1.1,1.7,1.1,2.9v2.7
		c0,0.2,0,0.4-0.1,0.6s-0.1,0.5-0.3,0.8c-0.2,0.3-0.4,0.6-0.6,0.8c-0.3,0.2-0.6,0.4-1.2,0.6s-1.1,0.3-1.8,0.3
		c-0.7,0-1.3-0.1-1.8-0.3c-0.5-0.2-0.9-0.4-1.2-0.6c-0.3-0.2-0.5-0.5-0.6-0.8c-0.2-0.3-0.3-0.6-0.3-0.8
		C431.6,717.1,431.6,716.9,431.6,716.7z M433.3,716.7c0,1.1,0.8,1.6,2.3,1.6c0,0,0,0,0,0c1.4,0,2.1-0.5,2.1-1.5v-1.5
		c-0.5-0.1-1-0.1-1.6-0.1c-0.3,0-0.5,0-0.8,0.1c-0.3,0-0.6,0.1-0.9,0.2c-0.3,0.1-0.6,0.3-0.8,0.5
		C433.4,716.1,433.3,716.4,433.3,716.7z"/>
</g>
<path class="st33" d="M168.8,161.2c1.1-2.9,1.6-5.9,1.6-9.2s-0.6-6.3-1.6-9.2l-24.7-2.3l-24.7,2.3c-1.1,2.9-1.6,5.9-1.6,9.2
	s0.6,6.3,1.6,9.2l24.7,2.3L168.8,161.2z"/>
<path class="st34" d="M168.8,142.9c-3.7-10-13.4-17.2-24.7-17.2c-11.3,0-21,7.2-24.7,17.2H168.8z"/>
<path class="st35" d="M144.1,178.4c11.3,0,21-7.2,24.7-17.2h-49.4C123.1,171.3,132.8,178.4,144.1,178.4z"/>
<path class="st36" d="M162.2,148h-13.8l-4.3-13.1l-4.3,13.1H126l11.2,8.1l-4.3,13.1l11.2-8l11.2,8l-4.3-13.1L162.2,148z"/>
<g>
	<path class="st35" d="M263.5,393.1c0,4.6,1.2,9,3.2,12.8l23.4,2.3l23.4-2.3c2.1-3.8,3.2-8.1,3.2-12.8s-1.2-9-3.2-12.8l-23.4-2.3
		l-23.4,2.3C264.7,384.1,263.5,388.5,263.5,393.1z"/>
	<g>
		<path class="st37" d="M266.8,380.3h46.9c-4.5-8.3-13.3-13.9-23.4-13.9S271.3,372,266.8,380.3z"/>
		<path class="st37" d="M290.2,419.8c10.1,0,18.9-5.6,23.4-13.9h-46.9C271.3,414.2,280.1,419.8,290.2,419.8z"/>
	</g>
	<polygon class="st36" points="299.5,398.3 299.5,394.8 297.2,394.8 297.2,390.2 294.8,387.9 292.5,390.2 292.5,385.6 290.2,383.2 
		287.9,385.6 287.9,390.2 285.6,387.9 283.2,390.2 283.2,394.8 280.9,394.8 280.9,398.3 278.6,398.3 278.6,401.8 301.8,401.8 
		301.8,398.3 	"/>
</g>
<g>
	<circle class="st36" cx="641.3" cy="339.7" r="26.7"/>
	<path class="st35" d="M641.3,313v26.7l-18.9,18.9c4.8,4.8,11.5,7.8,18.9,7.8c14.7,0,26.7-11.9,26.7-26.7S641.3,313,641.3,313z"/>
	<path class="st37" d="M641.3,313c-7.4,0-14,3-18.9,7.8c6.5,6.5,8.9,8.9,18.9,18.9H668C668,325,656,313,641.3,313z"/>
	<g>
		<polygon class="st34" points="632.9,339.7 629.6,338.2 631.3,335 627.8,335.7 627.3,332.1 624.9,334.7 622.4,332.1 622,335.7 
			618.4,335 620.2,338.2 616.9,339.7 620.2,341.2 618.4,344.4 622,343.7 622.4,347.3 624.9,344.7 627.3,347.3 627.8,343.7 
			631.3,344.4 629.6,341.2 		"/>
		<polygon class="st34" points="621.7,323.5 622.8,325 624.6,324.4 623.5,325.9 624.5,327.4 622.8,326.8 621.7,328.3 621.7,326.5 
			619.9,325.9 621.7,325.3 		"/>
		<polygon class="st34" points="621.7,351.1 622.8,352.6 624.6,352 623.5,353.5 624.5,355 622.8,354.4 621.7,355.9 621.7,354.1 
			619.9,353.5 621.7,352.9 		"/>
		<polygon class="st34" points="637.2,337.3 636.1,338.8 634.3,338.2 635.4,339.7 634.3,341.2 636.1,340.6 637.2,342.1 637.2,340.3 
			639,339.7 637.2,339.1 		"/>
	</g>
</g>
<g>
	<circle class="st36" cx="469.7" cy="546.3" r="26.7"/>
	<path d="M446.6,533c-1.2,2.1-2.1,4.3-2.7,6.5l44.6,25.8c1.6-1.6,3.1-3.5,4.3-5.6L446.6,533z"/>
	<g>
		<path class="st34" d="M483,523.2c-10.7-6.2-23.8-4.1-32.2,4.2l44.6,25.8C498.5,541.8,493.7,529.4,483,523.2z"/>
		<path class="st34" d="M456.4,569.4c10.7,6.2,23.8,4.1,32.2-4.2l-44.6-25.8C440.9,550.8,445.7,563.3,456.4,569.4z"/>
	</g>
	<g>
		<path class="st35" d="M477.2,543.4c0,4.2-3.4,7.5-7.5,7.5s-7.5-3.4-7.5-7.5c0-1.3,0.3-2.5,0.9-3.6c-1.6,1.7-2.6,4-2.6,6.5
			c0,5.1,4.2,9.3,9.3,9.3s9.3-4.2,9.3-9.3c0-2.5-1-4.8-2.6-6.5C476.9,540.9,477.2,542.1,477.2,543.4z"/>
		<rect x="468" y="534.7" class="st35" width="3.5" height="17.4"/>
		<path class="st35" d="M475.5,538.2h-11.6c0,0.8,0.7,1.5,1.5,1.5h0c0,0.8,0.6,1.5,1.5,1.5c0,0.8,0.6,1.5,1.5,1.5h2.9
			c0.8,0,1.5-0.6,1.5-1.5c0.8,0,1.5-0.6,1.5-1.5h0C474.8,539.6,475.5,539,475.5,538.2z"/>
		<rect x="461.6" y="553.3" class="st35" width="16.2" height="3.5"/>
		<rect x="473.2" y="554.4" class="st35" width="7" height="3.5"/>
		<rect x="459.3" y="554.4" class="st35" width="7" height="3.5"/>
	</g>
</g>
<g>
	<circle class="st36" cx="250.8" cy="566.1" r="26.7"/>
	<g>
		<path class="st35" d="M249.6,566.1h27.8c0-2.4-0.3-4.7-0.9-7h-26.9V566.1z"/>
		<path class="st35" d="M249.6,552.1h23.9c-1.6-2.7-3.7-5-6.2-7h-17.8V552.1z"/>
		<path class="st35" d="M250.8,592.7c6.3,0,12.1-2.2,16.6-5.8h-33.2C238.7,590.6,244.5,592.7,250.8,592.7z"/>
		<path class="st35" d="M228,580h45.5c1.3-2.1,2.3-4.5,3-7H225C225.7,575.5,226.7,577.8,228,580z"/>
	</g>
	<path class="st37" d="M250.8,566.1c0-14.7,0-16.5,0-26.7c-14.7,0-26.7,11.9-26.7,26.7H250.8z"/>
	<g>
		<path class="st34" d="M241.8,562.2c-3.6,0-6.6-3-6.6-6.6c0-3.6,3-6.6,6.6-6.6c1.1,0,2.2,0.3,3.1,0.8c-1.5-1.4-3.5-2.3-5.7-2.3
			c-4.5,0-8.1,3.6-8.1,8.1c0,4.5,3.6,8.1,8.1,8.1c2.2,0,4.2-0.9,5.7-2.3C244,561.9,243,562.2,241.8,562.2z"/>
		<polygon class="st34" points="243.7,551 244.9,553.4 247.5,552.8 246.3,555.3 248.5,556.9 245.8,557.5 245.8,560.3 243.7,558.6 
			241.6,560.3 241.6,557.5 238.9,556.9 241.1,555.3 239.9,552.8 242.5,553.4 		"/>
	</g>
</g>
<g>
	<circle class="st36" cx="258.8" cy="653.4" r="26.7"/>
	<path class="st35" d="M232.1,653.4c0-14.7,11.9-26.7,26.7-26.7s26.7,11.9,26.7,26.7"/>
	<g>
		<path class="st36" d="M248.4,640.7c0-3.9,2.7-7.1,6.4-7.9c-0.6-0.1-1.1-0.2-1.7-0.2c-4.5,0-8.1,3.6-8.1,8.1c0,4.5,3.6,8.1,8.1,8.1
			c0.6,0,1.2-0.1,1.7-0.2C251.1,647.8,248.4,644.6,248.4,640.7z"/>
		<polygon class="st36" points="258.8,633.1 259.4,634.9 261.3,634.9 259.8,636 260.3,637.8 258.8,636.7 257.3,637.8 257.9,636 
			256.4,634.9 258.2,634.9 		"/>
		<polygon class="st36" points="254.3,636.6 254.9,638.4 256.7,638.4 255.2,639.5 255.8,641.3 254.3,640.2 252.8,641.3 253.4,639.5 
			251.9,638.4 253.7,638.4 		"/>
		<polygon class="st36" points="263.3,636.6 263.9,638.4 265.8,638.4 264.3,639.5 264.8,641.3 263.3,640.2 261.8,641.3 262.4,639.5 
			260.9,638.4 262.8,638.4 		"/>
		<polygon class="st36" points="261.6,641.8 262.2,643.6 264,643.6 262.5,644.7 263.1,646.5 261.6,645.4 260.1,646.5 260.7,644.7 
			259.2,643.6 261,643.6 		"/>
		<polygon class="st36" points="256,641.8 256.6,643.6 258.5,643.6 257,644.7 257.5,646.5 256,645.4 254.5,646.5 255.1,644.7 
			253.6,643.6 255.5,643.6 		"/>
	</g>
</g>
<g>
	<circle class="st36" cx="507.3" cy="713" r="26.7"/>
	<path class="st38" d="M480.6,713c0-14.7,11.9-26.7,26.7-26.7c14.7,0,26.7,11.9,26.7,26.7"/>
</g>
<g>
	<circle class="st35" cx="339.6" cy="152.1" r="26.7"/>
	<polygon class="st34" points="339.6,139.3 342.5,148.2 351.8,148.2 344.3,153.6 347.2,162.5 339.6,157 332.1,162.5 335,153.6 
		327.4,148.2 336.7,148.2 	"/>
</g>
<g>
	<g>
		<path class="st35" d="M310.4,212.4c-4.3-8.9-13.5-15.1-24-15.1s-19.7,6.2-24,15.1l24,2.3L310.4,212.4z"/>
		<path class="st35" d="M262.3,235.6c4.3,8.9,13.5,15.1,24,15.1s19.7-6.2,24-15.1l-24-2.3L262.3,235.6z"/>
	</g>
	<path class="st37" d="M310.4,212.4h-48.1c-1.7,3.5-2.6,7.4-2.6,11.6c0,4.2,1,8.1,2.6,11.6h48.1c1.7-3.5,2.6-7.4,2.6-11.6
		C313.1,219.8,312.1,215.9,310.4,212.4z"/>
	<circle class="st36" cx="286.4" cy="224" r="9.3"/>
</g>
<g>
	<circle class="st36" cx="242.4" cy="308.8" r="26.7"/>
	<path class="st37" d="M267.4,299.5h-50.1c-1.1,2.9-1.7,6-1.7,9.3c0,3.3,0.6,6.4,1.7,9.3h50.1c1.1-2.9,1.7-6,1.7-9.3
		C269,305.6,268.5,302.4,267.4,299.5z"/>
	<g>
		<path class="st35" d="M242.4,282.1c-8.1,0-15.3,3.6-20.2,9.3h40.5C257.7,285.7,250.4,282.1,242.4,282.1z"/>
		<path class="st35" d="M262.6,326.2h-40.5c4.9,5.7,12.1,9.3,20.2,9.3C250.4,335.5,257.7,331.9,262.6,326.2z"/>
	</g>
</g>
</svg>
