<?xml version="1.0" encoding="UTF-8"?>
<svg width="1884px" height="1080px" viewBox="0 0 1884 1080" version="1.1" xmlns="http://www.w3.org/2000/svg" xmlns:xlink="http://www.w3.org/1999/xlink">
    <!-- Generator: Sketch 46.2 (44496) - http://www.bohemiancoding.com/sketch -->
    <title>Group</title>
    <desc>Created with Sketch.</desc>
    <defs>
        <linearGradient x1="103.092151%" y1="-6.30870087%" x2="-3.88580274%" y2="95.1110791%" id="linearGradient-1">
            <stop stop-color="#ffffff" offset="0%"></stop>
            <stop stop-color="#ffffff" offset="100%"></stop>
        </linearGradient>
    </defs>
    <g id="Welcome" stroke="none" stroke-width="1" fill="none" fill-rule="evenodd">
        <g id="Desktop-HD" transform="translate(-36.000000, 0.000000)" stroke="url(#linearGradient-1)">
            <g id="Group" transform="translate(43.000000, -53.000000)">
                <rect id="Rectangle-2" stroke-width="15" transform="translate(101.312465, 928.700985) rotate(26.000000) translate(-101.312465, -928.700985) " x="61.8124651" y="892.700985" width="79" height="72"></rect>
                <rect id="Rectangle-2-Copy" stroke-width="15" transform="translate(1181.549833, 370.549833) rotate(26.000000) translate(-1181.549833, -370.549833) " x="1132.54983" y="321.549833" width="98" height="98" rx="49"></rect>
                <polygon id="Path-4-Copy" stroke-width="15" transform="translate(1871.857024, 57.075867) rotate(-130.000000) translate(-1871.857024, -57.075867) " points="1829.24689 90.8806671 1883.51234 20.4812692 1914.46716 93.6704653"></polygon>
                <polygon id="Path-4" stroke-width="15" points="1306 1157.60784 1349 1098 1404 1174"></polygon>
                <polyline id="Path-5" stroke-width="10" transform="translate(8.500000, 170.500000) rotate(90.000000) translate(-8.500000, -170.500000) " points="-35 179 -9.7826087 162 8.5 179 29.3043478 162 52 179"></polyline>
                <polyline id="Path-5-Copy" stroke-width="10" points="1828 657 1853.21739 640 1871.5 657 1892.30435 640 1915 657"></polyline>
            </g>
        </g>
    </g>
</svg>