<svg id="Layer_1" data-name="Layer 1" xmlns="http://www.w3.org/2000/svg" viewBox="0 0 1920.6 885.23">
  <defs>
    <style>
      .cls-1 {
        opacity: 0.1;
      }

      .cls-2 {
        fill: #fff;
      }
    </style>
  </defs>
  <title>bg2</title>
  <g class="cls-1">
    <rect class="cls-2" y="750.68" width="128.81" height="134.56"/>
    <rect class="cls-2" x="322.18" y="738.33" width="146.9" height="146.9"/>
    <rect class="cls-2" x="128.81" y="691.86" width="193.37" height="193.37"/>
    <rect class="cls-2" x="1675.76" y="640.4" width="244.84" height="244.84"/>
    <rect class="cls-2" x="1828.2" y="742.55" width="76.83" height="76.83" transform="translate(-53.84 1224.6) rotate(-41.1)"/>
    <rect class="cls-2" x="1634.41" y="112.15" width="50.59" height="50.59"/>
    <rect class="cls-2" x="1512.51" y="770.23" width="115" height="115"/>
    <rect class="cls-2" x="281.36" y="266.92" width="50.59" height="50.59"/>
    <rect class="cls-2" x="457.25" y="885.59" width="50.59" height="50.59" transform="matrix(0.87, 0.5, -0.5, 0.87, 519.69, -314)"/>
    <rect class="cls-2" x="1627.51" y="836.98" width="48.25" height="48.25"/>
    <rect class="cls-2" x="18.03" y="759.11" width="136.37" height="136.37" transform="translate(-242.97 -131.51) rotate(-17.33)"/>
    <rect class="cls-2" x="133.52" y="218.23" width="136.37" height="136.37" transform="translate(150.97 -255.03) rotate(26.89)"/>
  </g>
</svg>
