<svg id="elements" xmlns="http://www.w3.org/2000/svg" viewBox="0 0 182.04 93.24">
  <defs>
    <style>
      .cls-1 {
        fill: #f1f2f2;
      }
    </style>
  </defs>
  <title>bg65</title>
  <g>
    <rect class="cls-1" x="145.94" y="4.39" width="4.39" height="4.39"/>
    <rect class="cls-1" x="108.75" y="52.69" width="4.39" height="4.39"/>
    <rect class="cls-1" x="147.2" y="83.52" width="9.72" height="9.72"/>
    <rect class="cls-1" x="160.5" y="12.45" width="4.39" height="4.39"/>
    <rect class="cls-1" x="150.78" y="28.75" width="9.72" height="9.72"/>
    <rect class="cls-1" x="13.73" y="89.48" width="9.72" height="9.72" transform="translate(-65.38 24.03) rotate(-43.57)"/>
    <rect class="cls-1" y="83.52" width="9.72" height="9.72"/>
    <rect class="cls-1" x="99.03" y="83.52" width="9.72" height="9.72"/>
    <rect class="cls-1" x="12.58" y="26.35" width="4.39" height="4.39" transform="translate(-19.19 -1.1) rotate(-35.05)"/>
    <rect class="cls-1" x="15.78" y="37.37" width="4.39" height="4.39"/>
    <rect class="cls-1" x="10.45" y="15.74" width="9.72" height="9.72"/>
    <rect class="cls-1" x="42.46" y="10.26" width="4.39" height="4.39"/>
    <rect class="cls-1" x="26.44" width="4.39" height="4.39"/>
    <rect class="cls-1" x="7.34" y="62.6" width="9.72" height="9.72"/>
    <rect class="cls-1" x="161.51" y="52.88" width="9.72" height="9.72"/>
    <rect class="cls-1" x="161.51" y="72.71" width="20.53" height="20.53"/>
    <rect class="cls-1" x="50.2" y="72.71" width="20.53" height="20.53"/>
    <rect class="cls-1" x="138.43" y="78.51" width="20.53" height="20.53" transform="translate(-26.37 38.9) rotate(-19.14)"/>
    <rect class="cls-1" x="49.21" y="78.64" width="9.33" height="9.33" transform="translate(-29.85 7.55) rotate(-19.17)"/>
  </g>
</svg>
